SplineFontDB: 3.0
FontName: Midway-BoldItalic
FullName: Midway Bold Italic
FamilyName: Midway
Weight: Bold
Copyright: Copyright 2011 Canonical Ltd.\nCopyright 2015 Yuta Taniguchi\nLicensed under the Ubuntu Font Licence 1.0
Version: 0.1
ItalicAngle: -13
UnderlinePosition: -156
UnderlineWidth: 23
Ascent: 800
Descent: 200
InvalidEm: 0
sfntRevision: 0x0000199a
LayerCount: 2
Layer: 0 1 "Back" 1
Layer: 1 1 "Fore" 0
XUID: [1021 935 -1301570125 9264418]
StyleMap: 0x0001
FSType: 0
OS2Version: 3
OS2_WeightWidthSlopeOnly: 0
OS2_UseTypoMetrics: 0
CreationTime: 1304432203
ModificationTime: 1558229511
PfmFamily: 49
TTFWeight: 700
TTFWidth: 5
LineGap: 0
VLineGap: 0
Panose: 2 11 8 9 3 6 2 10 2 4
OS2TypoAscent: 993
OS2TypoAOffset: 0
OS2TypoDescent: -214
OS2TypoDOffset: 0
OS2TypoLinegap: 0
OS2WinAscent: 993
OS2WinAOffset: 0
OS2WinDescent: 214
OS2WinDOffset: 0
HheadAscent: 993
HheadAOffset: 0
HheadDescent: -214
HheadDOffset: 0
OS2SubXSize: 824
OS2SubYSize: 766
OS2SubXOff: 0
OS2SubYOff: 165
OS2SupXSize: 824
OS2SupYSize: 766
OS2SupXOff: 0
OS2SupYOff: 562
OS2StrikeYSize: 59
OS2StrikeYPos: 294
OS2CapHeight: 729
OS2XHeight: 554
OS2Vendor: 'DAMA'
OS2CodePages: 2000009f.00000000
OS2UnicodeRanges: e00002ff.5000385b.00000000.00000000
Lookup: 1 0 0 "'locl' Localized Forms in Latin lookup 0" { "'locl' Localized Forms in Latin lookup 0 subtable"  } ['locl' ('latn' <'AZE ' > ) ]
Lookup: 1 0 0 "'locl' Localized Forms in Latin lookup 1" { "'locl' Localized Forms in Latin lookup 1 subtable"  } ['locl' ('latn' <'TRK ' > ) ]
Lookup: 1 0 0 "'locl' Localized Forms in Latin lookup 2" { "'locl' Localized Forms in Latin lookup 2 subtable"  } ['locl' ('latn' <'CRT ' > ) ]
Lookup: 1 0 0 "'locl' Localized Forms in Cyrillic lookup 3" { "'locl' Localized Forms in Cyrillic lookup 3 subtable"  } ['locl' ('cyrl' <'SRB ' > ) ]
Lookup: 1 0 0 "'locl' Localized Forms in Cyrillic lookup 4" { "'locl' Localized Forms in Cyrillic lookup 4 subtable"  } ['locl' ('cyrl' <'BGR ' > ) ]

StartChar: SF030000.001
Encoding: 65536 -1 0
Width: 588
VWidth: 1177
Flags: W
LayerCount: 2
Fore
SplineSet
49 0 m 1,0,-1
 49 883 l 1,1,-1
 49 893 l 1,2,-1
 59 893 l 1,3,-1
 530 893 l 1,4,-1
 540 893 l 1,5,-1
 540 883 l 1,6,-1
 540 0 l 1,7,-1
 540 -10 l 1,8,-1
 530 -10 l 1,9,-1
 59 -10 l 1,10,-1
 49 -10 l 1,11,-1
 49 0 l 1,0,-1
461 69 m 1,12,-1
 461 814 l 1,13,-1
 128 814 l 1,14,-1
 128 69 l 1,15,-1
 461 69 l 1,12,-1
EndSplineSet
EndChar

StartChar: exclam
Encoding: 33 33 4
Width: 588
VWidth: 1177
Flags: W
LayerCount: 2
Fore
SplineSet
486.701530488 529.572583051 m 2,0,1
 475.670403845 487.453735871 475.670403845 487.453735871 466.667052279 453.441074397 c 0,2,3
 464.392024259 444.846524101 464.392024259 444.846524101 461.990081122 436.439739621 c 256,4,5
 459.588137985 428.032955142 459.588137985 428.032955142 457.057974543 419.809682952 c 256,6,7
 454.527811102 411.586410763 454.527811102 411.586410763 451.869123495 403.547106676 c 256,8,9
 449.210435888 395.507802588 449.210435888 395.507802588 446.424277455 387.655901548 c 0,10,11
 435.383326248 356.540493601 435.383326248 356.540493601 423.837461173 326.420639884 c 256,12,13
 412.307142953 296.341548875 412.307142953 296.341548875 398.284766909 261.286093236 c 2,14,-1
 395.770329614 255 l 1,15,-1
 389 255 l 1,16,-1
 269 255 l 1,17,-1
 257.950124379 255 l 1,18,-1
 259.049628098 265.99503719 l 1,19,-1
 266.549628098 340.99503719 l 2,20,21
 270.073553591 376.234292123 270.073553591 376.234292123 275.112844958 409.498053794 c 256,22,23
 280.149488908 442.739903867 280.149488908 442.739903867 286.700126804 474.990599243 c 0,24,25
 288.879686516 485.720739362 288.879686516 485.720739362 291.34453925 496.923748286 c 256,26,27
 293.809391983 508.12675721 293.809391983 508.12675721 296.545604771 519.742541852 c 256,28,29
 299.281817559 531.358326493 299.281817559 531.358326493 302.286402877 543.376667765 c 2,30,-1
 347.274720062 731.32785956 l 1,31,-1
 349.111136657 739 l 1,32,-1
 357 739 l 1,33,-1
 524 739 l 1,34,-1
 536.666447222 739 l 1,35,-1
 533.727001566 726.679344804 l 1,36,-1
 486.701530488 529.572583051 l 2,0,1
300 193 m 0,37,38
 341.773478005 193 341.773478005 193 369.606278949 168.507135169 c 0,39,40
 398 143.520660644 398 143.520660644 398 95 c 0,41,42
 398 68.8036315612 398 68.8036315612 388.079593845 47.3094182254 c 0,43,44
 383.218610129 36.7772868402 383.218610129 36.7772868402 376.703377753 27.4116482966 c 256,45,46
 370.188145377 18.046009753 370.188145377 18.046009753 362.071067812 9.92893218813 c 0,47,48
 345.721244317 -6.42089130644 345.721244317 -6.42089130644 325.469111507 -15.1785703596 c 256,49,50
 305.069555463 -24 305.069555463 -24 282 -24 c 0,51,52
 241.218954602 -24 241.218954602 -24 212.883783629 1.00162144635 c 0,53,54
 184 26.4873128838 184 26.4873128838 184 74 c 0,55,56
 184 101.146346888 184 101.146346888 193.880784948 123.103646773 c 0,57,58
 203.670181247 144.85786077 203.670181247 144.85786077 219.554054863 160.194014606 c 256,59,60
 235.432159168 175.524598073 235.432159168 175.524598073 256.704436437 184.251686184 c 256,61,62
 278.028451365 193 278.028451365 193 300 193 c 0,37,38
EndSplineSet
EndChar

StartChar: quotedbl
Encoding: 34 34 5
Width: 588
VWidth: 1177
Flags: W
LayerCount: 2
Fore
SplineSet
431.716676032 797.636484209 m 1,0,-1
 413.74024151 723.733364509 l 2,1,2
 407.660030973 696.372417091 407.660030973 696.372417091 397.015705429 663.425695169 c 0,3,4
 393.489830962 652.512274201 393.489830962 652.512274201 389.684980425 641.377529374 c 256,5,6
 385.880129888 630.242784546 385.880129888 630.242784546 381.798991839 618.893926029 c 256,7,8
 377.717853791 607.545067513 377.717853791 607.545067513 373.357706599 595.973907658 c 0,9,10
 360.296095936 561.310402436 360.296095936 561.310402436 346.226689738 527.64406996 c 256,11,12
 332.177391367 494.026106 332.177391367 494.026106 319.125093245 464.909440959 c 2,13,-1
 316.476033505 459 l 1,14,-1
 310 459 l 1,15,-1
 227 459 l 1,16,-1
 216.649228877 459 l 1,17,-1
 217.005940006 469.344622758 l 2,18,19
 218.009563746 498.449711195 218.009563746 498.449711195 220.015396468 534.554700196 c 256,20,21
 222.026490546 570.75439361 222.026490546 570.75439361 225.544442649 607.941741912 c 256,22,23
 229.071458366 645.227336638 229.071458366 645.227336638 234.617897627 681.031029945 c 0,24,25
 236.46153304 692.930858522 236.46153304 692.930858522 238.491946784 704.205617271 c 256,26,27
 240.522360527 715.48037602 240.522360527 715.48037602 242.716319872 726.006386233 c 256,28,29
 244.910279218 736.532396447 244.910279218 736.532396447 247.248959907 746.221216445 c 2,30,-1
 259.221975859 802.095290887 l 1,31,-1
 260.915842098 810 l 1,32,-1
 269 810 l 1,33,-1
 422 810 l 1,34,-1
 434.724017711 810 l 1,35,-1
 431.716676032 797.636484209 l 1,0,-1
663.746126947 797.761024891 m 1,36,-1
 646.754123184 723.795832043 l 2,37,38
 640.660030973 696.372417091 640.660030973 696.372417091 630.015705429 663.425695169 c 0,39,40
 624.727366561 647.057027244 624.727366561 647.057027244 618.812914028 630.194546062 c 256,41,42
 612.898461494 613.33206488 612.898461494 613.33206488 606.357706599 595.973907658 c 0,43,44
 593.296095936 561.310402436 593.296095936 561.310402436 579.226689738 527.64406996 c 0,45,46
 575.702771434 519.211836874 575.702771434 519.211836874 572.178311534 511.061508371 c 256,47,48
 568.653851634 502.911179868 568.653851634 502.911179868 565.126345875 495.03714839 c 256,49,50
 561.598840116 487.163116911 561.598840116 487.163116911 558.068288553 479.566184489 c 256,51,52
 554.537736989 471.969252066 554.537736989 471.969252066 551.005516364 464.652509342 c 2,53,-1
 548.27671875 459 l 1,54,-1
 542 459 l 1,55,-1
 459 459 l 1,56,-1
 448.649228877 459 l 1,57,-1
 449.005940006 469.344622758 l 2,58,59
 450.011948085 498.518857024 450.011948085 498.518857024 452.52402579 534.692775987 c 256,60,61
 455.032936519 570.82109048 455.032936519 570.82109048 458.544442649 607.941741912 c 256,62,63
 462.065152144 645.160670856 462.065152144 645.160670856 467.097734949 680.894685218 c 0,64,65
 468.782013321 692.853061658 468.782013321 692.853061658 470.697161138 704.117504139 c 256,66,67
 472.612308955 715.381946619 472.612308955 715.381946619 474.75766279 725.942127589 c 256,68,69
 476.903016624 736.502308559 476.903016624 736.502308559 479.268916863 746.30389526 c 2,70,-1
 492.259027998 802.261297072 l 1,71,-1
 494.055512606 810 l 1,72,-1
 502 810 l 1,73,-1
 654 810 l 1,74,-1
 666.557783391 810 l 1,75,-1
 663.746126947 797.761024891 l 1,36,-1
EndSplineSet
EndChar

StartChar: numbersign
Encoding: 35 35 6
Width: 588
VWidth: 1177
Flags: W
LayerCount: 2
Fore
SplineSet
252.243697552 560 m 1,0,-1
 321.722399282 732.731772356 l 1,1,-1
 324.243697552 739 l 1,2,-1
 331 739 l 1,3,-1
 449 739 l 1,4,-1
 463.800995185 739 l 1,5,-1
 458.277600718 725.268227644 l 1,6,-1
 391.800995185 560 l 1,7,-1
 468.243697552 560 l 1,8,-1
 537.722399282 732.731772356 l 1,9,-1
 540.243697552 739 l 1,10,-1
 547 739 l 1,11,-1
 664 739 l 1,12,-1
 678.877833371 739 l 1,13,-1
 673.259584133 725.223745018 l 1,14,-1
 605.877833371 560 l 1,15,-1
 668 560 l 1,16,-1
 680.650554533 560 l 1,17,-1
 677.729828754 547.691227075 l 1,18,-1
 649.729828754 429.691227075 l 1,19,-1
 647.904791821 422 l 1,20,-1
 640 422 l 1,21,-1
 551.751600781 422 l 1,22,-1
 505.811302274 308 l 1,23,-1
 607 308 l 1,24,-1
 619.7551963 308 l 1,25,-1
 616.711029684 295.61339101 l 1,26,-1
 587.711029684 177.61339101 l 1,27,-1
 585.839942063 170 l 1,28,-1
 578 170 l 1,29,-1
 450.735530157 170 l 1,30,-1
 380.266908137 -3.75824607777 l 1,31,-1
 377.735530157 -10 l 1,32,-1
 371 -10 l 1,33,-1
 253 -10 l 1,34,-1
 238.153358731 -10 l 1,35,-1
 243.733091863 3.75824607777 l 1,36,-1
 311.153358731 170 l 1,37,-1
 233.770329614 170 l 1,38,-1
 164.284766909 -3.71390676354 l 1,39,-1
 161.770329614 -10 l 1,40,-1
 155 -10 l 1,41,-1
 38 -10 l 1,42,-1
 23.2296703857 -10 l 1,43,-1
 28.7152330911 3.71390676354 l 1,44,-1
 95.2296703857 170 l 1,45,-1
 39 170 l 1,46,-1
 26.3494454673 170 l 1,47,-1
 29.270171246 182.308772925 l 1,48,-1
 57.270171246 300.308772925 l 1,49,-1
 59.0952081791 308 l 1,50,-1
 67 308 l 1,51,-1
 151.248399219 308 l 1,52,-1
 197.188697726 422 l 1,53,-1
 100 422 l 1,54,-1
 87.3494454673 422 l 1,55,-1
 90.270171246 434.308772925 l 1,56,-1
 118.270171246 552.308772925 l 1,57,-1
 120.095208179 560 l 1,58,-1
 128 560 l 1,59,-1
 252.243697552 560 l 1,0,-1
290.811302274 308 m 1,60,-1
 366.294910717 308 l 1,61,-1
 413.085955493 422 l 1,62,-1
 336.751600781 422 l 1,63,-1
 290.811302274 308 l 1,60,-1
EndSplineSet
EndChar

StartChar: dollar
Encoding: 36 36 7
Width: 628
VWidth: 1177
Flags: W
LayerCount: 2
Fore
SplineSet
201.925675101 163.314453125 m 0,0,1
 245.972662723 147 245.972662723 147 297.796163682 147 c 0,2,3
 310.12915535 147 310.12915535 147 322.46317743 147.708984375 c 128,-1,4
 334.796169098 148.41796875 334.796169098 148.41796875 347.134312823 149.836914062 c 0,5,6
 353.101424089 150.5234375 353.101424089 150.5234375 358.767655285 151.547851562 c 128,-1,7
 364.433886481 152.573242188 364.433886481 152.573242188 369.77656856 153.930664062 c 128,-1,8
 375.12028105 155.288085938 375.12028105 155.288085938 380.147657301 156.970703125 c 128,-1,9
 385.176063964 158.65234375 385.176063964 158.65234375 389.920077134 160.666015625 c 128,-1,10
 394.485829167 162.60546875 394.485829167 162.60546875 398.529162721 164.909179688 c 128,-1,11
 402.571465864 167.213867188 402.571465864 167.213867188 406.114019574 169.897460938 c 128,-1,12
 409.655542873 172.58203125 409.655542873 172.58203125 412.710712085 175.633789062 c 128,-1,13
 415.765881297 178.685546875 415.765881297 178.685546875 418.394460271 182.155273438 c 0,14,15
 423.395045831 188.754882812 423.395045831 188.754882812 426.014351105 197.868164062 c 128,-1,16
 428.633656379 206.982421875 428.633656379 206.982421875 428.633656379 218.828125 c 0,17,18
 428.633656379 234.755859375 428.633656379 234.755859375 422.048298391 245.661132812 c 0,19,20
 415.070353736 257.21484375 415.070353736 257.21484375 402.825977431 266.74609375 c 0,21,22
 389.887103976 276.817382812 389.887103976 276.817382812 372.839981062 285.581054688 c 0,23,24
 364.049543103 290.099609375 364.049543103 290.099609375 354.694439807 294.522460938 c 128,-1,25
 345.338306099 298.9453125 345.338306099 298.9453125 335.512304883 303.227539062 c 0,26,27
 287.026305806 324.041992188 287.026305806 324.041992188 254.994943202 346.517578125 c 0,28,29
 222.661670116 369.203125 222.661670116 369.203125 202.771642698 394.108398438 c 0,30,31
 182.617830011 419.342773438 182.617830011 419.342773438 174.231445312 447.776367188 c 0,32,33
 170.295898438 461.78125 170.295898438 461.78125 168.337890625 476.864257812 c 128,-1,34
 166.37890625 491.946289062 166.37890625 491.946289062 166.37890625 508.083984375 c 0,35,36
 166.37890625 525.9375 166.37890625 525.9375 169.670898438 543.322265625 c 128,-1,37
 172.963867188 560.708007812 172.963867188 560.708007812 179.776986329 577.52734375 c 128,-1,38
 186.771417564 594.513671875 186.771417564 594.513671875 197.68759383 609.834960938 c 128,-1,39
 208.604800508 625.15625 208.604800508 625.15625 223.33349822 638.706054688 c 0,40,41
 252.619845383 665.647460938 252.619845383 665.647460938 297.580807741 684.814453125 c 0,42,43
 339.334100029 702.614257812 339.334100029 702.614257812 396.017020212 709.162109375 c 1,44,-1
 424.767553551 808.571289062 l 1,45,-1
 426.853105823 816 l 1,46,-1
 434.964502799 816 l 1,47,-1
 562.37890625 816 l 1,48,-1
 575.186523438 816 l 1,49,-1
 572.080078125 803.57421875 l 1,50,-1
 545.942880413 701.481445312 l 1,51,52
 582.690429688 692.91015625 582.690429688 692.91015625 612.950195312 681.340820312 c 0,53,54
 647.8359375 668.001953125 647.8359375 668.001953125 669.642578125 654.502929688 c 2,55,-1
 677.706054688 649.510742188 l 1,56,-1
 673.1484375 641.193359375 l 1,57,-1
 616.1484375 537.193359375 l 1,58,-1
 610.823242188 527.477539062 l 1,59,-1
 601.701171875 533.767578125 l 2,60,61
 592.536132812 540.088867188 592.536132812 540.088867188 582.245117188 545.473632812 c 128,-1,62
 571.954101562 550.859375 571.954101562 550.859375 560.419921875 555.345703125 c 0,63,64
 548.400411129 559.833007812 548.400411129 559.833007812 535.010217568 563.366210938 c 0,65,66
 494.721139597 574 494.721139597 574 457.122465272 574 c 0,67,68
 432.988174115 574 432.988174115 574 412.283091436 569.547851562 c 128,-1,69
 391.578008757 565.096679688 391.578008757 565.096679688 374.098113138 556.256835938 c 0,70,71
 357.628020497 547.927734375 357.628020497 547.927734375 349.870054562 536.145507812 c 128,-1,72
 342.112088627 524.36328125 342.112088627 524.36328125 342.112088627 507.942382812 c 0,73,74
 342.112088627 495.596679688 342.112088627 495.596679688 346.609833521 485.142578125 c 128,-1,75
 351.106548004 474.6875 351.106548004 474.6875 360.389522516 465.500976562 c 0,76,77
 380.16414388 445.928710938 380.16414388 445.928710938 434.436932264 421.416992188 c 0,78,79
 450.097121702 413.958984375 450.097121702 413.958984375 465.399758452 405.874023438 c 128,-1,80
 480.702395203 397.788085938 480.702395203 397.788085938 495.99369743 388.896484375 c 0,81,82
 527.162605858 370.772460938 527.162605858 370.772460938 550.744596611 348.05078125 c 0,83,84
 573.865234375 324.916015625 573.865234375 324.916015625 587.578125 293.662109375 c 0,85,86
 594.510742188 277.861328125 594.510742188 277.861328125 597.9453125 259.770507812 c 128,-1,87
 601.37890625 241.6796875 601.37890625 241.6796875 601.37890625 221.3671875 c 0,88,89
 601.37890625 172.471679688 601.37890625 172.471679688 585.244140625 134.315429688 c 128,-1,90
 569.109375 96.1591796875 569.109375 96.1591796875 535.678954437 69.6845703125 c 0,91,92
 471.382325887 19.7080078125 471.382325887 19.7080078125 367.515846384 9.34375 c 1,93,-1
 337.605070033 -106.31640625 l 1,94,-1
 335.674079442 -114 l 1,95,-1
 327.340113646 -114 l 1,96,-1
 198.612903089 -114 l 1,97,-1
 185.278351733 -114 l 1,98,-1
 188.343825057 -101.701171875 l 1,99,-1
 217.375660654 14.7783203125 l 1,100,101
 165.466796875 23.041015625 165.466796875 23.041015625 127.548828125 38.7626953125 c 0,102,103
 106.727539062 47.3955078125 106.727539062 47.3955078125 90.7294921875 55.013671875 c 128,-1,104
 74.7314453125 62.630859375 74.7314453125 62.630859375 63.2919921875 69.390625 c 2,105,-1
 55 74.2900390625 l 1,106,-1
 59.5849609375 82.759765625 l 1,107,-1
 118.584960938 191.759765625 l 1,108,-1
 123.6171875 201.056640625 l 1,109,-1
 132.620117188 195.516601562 l 2,110,111
 145.116210938 187.826171875 145.116210938 187.826171875 162.137695312 179.744140625 c 0,112,113
 179.387490895 171.662109375 179.387490895 171.662109375 201.925675101 163.314453125 c 0,0,1
EndSplineSet
EndChar

StartChar: percent
Encoding: 37 37 8
Width: 628
VWidth: 1177
Flags: W
LayerCount: 2
Fore
SplineSet
137.549721504 -10 m 1,0,-1
 132.692321012 -10 l 1,1,-1
 26.40625 -10 l 1,2,-1
 5 -10 l 1,3,-1
 18.7373046875 6.4169921875 l 1,4,-1
 648.194471362 735.416992188 l 1,5,-1
 651.308319662 739 l 1,6,-1
 656.159634457 739 l 1,7,-1
 761.40625 739 l 1,8,-1
 782.791015625 739 l 1,9,-1
 769.081054688 722.588867188 l 1,10,-1
 140.663569804 -6.4111328125 l 1,11,-1
 137.549721504 -10 l 1,0,-1
240.264115527 485.233398438 m 128,-1,13
 246.050599095 480 246.050599095 480 253.172893154 480 c 0,14,15
 257.696594594 480 257.696594594 480 261.562026474 481.17578125 c 128,-1,16
 265.427458354 482.352539062 265.427458354 482.352539062 269.178276273 485.060546875 c 128,-1,17
 272.929094193 487.768554688 272.929094193 487.768554688 276.484155526 492.140625 c 0,18,19
 288.599763977 507.043945312 288.599763977 507.043945312 296.919926063 527.408203125 c 0,20,21
 301.183971097 537.841796875 301.183971097 537.841796875 304.441847559 548.49609375 c 128,-1,22
 307.699724022 559.149414062 307.699724022 559.149414062 309.956503327 570.034179688 c 0,23,24
 311.461699053 577.294921875 311.461699053 577.294921875 312.471924755 583.625976562 c 128,-1,25
 313.483164741 589.958007812 313.483164741 589.958007812 313.967991935 595.012695312 c 128,-1,26
 314.451804847 600.068359375 314.451804847 600.068359375 314.451804847 604 c 0,27,28
 314.451804847 614.577148438 314.451804847 614.577148438 312.482067584 620.995117188 c 128,-1,29
 310.51233032 627.413085938 310.51233032 627.413085938 308.045594468 629.408203125 c 0,30,31
 304.304919377 632.435546875 304.304919377 632.435546875 301.053128611 633.717773438 c 128,-1,32
 297.800323563 635 297.800323563 635 294.717918031 635 c 0,33,34
 281.404441553 635 281.404441553 635 272.044639562 623.006835938 c 0,35,36
 266.210484701 615.53125 266.210484701 615.53125 261.046770794 606.634765625 c 128,-1,37
 255.883056887 597.739257812 255.883056887 597.739257812 251.420212417 587.42578125 c 0,38,39
 242.461052146 566.716796875 242.461052146 566.716796875 238.485063437 545.590820312 c 128,-1,40
 234.47763196 524.296875 234.47763196 524.296875 234.47763196 511.939453125 c 0,41,12
 234.47763196 490.466796875 234.47763196 490.466796875 240.264115527 485.233398438 c 128,-1,13
327.494467808 395.831054688 m 0,42,43
 289.912245964 369 289.912245964 369 236.554883204 369 c 0,44,45
 185.165229141 369 185.165229141 369 151.947466331 403.916015625 c 0,46,47
 119.40625 438.34765625 119.40625 438.34765625 119.40625 493.692382812 c 0,48,49
 119.40625 530.788085938 119.40625 530.788085938 129.296502084 574.190429688 c 0,50,51
 139.488015999 617.9609375 139.488015999 617.9609375 161.517224869 655.25390625 c 0,52,53
 183.886218488 693.119140625 183.886218488 693.119140625 220.975498875 719.2109375 c 0,54,55
 259.058776439 746 259.058776439 746 312.374553603 746 c 0,56,57
 363.818978939 746 363.818978939 746 396.522500352 711.021484375 c 0,58,59
 428.700623258 676.604492188 428.700623258 676.604492188 428.700623258 621.307617188 c 0,60,61
 428.700623258 602.703125 428.700623258 602.703125 426.168973304 582.700195312 c 128,-1,62
 423.636309068 562.696289062 423.636309068 562.696289062 418.589237687 541.2734375 c 0,63,64
 408.403809469 498.030273438 408.403809469 498.030273438 386.403000518 460.282226562 c 0,65,66
 375.249946477 441.146484375 375.249946477 441.146484375 360.497202658 425.00390625 c 128,-1,67
 345.745473122 408.861328125 345.745473122 408.861328125 327.494467808 395.831054688 c 0,42,43
548.204441031 243.693359375 m 0,68,69
 541.236317962 249 541.236317962 249 533.601811071 249 c 0,70,71
 520.288334593 249 520.288334593 249 510.928532602 237.006835938 c 0,72,73
 499.192265931 221.96875 499.192265931 221.96875 490.304105458 201.42578125 c 0,74,75
 487.317042512 194.520507812 487.317042512 194.520507812 484.885806559 187.5234375 c 128,-1,76
 482.453556323 180.525390625 482.453556323 180.525390625 480.57713308 173.435546875 c 128,-1,77
 478.700709838 166.345703125 478.700709838 166.345703125 477.375042174 159.15234375 c 0,78,79
 473.361525 137.374023438 473.361525 137.374023438 473.361525 125 c 0,80,81
 473.361525 104.776367188 473.361525 104.776367188 479.767735379 99.591796875 c 0,82,83
 486.678044326 94 486.678044326 94 492.056786195 94 c 0,84,85
 498.963038011 94 498.963038011 94 504.775892932 96.798828125 c 128,-1,86
 510.588747853 99.5966796875 510.588747853 99.5966796875 516.096303641 105.919921875 c 0,87,88
 528.583139609 120.25390625 528.583139609 120.25390625 536.842444725 140.46875 c 0,89,90
 545.366477662 161.330078125 545.366477662 161.330078125 549.87902199 183.094726562 c 0,91,92
 552.131744164 193.959960938 552.131744164 193.959960938 553.252526695 202.7578125 c 128,-1,93
 554.374323509 211.556640625 554.374323509 211.556640625 554.374323509 218 c 0,94,95
 554.374323509 238.993164062 554.374323509 238.993164062 548.204441031 243.693359375 c 0,68,69
460.898017537 332.213867188 m 0,96,97
 498.981295102 359 498.981295102 359 552.297072266 359 c 0,98,99
 577.70688582 359 577.70688582 359 598.868882867 350.168945312 c 128,-1,100
 620.030879913 341.336914062 620.030879913 341.336914062 635.985548891 323.978515625 c 0,101,102
 646.578718808 312.453125 646.578718808 312.453125 653.634070201 298.470703125 c 128,-1,103
 660.689421593 284.489257812 660.689421593 284.489257812 664.086914062 268.502929688 c 128,-1,104
 667.40625 252.516601562 667.40625 252.516601562 667.40625 234.383789062 c 0,105,106
 667.40625 215.791015625 667.40625 215.791015625 664.96875 195.799804688 c 128,-1,107
 662.520202108 175.809570312 662.520202108 175.809570312 657.473130727 154.3984375 c 0,108,109
 647.280602529 111.154296875 647.280602529 111.154296875 625.258493639 73.8955078125 c 0,110,111
 614.094282487 55.0087890625 614.094282487 55.0087890625 599.328352991 39.1181640625 c 128,-1,112
 584.562423495 23.2265625 584.562423495 23.2265625 566.299246788 10.4501953125 c 0,113,114
 547.50965729 -2.693359375 547.50965729 -2.693359375 524.680179264 -9.2578125 c 128,-1,115
 501.850701239 -16 501.850701239 -16 475.438776244 -16 c 0,116,117
 424.043036485 -16 424.043036485 -16 391.344586485 18.4306640625 c 0,118,119
 359.11270659 52.369140625 359.11270659 52.369140625 359.11270659 107.701171875 c 0,120,121
 359.11270659 126.303710938 359.11270659 126.303710938 361.645370826 146.303710938 c 128,-1,122
 364.178035062 166.303710938 364.178035062 166.303710938 369.225106444 187.724609375 c 0,123,124
 379.416620359 230.989257812 379.416620359 230.989257812 401.439743531 268.265625 c 0,125,126
 412.604968967 287.1640625 412.604968967 287.1640625 427.496669534 303.1796875 c 128,-1,127
 442.389384384 319.1953125 442.389384384 319.1953125 460.898017537 332.213867188 c 0,96,97
EndSplineSet
EndChar

StartChar: ampersand
Encoding: 38 38 9
Width: 588
VWidth: 1177
Flags: W
LayerCount: 2
Fore
SplineSet
451.810112347 272.312587857 m 1,0,1
 465.192260892 294.861321626 465.192260892 294.861321626 475.153038752 321.054478221 c 0,2,3
 488.55079397 356.285612313 488.55079397 356.285612313 500.464173349 394.011313679 c 2,4,-1
 502.961468576 401.919415234 l 1,5,-1
 511.195077088 400.928332728 l 1,6,-1
 619.195077088 387.928332728 l 1,7,-1
 630.344668649 386.586252262 l 1,8,-1
 627.72387302 375.666270475 l 2,9,10
 609.399291769 299.313848596 609.399291769 299.313848596 579.217971853 245.601330102 c 0,11,12
 551.428376079 196.145269826 551.428376079 196.145269826 525.504916635 158.968355162 c 1,13,14
 539.59263926 128.274195867 539.59263926 128.274195867 553.348621457 92.0501094141 c 0,15,16
 568.532671149 52.0654452264 568.532671149 52.0654452264 581.665615579 2.56434699025 c 2,17,-1
 584.99901376 -10 l 1,18,-1
 572 -10 l 1,19,-1
 439 -10 l 1,20,-1
 431.192235936 -10 l 1,21,-1
 429.298574999 -2.42535625036 l 2,22,23
 423.350821351 21.3656583381 423.350821351 21.3656583381 419.412018873 34.6591167031 c 0,24,25
 417.404183181 41.4355621625 417.404183181 41.4355621625 414.609296558 49.6500206027 c 1,26,27
 393.615309134 31.6759375233 393.615309134 31.6759375233 371.997688498 18.7722488747 c 256,28,29
 350.380067863 5.8685602262 350.380067863 5.8685602262 327.387194683 -2.40887411869 c 0,30,31
 314.489799923 -7.0519362323 314.489799923 -7.0519362323 301.381742292 -10.5375587808 c 256,32,33
 288.273684661 -14.0231813293 288.273684661 -14.0231813293 274.971086392 -16.3479573568 c 256,34,35
 261.668488123 -18.6727333844 261.668488123 -18.6727333844 248.171310868 -19.8363666922 c 256,36,37
 234.674133612 -21 234.674133612 -21 221 -21 c 0,38,39
 205.781235016 -21 205.781235016 -21 191.96960645 -19.5023760218 c 256,40,41
 178.157977885 -18.0047520435 178.157977885 -18.0047520435 165.530739224 -14.9391489035 c 256,42,43
 152.903500563 -11.8735457635 152.903500563 -11.8735457635 141.685123449 -7.24373933535 c 0,44,45
 108.170042335 6.58788144189 108.170042335 6.58788144189 86.1839203985 30.1827440077 c 256,46,47
 64.2191385539 53.7547050117 64.2191385539 53.7547050117 53.5293412058 85.2896071884 c 0,48,49
 43 116.351163746 43 116.351163746 43 152 c 0,50,51
 43 192.57299495 43 192.57299495 53.4829138224 225.070027799 c 0,52,53
 56.9764375685 235.899951412 56.9764375685 235.899951412 61.5831973362 246.277440923 c 256,54,55
 66.1899571038 256.654930434 66.1899571038 256.654930434 71.8934687105 266.549837479 c 256,56,57
 77.5969803172 276.444744525 77.5969803172 276.444744525 84.393207716 285.854905538 c 0,58,59
 104.576960508 313.801640174 104.576960508 313.801640174 134.960463499 340.065346149 c 0,60,61
 164.772321964 365.83491872 164.772321964 365.83491872 202.003141704 393.003354747 c 2,62,-1
 208.266241182 397.821123576 l 1,63,64
 195.384029273 423.585547393 195.384029273 423.585547393 187.421737148 450.126521144 c 0,65,66
 182.716071417 465.81207358 182.716071417 465.81207358 180.358035709 481.794329235 c 256,67,68
 178 497.77658489 178 497.77658489 178 514 c 0,69,70
 178 569 178 569 196.269230769 612.846153846 c 0,71,72
 205.362871635 634.670891924 205.362871635 634.670891924 217.759800943 653.722974795 c 256,73,74
 230.156730252 672.775057667 230.156730252 672.775057667 245.813978582 688.954214275 c 256,75,76
 261.546674024 705.211332898 261.546674024 705.211332898 280.329346068 717.68935985 c 256,77,78
 299.112018111 730.167386803 299.112018111 730.167386803 320.805404271 738.792468047 c 0,79,80
 364.084954335 756 364.084954335 756 415 756 c 0,81,82
 455.084130005 756 455.084130005 756 485.608843881 746.004288934 c 256,83,84
 516.133557756 736.008577868 516.133557756 736.008577868 536.571067812 715.571067812 c 256,85,86
 556.838292878 695.303842746 556.838292878 695.303842746 566.919146439 667.481106089 c 256,87,88
 577 639.658369432 577 639.658369432 577 605 c 0,89,90
 577 599.496983228 577 599.496983228 576.661087473 593.932382243 c 256,91,92
 576.322174946 588.367781259 576.322174946 588.367781259 575.647920416 582.765690443 c 256,93,94
 574.973665885 577.163599626 574.973665885 577.163599626 573.963752556 571.503834358 c 256,95,96
 572.953839227 565.844069091 572.953839227 565.844069091 571.614012163 560.149535821 c 256,97,98
 570.2741851 554.455002552 570.2741851 554.455002552 568.601952966 548.706704592 c 0,99,100
 560.156391857 519.67508828 560.156391857 519.67508828 538.756446415 488.35809495 c 0,101,102
 517.537446664 457.305900192 517.537446664 457.305900192 481.077532058 425.467664902 c 0,103,104
 463.656454506 410.254892956 463.656454506 410.254892956 440.852132566 394.076774733 c 256,105,106
 418.047810625 377.898656511 418.047810625 377.898656511 391.944482747 362.111032257 c 1,107,-1
 451.810112347 272.312587857 l 1,0,1
191 173 m 0,108,109
 191 145.793912406 191 145.793912406 207.983469392 126.633075143 c 0,110,111
 224.499149633 108 224.499149633 108 256 108 c 0,112,113
 284.5736533 108 284.5736533 108 314.417108668 123.388031674 c 0,114,115
 327.55058825 130.159982083 327.55058825 130.159982083 339.598356685 138.871320883 c 256,116,117
 351.646125121 147.582659683 351.646125121 147.582659683 360.655024921 156.568694256 c 1,118,119
 345.075537299 183.858937675 345.075537299 183.858937675 319.679497057 221.952998038 c 2,120,-1
 267.865989382 299.673259549 l 1,121,122
 245.468298772 286.224740961 245.468298772 286.224740961 231.167259309 271.526450402 c 0,123,124
 222.639284763 262.761587674 222.639284763 262.761587674 216.201202871 254.099288294 c 256,125,126
 209.763120979 245.436988914 209.763120979 245.436988914 205.395670181 236.93195315 c 0,127,128
 196.60769083 219.818519676 196.60769083 219.818519676 193.863939238 203.356010127 c 0,129,130
 191 186.172374697 191 186.172374697 191 173 c 0,108,109
331.527864045 456.94427191 m 1,131,132
 395.005613399 488.683146587 395.005613399 488.683146587 417.513831174 524.790079268 c 0,133,134
 428.884433553 543.030420585 428.884433553 543.030420585 434.442216777 559.128971833 c 256,135,136
 440 575.227523082 440 575.227523082 440 589 c 0,137,138
 440 605.636113888 440 605.636113888 431.033087291 617.456135186 c 0,139,140
 423.034293294 628 423.034293294 628 400 628 c 0,141,142
 388.344410522 628 388.344410522 628 378.08773046 625.096866538 c 256,143,144
 367.831050398 622.193733077 367.831050398 622.193733077 358.704219297 616.27673551 c 256,145,146
 349.577388197 610.359737944 349.577388197 610.359737944 341.432941462 601.310352684 c 0,147,148
 329.289568225 587.817715753 329.289568225 587.817715753 323.144784112 569.38323481 c 256,149,150
 317 550.948753867 317 550.948753867 317 527 c 0,151,152
 317 501.293765409 317 501.293765409 321.670745373 483.544932993 c 0,153,154
 323.745152612 475.662185483 323.745152612 475.662185483 331.527864045 456.94427191 c 1,131,132
EndSplineSet
EndChar

StartChar: quotesingle
Encoding: 39 39 10
Width: 588
VWidth: 1177
Flags: W
LayerCount: 2
Fore
SplineSet
543.701425001 797.57464375 m 1,0,-1
 520.715976615 705.632850204 l 2,1,2
 506.566378926 646.002402799 506.566378926 646.002402799 478.807514934 575.343476276 c 0,3,4
 474.212434029 563.646906699 474.212434029 563.646906699 469.631160003 552.200673443 c 256,5,6
 465.049885977 540.754440186 465.049885977 540.754440186 460.481428451 529.556101632 c 256,7,8
 455.912970925 518.357763079 455.912970925 518.357763079 451.35782207 507.408715244 c 256,9,10
 446.802673215 496.459667408 446.802673215 496.459667408 442.260661671 485.759446342 c 256,11,12
 437.718650127 475.059225275 437.718650127 475.059225275 433.189394446 464.60711748 c 256,13,14
 428.660138765 454.155009685 428.660138765 454.155009685 424.144286606 443.952528879 c 2,15,-1
 421.509560708 438 l 1,16,-1
 415 438 l 1,17,-1
 330 438 l 1,18,-1
 319.672217794 438 l 1,19,-1
 320.005198857 448.32241294 l 2,20,21
 321.011178086 479.507769039 321.011178086 479.507769039 323.52402579 515.692775987 c 256,22,23
 326.032936519 551.82109048 326.032936519 551.82109048 329.544442649 588.941741912 c 256,24,25
 333.064555664 626.154365211 333.064555664 626.154365211 338.095077268 662.375683713 c 0,26,27
 343.157869821 698.827790091 343.157869821 698.827790091 350.275813724 729.333263963 c 2,28,-1
 368.290801785 802.394048875 l 1,29,-1
 370.166241788 810 l 1,30,-1
 378 810 l 1,31,-1
 534 810 l 1,32,-1
 546.807764064 810 l 1,33,-1
 543.701425001 797.57464375 l 1,0,-1
EndSplineSet
EndChar

StartChar: parenleft
Encoding: 40 40 11
Width: 588
VWidth: 1177
Flags: W
LayerCount: 2
Fore
SplineSet
636.270950637 725.501936728 m 2,0,1
 610.283467851 709.38311829 610.283467851 709.38311829 586.227330742 691.573961132 c 256,2,3
 562.171193633 673.764803974 562.171193633 673.764803974 540.055524205 654.27600838 c 256,4,5
 517.939854776 634.787212787 517.939854776 634.787212787 497.73737545 613.599246664 c 0,6,7
 437.000044355 549.899118931 437.000044355 549.899118931 394.569637005 479.346232291 c 256,8,9
 352.191341631 408.87999696 352.191341631 408.87999696 329.549380841 336.031949198 c 0,10,11
 322.019132135 311.804192494 322.019132135 311.804192494 317.005299563 288.148587998 c 256,12,13
 311.991466991 264.492983501 311.991466991 264.492983501 309.495733495 241.477185966 c 256,14,15
 307 218.461388431 307 218.461388431 307 196 c 0,16,17
 307 173.889437035 307 173.889437035 308.655236189 152.81977171 c 256,18,19
 310.310472378 131.750106384 310.310472378 131.750106384 313.616009322 111.7498353 c 256,20,21
 316.921546266 91.7495642162 316.921546266 91.7495642162 321.862440902 72.8095566662 c 256,22,23
 326.803335538 53.8695491162 326.803335538 53.8695491162 333.386697595 35.9481746268 c 0,24,25
 359.678393271 -35.6236636006 359.678393271 -35.6236636006 427.267370087 -107.130841972 c 2,26,-1
 433.984482674 -114.23735239 l 1,27,-1
 427.030077143 -121.111822226 l 1,28,-1
 340.030077143 -207.111822226 l 1,29,-1
 333.539536188 -213.527759262 l 1,30,-1
 326.558642542 -207.649111981 l 2,31,32
 287.641520923 -174.876799038 287.641520923 -174.876799038 255.4329689 -130.909569294 c 256,33,34
 223.359769651 -87.1271068262 223.359769651 -87.1271068262 199.947630559 -37.2490713701 c 256,35,36
 176.502466454 12.6993217243 176.502466454 12.6993217243 163.263532482 69.2193859868 c 256,37,38
 150 125.844466969 150 125.844466969 150 185 c 0,39,40
 150 293.606893106 150 293.606893106 182.503422199 392.132891646 c 0,41,42
 214.938886832 490.452893815 214.938886832 490.452893815 272.217842877 575.104094341 c 0,43,44
 283.659333403 592.013199809 283.659333403 592.013199809 295.913494417 608.277351154 c 256,45,46
 308.167655431 624.5415025 308.167655431 624.5415025 321.230796696 640.156186978 c 256,47,48
 334.293937961 655.770871456 334.293937961 655.770871456 348.166474604 670.737273735 c 256,49,50
 362.039011248 685.703676014 362.039011248 685.703676014 376.718561952 700.019113619 c 256,51,52
 391.398112656 714.334551225 391.398112656 714.334551225 406.883783629 727.998378554 c 0,53,54
 484.22573657 796.241278207 484.22573657 796.241278207 573.211478693 844.778955729 c 2,55,-1
 582.169012918 849.664883488 l 1,56,-1
 586.873591957 840.610787978 l 1,57,-1
 639.873591957 738.610787978 l 1,58,-1
 644.146768933 730.386937949 l 1,59,-1
 636.270950637 725.501936728 l 2,0,1
EndSplineSet
Substitution2: "'case' Case-Sensitive Forms lookup 17 subtable" Parenleft
EndChar

StartChar: parenright
Encoding: 41 41 12
Width: 588
VWidth: 1177
Flags: W
LayerCount: 2
Fore
SplineSet
45.7290493628 -89.5019367277 m 2,0,1
 84.7055585885 -65.3266335371 84.7055585885 -65.3266335371 119.331040947 -37.3551639237 c 256,2,3
 153.956523306 -9.38369431034 153.956523306 -9.38369431034 184.26262455 22.4007533357 c 0,4,5
 244.999955645 86.1008810689 244.999955645 86.1008810689 287.430362995 156.653767709 c 256,6,7
 329.808658369 227.12000304 329.808658369 227.12000304 352.450619159 299.968050802 c 0,8,9
 363.740006446 336.290427289 363.740006446 336.290427289 369.370003223 371.539055147 c 256,10,11
 375 406.787683005 375 406.787683005 375 441 c 0,12,13
 375 485.169585062 375 485.169585062 368.276361435 525.02244901 c 256,14,15
 361.552722871 564.875312958 361.552722871 564.875312958 348.141986926 600.474721102 c 0,16,17
 321.351029624 671.592535031 321.351029624 671.592535031 253.732629913 743.130841972 c 2,18,-1
 246.977022088 750.278079236 l 1,19,-1
 254.010670522 757.151872024 l 1,20,-1
 342.010670522 843.151872024 l 1,21,-1
 348.500411618 849.494119004 l 1,22,-1
 355.441357458 843.649111981 l 2,23,24
 394.358479077 810.876799038 394.358479077 810.876799038 426.5670311 766.909569294 c 256,25,26
 458.640230349 723.127106826 458.640230349 723.127106826 482.052369441 673.24907137 c 256,27,28
 505.497533546 623.300678276 505.497533546 623.300678276 518.736467518 566.780614013 c 0,29,30
 525.36776807 538.470061656 525.36776807 538.470061656 528.683884035 509.517832296 c 256,31,32
 532 480.565602936 532 480.565602936 532 451 c 0,33,34
 532 396.234184275 532 396.234184275 523.874199758 344.305327388 c 256,35,36
 515.748399516 292.3764705 515.748399516 292.3764705 499.491739507 243.352480163 c 0,37,38
 488.682689941 210.756440066 488.682689941 210.756440066 475.108530629 179.666355478 c 256,39,40
 461.534371317 148.57627089 461.534371317 148.57627089 445.196578082 118.998089967 c 256,41,42
 428.858784848 89.4199090438 428.858784848 89.4199090438 409.766485342 61.3728141948 c 0,43,44
 352.569449477 -22.6511499973 352.569449477 -22.6511499973 275.143638388 -91.4740931868 c 0,45,46
 236.476683481 -125.844719771 236.476683481 -125.844719771 194.882754589 -155.175391098 c 256,47,48
 153.288825698 -184.506062425 153.288825698 -184.506062425 108.788521307 -208.778955729 c 2,49,-1
 99.8309870823 -213.664883488 l 1,50,-1
 95.1264080427 -204.610787978 l 1,51,-1
 42.1264080427 -102.610787978 l 1,52,-1
 37.8532310671 -94.3869379491 l 1,53,-1
 45.7290493628 -89.5019367277 l 2,0,1
EndSplineSet
Substitution2: "'case' Case-Sensitive Forms lookup 17 subtable" Parenright
EndChar

StartChar: asterisk
Encoding: 42 42 13
Width: 588
VWidth: 1177
Flags: W
LayerCount: 2
Fore
SplineSet
387.699302493 406.905980226 m 1,0,-1
 386.463498561 403.268561467 l 2,1,2
 379.416154789 382.62991185 379.416154789 382.62991185 371.863291776 362.488765584 c 0,3,4
 364.158988587 341.943957082 364.158988587 341.943957082 354.892878023 323.926519874 c 0,5,6
 350.273771781 314.944924404 350.273771781 314.944924404 345.892518583 307.342033051 c 256,7,8
 341.511265384 299.739141699 341.511265384 299.739141699 337.320502943 293.452998038 c 0,9,-1
 336.834976791 292.78605289 l 1,10,-1
 313.834976791 263.78605289 l 1,11,-1
 307.910566022 256.31614366 l 1,12,-1
 300.166682894 261.877659725 l 1,13,-1
 190.166682894 340.877659725 l 1,14,-1
 181.82894217 346.865673518 l 1,15,-1
 188.033087291 355.043864814 l 1,16,-1
 209.830104723 383.776296883 l 2,17,18
 218.801851794 396.960584693 218.801851794 396.960584693 234.176817496 411.310552682 c 0,19,20
 249.237594078 425.367277492 249.237594078 425.367277492 264.79713742 439.421026428 c 0,21,22
 280.617414085 453.710308576 280.617414085 453.710308576 297.46142312 466.470921482 c 0,23,24
 298.174001832 467.010753839 298.174001832 467.010753839 299.226979915 467.804433035 c 256,25,26
 300.279957998 468.59811223 300.279957998 468.59811223 300.81454456 469 c 2,27,-1
 296.5 469 l 2,28,29
 292.303362678 469 292.303362678 469 288.066788929 469.081873949 c 256,30,31
 283.830215181 469.163747898 283.830215181 469.163747898 279.55751489 469.327304299 c 256,32,33
 275.284814598 469.4908607 275.284814598 469.4908607 270.972193311 469.736138152 c 256,34,35
 266.659572024 469.981415605 266.659572024 469.981415605 262.310938641 470.308083632 c 256,36,37
 257.962305258 470.634751659 257.962305258 470.634751659 253.573766311 471.04298784 c 0,38,39
 231.672833133 473.08028395 231.672833133 473.08028395 211.276196682 476.649695328 c 256,40,41
 190.946850741 480.207330868 190.946850741 480.207330868 176.683156037 485.560187344 c 2,42,-1
 142.001734033 496.460062831 l 1,43,-1
 132.295897348 499.510468646 l 1,44,-1
 135.513167019 509.16227766 l 1,45,-1
 178.513167019 638.16227766 l 1,46,-1
 181.621392634 647.486954502 l 1,47,-1
 190.998265967 644.539937169 l 1,48,-1
 226.181994751 633.482193837 l 2,49,50
 241.091451746 628.157387767 241.091451746 628.157387767 259.270918629 618.288534317 c 0,51,52
 277.227149689 608.540866027 277.227149689 608.540866027 295.155283556 596.247288518 c 2,53,-1
 330.155283556 572.247288518 l 2,54,55
 331.168887403 571.55224588 331.168887403 571.55224588 332.847931664 570.392739085 c 1,56,57
 332.358520906 572.072881171 332.358520906 572.072881171 331.87550324 573.78539835 c 0,58,59
 331.081354159 576.601017819 331.081354159 576.601017819 330.297613961 579.44723101 c 256,60,61
 329.513873763 582.293444201 329.513873763 582.293444201 328.740796177 585.169290777 c 256,62,63
 327.967718591 588.045137353 327.967718591 588.045137353 327.205025374 590.951619114 c 256,64,65
 326.442332156 593.858100875 326.442332156 593.858100875 325.69027832 596.794205682 c 256,66,67
 324.938224484 599.73031049 324.938224484 599.73031049 324.196530417 602.697095399 c 256,68,69
 323.454836349 605.663880309 323.454836349 605.663880309 322.723758433 608.660277926 c 256,70,71
 321.992680516 611.656675544 321.992680516 611.656675544 321.271937853 614.683794727 c 0,72,73
 320.427501677 618.230426665 320.427501677 618.230426665 319.625182521 621.749368409 c 256,74,75
 318.822863364 625.268310154 318.822863364 625.268310154 318.062295126 628.761218124 c 256,76,77
 317.301726888 632.254126095 317.301726888 632.254126095 316.583182899 635.720095146 c 256,78,79
 315.86463891 639.186064198 315.86463891 639.186064198 315.188068783 642.62523499 c 256,80,81
 314.511498656 646.064405782 314.511498656 646.064405782 313.876838961 649.47748998 c 256,82,83
 313.242179267 652.890574179 313.242179267 652.890574179 312.649695328 656.276196682 c 0,84,85
 309 677.131598559 309 677.131598559 309 693 c 2,86,-1
 309 729 l 1,87,-1
 309 739 l 1,88,-1
 319 739 l 1,89,-1
 456 739 l 1,90,-1
 466 739 l 1,91,-1
 466 729 l 1,92,-1
 466 693 l 2,93,94
 466 678.152473305 466 678.152473305 462.357364255 656.817035371 c 0,95,96
 460.569947757 646.347881597 460.569947757 646.347881597 458.273814966 635.760158273 c 256,97,98
 455.977682175 625.172434949 455.977682175 625.172434949 453.173722234 614.466406082 c 0,99,100
 447.590591589 593.148998166 447.590591589 593.148998166 440.986832981 573.33772234 c 0,101,102
 440.644335157 572.310228869 440.644335157 572.310228869 440.10994881 570.71307924 c 256,103,104
 439.575562462 569.115929611 439.575562462 569.115929611 439.346351757 568.432436739 c 1,105,106
 441.299249861 569.804559929 441.299249861 569.804559929 443.233168024 571.169678633 c 0,107,108
 460.600508272 583.428977631 460.600508272 583.428977631 479.989637295 594.654262855 c 0,109,110
 499.108437734 605.723042057 499.108437734 605.723042057 516.729081371 615.288534317 c 0,111,112
 521.242043135 617.738427846 521.242043135 617.738427846 525.643363513 619.921186495 c 256,113,114
 530.044683892 622.103945144 530.044683892 622.103945144 534.309668094 624.007720326 c 256,115,116
 538.574652297 625.911495508 538.574652297 625.911495508 542.699866117 627.530390511 c 256,117,118
 546.825079937 629.149285513 546.825079937 629.149285513 550.754510909 630.459095837 c 2,119,-1
 584.671798823 642.429903336 l 1,120,-1
 594.379560451 645.856172146 l 1,121,-1
 597.522551971 636.05303193 l 1,122,-1
 639.522551971 505.05303193 l 1,123,-1
 642.593176984 495.475606293 l 1,124,-1
 632.998265967 492.460062831 l 1,125,-1
 598.181994751 481.517806163 l 2,126,127
 590.762745632 478.868074335 590.762745632 478.868074335 581.582888104 476.979250886 c 256,128,129
 572.403030576 475.090427437 572.403030576 475.090427437 561.99503719 474.049628098 c 0,130,131
 541.958095497 472.045933929 541.958095497 472.045933929 520.426233689 470.04298784 c 0,132,133
 509.451205669 469.022055001 509.451205669 469.022055001 498.719629867 468.5110275 c 256,134,135
 487.988054064 468 487.988054064 468 477.5 468 c 2,136,-1
 474.175353583 468 l 2,137,138
 476.099408623 466.561200464 476.099408623 466.561200464 477.53857688 465.470921482 c 0,139,140
 494.19204376 452.854658694 494.19204376 452.854658694 510.832377903 439.239572992 c 0,141,142
 519.268562648 432.337240018 519.268562648 432.337240018 527.078248792 425.295720353 c 256,143,144
 534.887934937 418.254200687 534.887934937 418.254200687 542.071067812 411.071067812 c 0,145,146
 546.747778437 406.394357187 546.747778437 406.394357187 551.050135307 401.581247158 c 256,147,148
 555.352492178 396.768137129 555.352492178 396.768137129 558.865056991 392.330915786 c 256,149,150
 562.377621803 387.893694442 562.377621803 387.893694442 565.094806401 383.886335863 c 2,151,-1
 587.834976791 355.21394711 l 1,152,-1
 594.341703795 347.009813062 l 1,153,-1
 585.846897297 340.88743 l 1,154,-1
 474.846897297 260.88743 l 1,155,-1
 466.752522456 255.053646332 l 1,156,-1
 460.900578785 263.134901878 l 1,157,-1
 439.78695675 292.291808497 l 2,158,159
 431.365780214 304.923573302 431.365780214 304.923573302 422.107121977 322.926519874 c 256,160,161
 412.919612411 340.791121807 412.919612411 340.791121807 404.262578864 361.669849773 c 256,162,163
 395.611542709 382.534113441 395.611542709 382.534113441 388.989659313 402.909139277 c 2,164,-1
 387.699302493 406.905980226 l 1,0,-1
EndSplineSet
EndChar

StartChar: plus
Encoding: 43 43 14
Width: 588
VWidth: 1177
Flags: W
LayerCount: 2
Fore
SplineSet
108 379 m 1,0,-1
 285.108548229 379 l 1,1,-1
 332.273977836 576.324756517 l 1,2,-1
 334.108548229 584 l 1,3,-1
 342 584 l 1,4,-1
 466 584 l 1,5,-1
 478.611928395 584 l 1,6,-1
 475.736657511 571.720197266 l 1,7,-1
 430.611928395 379 l 1,8,-1
 603 379 l 1,9,-1
 615.729634608 379 l 1,10,-1
 612.715661624 366.632317756 l 1,11,-1
 583.715661624 247.632317756 l 1,12,-1
 581.855685028 240 l 1,13,-1
 574 240 l 1,14,-1
 396.891451771 240 l 1,15,-1
 349.726022164 42.6752434827 l 1,16,-1
 347.891451771 35 l 1,17,-1
 340 35 l 1,18,-1
 216 35 l 1,19,-1
 203.388071605 35 l 1,20,-1
 206.263342489 47.2798027344 l 1,21,-1
 251.388071605 240 l 1,22,-1
 79 240 l 1,23,-1
 66.2703653922 240 l 1,24,-1
 69.2843383761 252.367682244 l 1,25,-1
 98.2843383761 371.367682244 l 1,26,-1
 100.144314972 379 l 1,27,-1
 108 379 l 1,0,-1
EndSplineSet
EndChar

StartChar: comma
Encoding: 44 44 15
Width: 588
VWidth: 1177
Flags: W
LayerCount: 2
Fore
SplineSet
112.600319617 -75.0079904128 m 2,0,1
 136.694321034 -74.0442303561 136.694321034 -74.0442303561 160.309616577 -68.7428374791 c 0,2,3
 166.192609743 -67.4221655437 166.192609743 -67.4221655437 171.919149781 -65.8333131815 c 256,4,5
 177.645689818 -64.2444608193 177.645689818 -64.2444608193 183.213561271 -62.3882372334 c 256,6,7
 188.781432724 -60.5320136475 188.781432724 -60.5320136475 194.191386428 -58.4097722601 c 256,8,9
 199.601340133 -56.2875308728 199.601340133 -56.2875308728 204.861970557 -53.8963352254 c 0,10,11
 215.322029034 -49.1417631905 215.322029034 -49.1417631905 224.277810717 -43.7211321424 c 256,12,13
 233.233592401 -38.3005010943 233.233592401 -38.3005010943 240.694073749 -32.2388599988 c 0,14,15
 242.883383142 -30.4600461173 242.883383142 -30.4600461173 244.918865238 -28.4864177988 c 256,16,17
 246.954347334 -26.5127894803 246.954347334 -26.5127894803 248.700323809 -24.4967692633 c 256,18,19
 250.446300284 -22.4807490464 250.446300284 -22.4807490464 251.936464001 -20.4585962819 c 256,20,21
 253.426627718 -18.4364435174 253.426627718 -18.4364435174 254.675258105 -16.3976642133 c 1,22,23
 239.37239949 -12.5120309153 239.37239949 -12.5120309153 227.403399002 -5.63811627856 c 256,24,25
 215.434398513 1.23579835814 215.434398513 1.23579835814 205.689447318 11.6768174964 c 0,26,27
 182 37.0583681938 182 37.0583681938 182 79 c 0,28,29
 182 92.5942687322 182 92.5942687322 184.249987599 105.178382777 c 256,30,31
 186.499975198 117.762496823 186.499975198 117.762496823 190.976188995 129.245393383 c 256,32,33
 195.452402792 140.728289944 195.452402792 140.728289944 202.196118711 151.087232258 c 256,34,35
 208.93983463 161.446174572 208.93983463 161.446174572 217.875967631 170.517703528 c 0,36,37
 235.726261117 188.638456006 235.726261117 188.638456006 258.198294934 197.819228003 c 256,38,39
 280.670328752 207 280.670328752 207 307 207 c 0,40,41
 331.819940002 207 331.819940002 207 351.250117031 199.115330108 c 256,42,43
 370.680294059 191.230660216 370.680294059 191.230660216 383.727262545 175.347394234 c 0,44,45
 396.283804131 160.061169695 396.283804131 160.061169695 402.641902065 142.093602222 c 256,46,47
 409 124.126034749 409 124.126034749 409 104 c 0,48,49
 409 50.3455308503 409 50.3455308503 391.967132382 0.279223003995 c 0,50,51
 374.821814108 -50.1176216215 374.821814108 -50.1176216215 339.495537066 -90.1194353307 c 256,52,53
 304.170126378 -130.120268021 304.170126378 -130.120268021 249.869039627 -156.495081586 c 0,54,55
 222.668918578 -169.706568952 222.668918578 -169.706568952 190.866220784 -177.56061385 c 256,56,57
 159.063522991 -185.414658747 159.063522991 -185.414658747 122.702485576 -187.975295184 c 2,58,-1
 112.98486048 -188.65963498 l 1,59,-1
 112.046499864 -178.963241949 l 1,60,-1
 103.046499864 -85.9632419486 l 1,61,-1
 102.027242273 -75.4309135065 l 1,62,-1
 112.600319617 -75.0079904128 l 2,0,1
EndSplineSet
EndChar

StartChar: hyphen
Encoding: 45 45 16
Width: 588
VWidth: 1177
Flags: W
LayerCount: 2
Fore
SplineSet
151 383 m 1,0,-1
 568 383 l 1,1,-1
 580.851571874 383 l 1,2,-1
 577.69334088 370.542533298 l 1,3,-1
 541.69334088 228.542533298 l 1,4,-1
 539.781149339 221 l 1,5,-1
 532 221 l 1,6,-1
 117 221 l 1,7,-1
 104.322979015 221 l 1,8,-1
 107.274885031 233.328548655 l 1,9,-1
 141.274885031 375.328548655 l 1,10,-1
 143.111711409 383 l 1,11,-1
 151 383 l 1,0,-1
EndSplineSet
Substitution2: "'case' Case-Sensitive Forms lookup 17 subtable" Hyphen
EndChar

StartChar: period
Encoding: 46 46 17
Width: 588
VWidth: 1177
Flags: W
LayerCount: 2
Fore
SplineSet
305 207 m 0,0,1
 316.005571402 207 316.005571402 207 326.171796346 205.386894701 c 256,2,3
 336.338021289 203.773789403 336.338021289 203.773789403 345.64682297 200.546444328 c 256,4,5
 354.95562465 197.319099253 354.95562465 197.319099253 363.366534439 192.412743506 c 256,6,7
 371.777444227 187.50638776 371.777444227 187.50638776 379.134871703 180.981876602 c 0,8,9
 385.186636258 175.615217468 385.186636258 175.615217468 390.028608485 169.189088595 c 256,10,11
 394.870580713 162.762959722 394.870580713 162.762959722 398.416831489 155.481615147 c 256,12,13
 401.963082265 148.200270571 401.963082265 148.200270571 404.327332624 139.970134741 c 256,14,15
 406.691582983 131.739998911 406.691582983 131.739998911 407.845791491 122.772703531 c 256,16,17
 409 113.80540815 409 113.80540815 409 104 c 0,18,19
 409 75.9331432288 409 75.9331432288 398.680623535 52.035639837 c 0,20,21
 393.566689111 40.1928443276 393.566689111 40.1928443276 386.753897679 30.109972087 c 256,22,23
 379.941106248 20.0270998465 379.941106248 20.0270998465 371.454214275 11.8139785823 c 0,24,25
 354.631298997 -4.46626200984 354.631298997 -4.46626200984 331.939192986 -14.1914503002 c 256,26,27
 309.05257702 -24 309.05257702 -24 286 -24 c 0,28,29
 263.895082881 -24 263.895082881 -24 245.218467808 -17.4985425326 c 256,30,31
 226.541852735 -10.9970850653 226.541852735 -10.9970850653 211.865128297 2.01812339843 c 0,32,33
 196.813154279 15.3661003579 196.813154279 15.3661003579 189.406577139 35.0712889843 c 256,34,35
 182 54.7764776108 182 54.7764776108 182 80 c 0,36,37
 182 108.15669594 182 108.15669594 192.388920772 131.121678699 c 0,38,39
 202.673991052 153.857097213 202.673991052 153.857097213 220.042047842 170.682402228 c 256,40,41
 237.333587795 187.433581557 237.333587795 187.433581557 259.48009938 197.156440302 c 0,42,43
 270.626450378 202.049960253 270.626450378 202.049960253 282.039209832 204.524980126 c 256,44,45
 293.451969286 207 293.451969286 207 305 207 c 0,0,1
EndSplineSet
EndChar

StartChar: slash
Encoding: 47 47 18
Width: 588
VWidth: 1177
Flags: W
LayerCount: 2
Fore
SplineSet
139 -204 m 1,0,-1
 -13 -204 l 1,1,-1
 -29.6898112607 -204 l 1,2,-1
 -21.8177625582 -189.283320716 l 1,3,-1
 522.182237442 827.716679284 l 1,4,-1
 525.008320499 833 l 1,5,-1
 531 833 l 1,6,-1
 683 833 l 1,7,-1
 699.689811261 833 l 1,8,-1
 691.817762558 818.283320716 l 1,9,-1
 147.817762558 -198.716679284 l 1,10,-1
 144.991679501 -204 l 1,11,-1
 139 -204 l 1,0,-1
EndSplineSet
Substitution2: "'case' Case-Sensitive Forms lookup 17 subtable" Slash
Substitution2: "'ss02' Style Set 2 lookup 14 subtable" fraction
Substitution2: "'frac' Diagonal Fractions lookup 12 subtable" fraction
EndChar

StartChar: zero
Encoding: 48 48 19
Width: 628
VWidth: 1177
Flags: W
LayerCount: 2
Fore
SplineSet
385.986187763 739.112304688 m 128,-1,1
 418.806562978 746 418.806562978 746 455.495412844 746 c 0,2,3
 559.583007812 746 559.583007812 746 615.575195312 682.70703125 c 0,4,5
 671 620.0546875 671 620.0546875 671 515.123046875 c 0,6,7
 671 499.952148438 671 499.952148438 670.2109375 483.546875 c 128,-1,8
 669.422851562 467.141601562 669.422851562 467.141601562 667.852539062 449.552734375 c 128,-1,9
 666.28125 431.96484375 666.28125 431.96484375 663.926757812 413.120117188 c 0,10,11
 663.216796875 407.442382812 663.216796875 407.442382812 662.411132812 401.745117188 c 128,-1,12
 661.60546875 396.047851562 661.60546875 396.047851562 660.704101562 390.333007812 c 128,-1,13
 659.801757812 384.618164062 659.801757812 384.618164062 658.8046875 378.884765625 c 128,-1,14
 657.806640625 373.151367188 657.806640625 373.151367188 656.712890625 367.399414062 c 128,-1,15
 655.619140625 361.647460938 655.619140625 361.647460938 654.428710938 355.876953125 c 128,-1,16
 653.239257812 350.107421875 653.239257812 350.107421875 651.954101562 344.318359375 c 128,-1,17
 650.66796875 338.529296875 650.66796875 338.529296875 649.287109375 332.72265625 c 128,-1,18
 647.905273438 326.916015625 647.905273438 326.916015625 646.427734375 321.090820312 c 128,-1,19
 644.951171875 315.265625 644.951171875 315.265625 643.377929688 309.421875 c 128,-1,20
 641.8046875 303.579101562 641.8046875 303.579101562 640.13671875 297.716796875 c 0,21,22
 623.411132812 238.963867188 623.411132812 238.963867188 596.553710938 183.180664062 c 0,23,24
 569.46875 126.924804688 569.46875 126.924804688 529.318717747 83.0458984375 c 0,25,26
 486.860835364 38.640625 486.860835364 38.640625 430.601628201 12.0556640625 c 0,27,28
 401.845586654 -1.3974609375 401.845586654 -1.3974609375 369.288429377 -8.109375 c 128,-1,29
 336.730235808 -15 336.730235808 -15 300.565749235 -15 c 0,30,31
 248.558444429 -15 248.558444429 -15 207.3275307 -1.025390625 c 0,32,33
 167.936523438 13.0732421875 167.936523438 13.0732421875 140.389648438 40.8173828125 c 0,34,35
 126.763671875 54.541015625 126.763671875 54.541015625 116.293945312 70.609375 c 128,-1,36
 105.82421875 86.6767578125 105.82421875 86.6767578125 98.5361328125 105 c 0,37,38
 91.244140625 126.34765625 91.244140625 126.34765625 87.6220703125 150.401367188 c 128,-1,39
 84 174.454101562 84 174.454101562 84 201.196289062 c 0,40,41
 84 207.037109375 84 207.037109375 84.111328125 213.055664062 c 128,-1,42
 84.2216796875 219.07421875 84.2216796875 219.07421875 84.443359375 225.264648438 c 128,-1,43
 84.6650390625 231.455078125 84.6650390625 231.455078125 84.9970703125 237.821289062 c 128,-1,44
 85.3291015625 244.186523438 85.3291015625 244.186523438 85.7724609375 250.728515625 c 128,-1,45
 86.21484375 257.270507812 86.21484375 257.270507812 86.767578125 263.985351562 c 128,-1,46
 87.3203125 270.700195312 87.3203125 270.700195312 87.9833984375 277.594726562 c 128,-1,47
 88.646484375 284.48828125 88.646484375 284.48828125 89.41796875 291.553710938 c 128,-1,48
 90.1904296875 298.619140625 90.1904296875 298.619140625 91.0732421875 305.866210938 c 0,49,50
 94.6201171875 334.98828125 94.6201171875 334.98828125 100.568359375 364.59375 c 128,-1,51
 106.517578125 394.200195312 106.517578125 394.200195312 114.86328125 424.287109375 c 0,52,53
 131.588867188 484.577148438 131.588867188 484.577148438 158.446289062 541.818359375 c 0,54,55
 171.969726562 570.640625 171.969726562 570.640625 188.458984375 596.452148438 c 128,-1,56
 205.007274943 622.263671875 205.007274943 622.263671875 225.642939483 645.028320312 c 0,57,58
 267.338111621 691.024414062 267.338111621 691.024414062 324.398371799 718.416992188 c 0,59,0
 353.165812548 732.227539062 353.165812548 732.227539062 385.986187763 739.112304688 c 128,-1,1
257.381426797 152.147460938 m 0,60,61
 272.946519018 126 272.946519018 126 314.360856269 126 c 0,62,63
 345.998823347 126 345.998823347 126 372.423209934 142.948242188 c 0,64,65
 376.347644304 145.465820312 376.347644304 145.465820312 380.174667312 148.224609375 c 128,-1,66
 384.000654028 150.984375 384.000654028 150.984375 387.74684633 154.000976562 c 128,-1,67
 391.493038632 157.017578125 391.493038632 157.017578125 395.13974699 160.278320312 c 128,-1,68
 398.786455347 163.540039062 398.786455347 163.540039062 402.351296708 167.063476562 c 128,-1,69
 405.91717436 170.586914062 405.91717436 170.586914062 409.382531776 174.358398438 c 128,-1,70
 412.847889192 178.129882812 412.847889192 178.129882812 416.23034332 182.166992188 c 128,-1,71
 419.611761157 186.205078125 419.611761157 186.205078125 422.894731341 190.493164062 c 0,72,73
 446.081744553 220.788085938 446.081744553 220.788085938 463.144277403 259.604492188 c 0,74,75
 480.375725702 298.806640625 480.375725702 298.806640625 491.872339091 341.819335938 c 128,-1,76
 503.402113795 384.958984375 503.402113795 384.958984375 509.163892274 427.126953125 c 128,-1,77
 514.920489297 469.25390625 514.920489297 469.25390625 514.920489297 505.13671875 c 0,78,79
 514.920489297 516.192382812 514.920489297 516.192382812 513.843782851 526.3125 c 128,-1,80
 512.766040114 536.432617188 512.766040114 536.432617188 510.634389335 545.515625 c 128,-1,81
 508.502738556 554.598632812 508.502738556 554.598632812 505.371066872 562.688476562 c 128,-1,82
 502.239395188 570.778320312 502.239395188 570.778320312 498.08904936 577.955078125 c 0,83,84
 493.052674646 586.665039062 493.052674646 586.665039062 485.529201309 592.36328125 c 128,-1,85
 478.005727972 598.0625 478.005727972 598.0625 467.079074685 601.03125 c 128,-1,86
 456.151385106 604 456.151385106 604 441.70030581 604 c 0,87,88
 410.01259676 604 410.01259676 604 383.033794438 587.004882812 c 0,89,90
 368.98790496 578.157226562 368.98790496 578.157226562 356.246705968 566.404296875 c 128,-1,91
 343.506543267 554.651367188 343.506543267 554.651367188 332.061744433 539.928710938 c 0,92,93
 308.928618358 510.170898438 308.928618358 510.170898438 291.88784762 470.467773438 c 0,94,95
 274.629455753 430.259765625 274.629455753 430.259765625 263.121443162 387.676757812 c 128,-1,96
 251.595813623 345.029296875 251.595813623 345.029296875 245.836107726 302.873046875 c 128,-1,97
 240.079510703 260.74609375 240.079510703 260.74609375 240.079510703 224.86328125 c 0,98,99
 240.079510703 181.2109375 240.079510703 181.2109375 257.381426797 152.147460938 c 0,60,61
384.102210555 290.903320312 m 128,-1,101
 376.178728856 289 376.178728856 289 368.480122324 289 c 0,102,103
 332.876269233 289 332.876269233 289 315.378494123 307.932617188 c 0,104,105
 298.443425076 326.255859375 298.443425076 326.255859375 298.443425076 352 c 0,106,107
 298.443425076 380.084960938 298.443425076 380.084960938 308.347259055 401.49609375 c 0,108,109
 310.263361286 405.638671875 310.263361286 405.638671875 312.318326524 409.51171875 c 128,-1,110
 314.372255471 413.385742188 314.372255471 413.385742188 316.596136157 417.038085938 c 128,-1,111
 318.820016843 420.690429688 318.820016843 420.690429688 321.187941992 424.072265625 c 128,-1,112
 323.556903431 427.453125 323.556903431 427.453125 326.104106938 430.6015625 c 128,-1,113
 328.651310445 433.75 328.651310445 433.75 331.349812452 436.625976562 c 0,114,115
 345.071342818 451.2421875 345.071342818 451.2421875 362.547355815 458.625 c 128,-1,116
 380.005751864 466 380.005751864 466 393.948012232 466 c 0,117,118
 405.326488437 466 405.326488437 466 414.937052036 463.971679688 c 128,-1,119
 424.547615635 461.944335938 424.547615635 461.944335938 432.740533018 457.5 c 128,-1,120
 440.93241411 453.056640625 440.93241411 453.056640625 446.75222489 446.305664062 c 0,121,122
 450.77096175 441.645507812 450.77096175 441.645507812 453.814548691 436.469726562 c 128,-1,123
 456.857099341 431.293945312 456.857099341 431.293945312 458.873721808 425.725585938 c 128,-1,124
 460.890344276 420.157226562 460.890344276 420.157226562 461.906945838 414.208984375 c 128,-1,125
 462.923547401 408.259765625 462.923547401 408.259765625 462.923547401 402 c 0,126,127
 462.923547401 373.915039062 462.923547401 373.915039062 453.019713422 352.50390625 c 0,128,129
 448.190596928 342.064453125 448.190596928 342.064453125 442.423636994 333.368164062 c 128,-1,130
 436.655640768 324.671875 436.655640768 324.671875 429.878297018 317.729492188 c 0,131,132
 427.645089712 315.442382812 427.645089712 315.442382812 425.336233157 313.328125 c 128,-1,133
 423.027376601 311.21484375 423.027376601 311.21484375 420.629399011 309.264648438 c 128,-1,134
 418.232457712 307.313476562 418.232457712 307.313476562 415.752613126 305.5390625 c 128,-1,135
 413.27276854 303.763671875 413.27276854 303.763671875 410.71416583 302.165039062 c 128,-1,136
 408.156599412 300.56640625 408.156599412 300.56640625 405.508875669 299.14453125 c 128,-1,137
 402.860115635 297.72265625 402.860115635 297.72265625 400.142960388 296.490234375 c 0,138,100
 392.025692254 292.806640625 392.025692254 292.806640625 384.102210555 290.903320312 c 128,-1,101
EndSplineSet
Substitution2: "'ss02' Style Set 2 lookup 15 subtable" zerosuperior
Substitution2: "'sinf' Scientific Inferiors lookup 11 subtable" zero.sinf
Substitution2: "'subs' Subscript lookup 10 subtable" zero.sinf
Substitution2: "'sups' Superscript lookup 9 subtable" zero.sups
Substitution2: "'dnom' Denominators lookup 8 subtable" zeroinferior
Substitution2: "'numr' Numerators lookup 6 subtable" zerosuperior
EndChar

StartChar: one
Encoding: 49 49 20
Width: 628
VWidth: 1177
Flags: W
LayerCount: 2
Fore
SplineSet
116.704101562 120 m 1,0,-1
 266.987187937 120 l 1,1,-1
 367.555032901 510.0078125 l 1,2,3
 333.414804687 490.329101562 333.414804687 490.329101562 296.382210615 473.516601562 c 0,4,5
 279.714018573 465.950195312 279.714018573 465.950195312 265.012298626 459.684570312 c 128,-1,6
 250.309526527 453.419921875 250.309526527 453.419921875 237.405934355 448.392578125 c 128,-1,7
 224.502342182 443.364257812 224.502342182 443.364257812 213.474737032 439.611328125 c 2,8,-1
 202.699648363 435.944335938 l 1,9,-1
 199.435872847 446.15625 l 1,10,-1
 164.1171875 564.15625 l 1,11,-1
 161.392578125 573.341796875 l 1,12,-1
 170.454101562 576.45703125 l 2,13,14
 202.528147586 587.295898438 202.528147586 587.295898438 240.830689127 603.590820312 c 128,-1,15
 279.266853972 619.94140625 279.266853972 619.94140625 318.254346467 639.76953125 c 128,-1,16
 357.185022753 659.569335938 357.185022753 659.569335938 393.442180799 681.838867188 c 0,17,18
 405.486164784 689.237304688 405.486164784 689.237304688 416.700000839 696.6875 c 128,-1,19
 427.912784742 704.13671875 427.912784742 704.13671875 438.26175185 711.61328125 c 128,-1,20
 448.609666806 719.08984375 448.609666806 719.08984375 458.123225223 726.612304688 c 2,21,-1
 461.142901473 729 l 1,22,-1
 465.109514527 729 l 1,23,-1
 580.704101562 729 l 1,24,-1
 593.385742188 729 l 1,25,-1
 590.428710938 716.668945312 l 1,26,-1
 445.373247243 120 l 1,27,-1
 579.704101562 120 l 1,28,-1
 592.409179688 120 l 1,29,-1
 589.424804688 109.516601562 l 1,30,-1
 560.424804688 7.6513671875 l 1,31,-1
 558.576171875 0 l 1,32,-1
 550.704101562 0 l 1,33,-1
 87.7041015625 0 l 1,34,-1
 75 0 l 1,35,-1
 77.984375 10.5849609375 l 1,36,-1
 106.984375 113.442382812 l 1,37,-1
 108.833007812 120 l 1,38,-1
 116.704101562 120 l 1,0,-1
EndSplineSet
Substitution2: "'ss02' Style Set 2 lookup 15 subtable" onesuperior
Substitution2: "'sinf' Scientific Inferiors lookup 11 subtable" one.sinf
Substitution2: "'subs' Subscript lookup 10 subtable" one.sinf
Substitution2: "'sups' Superscript lookup 9 subtable" one.sups
Substitution2: "'dnom' Denominators lookup 8 subtable" oneinferior
Substitution2: "'numr' Numerators lookup 6 subtable" onesuperior
EndChar

StartChar: two
Encoding: 50 50 21
Width: 628
VWidth: 1177
Flags: W
LayerCount: 2
Fore
SplineSet
315.848992101 723.487304688 m 128,-1,1
 387.15916006 746 387.15916006 746 456.446329905 746 c 0,2,3
 508.026595262 746 508.026595262 746 548.2734375 731.336914062 c 0,4,5
 560.983398438 726.461914062 560.983398438 726.461914062 572.400390625 720.462890625 c 128,-1,6
 583.817382812 714.463867188 583.817382812 714.463867188 594.008789062 707.28125 c 128,-1,7
 604.200195312 700.09765625 604.200195312 700.09765625 613.041992188 691.786132812 c 0,8,9
 626.286132812 679.3359375 626.286132812 679.3359375 636.2890625 664.932617188 c 128,-1,10
 646.291015625 650.529296875 646.291015625 650.529296875 652.9453125 634.291992188 c 128,-1,11
 659.569335938 618.130859375 659.569335938 618.130859375 662.880859375 600.77734375 c 128,-1,12
 666.192382812 583.424804688 666.192382812 583.424804688 666.192382812 565 c 0,13,14
 666.192382812 510.764648438 666.192382812 510.764648438 645.241210938 466.2421875 c 0,15,16
 634.935546875 444.342773438 634.935546875 444.342773438 621.533203125 424.110351562 c 128,-1,17
 608.130859375 403.87890625 608.130859375 403.87890625 591.666992188 385.356445312 c 0,18,19
 558.978515625 348.583007812 558.978515625 348.583007812 513.941957228 316.465820312 c 0,20,21
 468.985412504 284.907226562 468.985412504 284.907226562 421.330505871 252.811523438 c 0,22,23
 385.584685993 229.412109375 385.584685993 229.412109375 357.457588368 209.091796875 c 128,-1,24
 329.330490743 188.771484375 329.330490743 188.771484375 308.768498704 171.515625 c 0,25,26
 298.41738858 162.828125 298.41738858 162.828125 289.198415016 154.000976562 c 128,-1,27
 279.979441452 145.173828125 279.979441452 145.173828125 272.343190672 136.71484375 c 128,-1,28
 264.706939893 128.254882812 264.706939893 128.254882812 258.42863433 120 c 1,29,-1
 580.192382812 120 l 1,30,-1
 592.794921875 120 l 1,31,-1
 589.930664062 109.583007812 l 1,32,-1
 561.930664062 7.7275390625 l 1,33,-1
 560.127929688 0 l 1,34,-1
 552.192382812 0 l 1,35,-1
 59.1923828125 0 l 1,36,-1
 48 0 l 1,37,-1
 49.255859375 10.7626953125 l 2,38,39
 56.4208984375 72.1796875 56.4208984375 72.1796875 78.0009765625 120.909179688 c 128,-1,40
 99.5205078125 169.500976562 99.5205078125 169.500976562 131.8359375 209.212890625 c 0,41,42
 163.966796875 248.697265625 163.966796875 248.697265625 208.38056836 283.204101562 c 0,43,44
 252.522552172 317.326171875 252.522552172 317.326171875 304.572994461 351.40234375 c 0,45,46
 358.283491268 387.118164062 358.283491268 387.118164062 396.189444198 413.658203125 c 0,47,48
 414.895474665 426.754882812 414.895474665 426.754882812 429.92154577 438.747070312 c 128,-1,49
 444.947616876 450.73828125 444.947616876 450.73828125 456.20711708 461.528320312 c 0,50,51
 478.404417482 482.797851562 478.404417482 482.797851562 489.326751334 501.91015625 c 0,52,53
 499.735602484 520.123046875 499.735602484 520.123046875 499.735602484 540.967773438 c 0,54,55
 499.735602484 568 499.735602484 568 482.671066918 584.052734375 c 128,-1,56
 465.718920137 600 465.718920137 600 424.771252408 600 c 0,57,58
 403.688560039 600 403.688560039 600 381.311850018 595.5703125 c 128,-1,59
 358.936171087 591.139648438 358.936171087 591.139648438 335.233479632 582.208007812 c 128,-1,60
 311.382311251 573.220703125 311.382311251 573.220703125 287.846656338 560.431640625 c 128,-1,61
 264.312032514 547.641601562 264.312032514 547.641601562 241.085704529 531.021484375 c 2,62,-1
 230.502599209 523.448242188 l 1,63,-1
 225.084222508 534.9140625 l 1,64,-1
 175.45993443 639.9140625 l 1,65,-1
 172.094457446 647.034179688 l 1,66,-1
 178.567638973 651.858398438 l 2,67,0
 244.41921773 700.935546875 244.41921773 700.935546875 315.848992101 723.487304688 c 128,-1,1
EndSplineSet
Substitution2: "'ss02' Style Set 2 lookup 15 subtable" twosuperior
Substitution2: "'sinf' Scientific Inferiors lookup 11 subtable" two.sinf
Substitution2: "'subs' Subscript lookup 10 subtable" two.sinf
Substitution2: "'sups' Superscript lookup 9 subtable" two.sups
Substitution2: "'dnom' Denominators lookup 8 subtable" twoinferior
Substitution2: "'numr' Numerators lookup 6 subtable" twosuperior
EndChar

StartChar: three
Encoding: 51 51 22
Width: 628
VWidth: 1177
Flags: W
LayerCount: 2
Fore
SplineSet
616.900390625 458.99609375 m 0,0,1
 582.174804688 413.150390625 582.174804688 413.150390625 512.09896063 382.581054688 c 1,2,3
 555.864257812 358.755859375 555.864257812 358.755859375 578.328125 323.826171875 c 0,4,5
 605.853515625 281.025390625 605.853515625 281.025390625 605.853515625 229.517578125 c 0,6,7
 605.853515625 207.18359375 605.853515625 207.18359375 601.55078125 185.209960938 c 128,-1,8
 597.248046875 163.237304688 597.248046875 163.237304688 588.67578125 141.725585938 c 0,9,10
 584.333007812 130.830078125 584.333007812 130.830078125 578.60546875 120.412109375 c 128,-1,11
 572.87890625 109.994140625 572.87890625 109.994140625 565.801757812 100.106445312 c 128,-1,12
 558.724609375 90.2177734375 558.724609375 90.2177734375 550.3203125 80.8515625 c 128,-1,13
 541.915039062 71.486328125 541.915039062 71.486328125 531.918268805 62.630859375 c 0,14,15
 490.703959745 27.12109375 490.703959745 27.12109375 424.208490736 5.98828125 c 0,16,17
 358.167489016 -15 358.167489016 -15 264.593601662 -15 c 0,18,19
 243.832381691 -15 243.832381691 -15 223.772958145 -13.69921875 c 128,-1,20
 203.712504062 -12.3984375 203.712504062 -12.3984375 184.316747034 -9.7890625 c 128,-1,21
 164.919959468 -7.1796875 164.919959468 -7.1796875 146.694335938 -3.263671875 c 0,22,23
 93.2880859375 8.546875 93.2880859375 8.546875 43.02734375 36.2412109375 c 2,24,-1
 35 40.6650390625 l 1,25,-1
 38.708984375 49.0458984375 l 1,26,-1
 88.708984375 162.045898438 l 1,27,-1
 93.310546875 172.446289062 l 1,28,-1
 103.036132812 166.551757812 l 2,29,30
 134.916015625 147.231445312 134.916015625 147.231445312 179.437149269 134.598632812 c 0,31,32
 224.947771546 122 224.947771546 122 273.035769537 122 c 0,33,34
 306.710662072 122 306.710662072 122 336.718900151 127.95703125 c 0,35,36
 344.052209062 129.413085938 344.052209062 129.413085938 350.916623151 131.361328125 c 128,-1,37
 357.781037239 133.309570312 357.781037239 133.309570312 364.166251125 135.74609375 c 128,-1,38
 370.552495549 138.182617188 370.552495549 138.182617188 376.469845151 141.096679688 c 128,-1,39
 382.386164214 144.009765625 382.386164214 144.009765625 387.877901593 147.41796875 c 0,40,41
 395.111248311 151.907226562 395.111248311 151.907226562 401.347034176 157.280273438 c 128,-1,42
 407.582820042 162.65234375 407.582820042 162.65234375 412.886999491 168.98046875 c 128,-1,43
 418.191178941 175.307617188 418.191178941 175.307617188 422.568904665 182.611328125 c 0,44,45
 435.547501127 204.264648438 435.547501127 204.264648438 435.547501127 236.088867188 c 0,46,47
 435.547501127 276.377929688 435.547501127 276.377929688 401.571691476 294.9921875 c 0,48,49
 365.053544404 315 365.053544404 315 298.362273161 315 c 2,50,-1
 247.709265912 315 l 1,51,-1
 234.136048984 315 l 1,52,-1
 237.482206099 327.465820312 l 1,53,-1
 268.085064645 441.465820312 l 1,54,-1
 270.108010878 449 l 1,55,-1
 278.312124459 449 l 1,56,-1
 341.62838352 449 l 2,57,58
 365.870761094 449 365.870761094 449 392.775018505 453.9765625 c 0,59,60
 405.933959129 456.41015625 405.933959129 456.41015625 418.174690332 460.59765625 c 128,-1,61
 430.414390997 464.78515625 430.414390997 464.78515625 441.813172597 470.748046875 c 0,62,63
 452.94298376 476.569335938 452.94298376 476.569335938 461.930306274 484.151367188 c 128,-1,64
 470.91659825 491.734375 470.91659825 491.734375 477.917043364 501.19921875 c 0,65,66
 482.373089982 507.225585938 482.373089982 507.225585938 485.364742001 514.276367188 c 128,-1,67
 488.35639402 521.327148438 488.35639402 521.327148438 489.916628659 529.7421875 c 128,-1,68
 491.476863298 538.157226562 491.476863298 538.157226562 491.476863298 547.75 c 0,69,70
 491.476863298 575.837890625 491.476863298 575.837890625 467.915671388 590.892578125 c 0,71,72
 442.707679642 607 442.707679642 607 402.834100612 607 c 0,73,74
 387.372937938 607 387.372937938 607 370.059898351 604.24609375 c 128,-1,75
 352.747889302 601.491210938 352.747889302 601.491210938 333.641713472 595.939453125 c 128,-1,76
 314.405689845 590.349609375 314.405689845 590.349609375 294.990352594 582.4296875 c 128,-1,77
 275.575015343 574.509765625 275.575015343 574.509765625 255.979333929 564.248046875 c 2,78,-1
 244.939179578 558.465820312 l 1,79,-1
 240.882981732 569.784179688 l 1,80,-1
 202.893226296 675.784179688 l 1,81,-1
 200.004628084 683.84375 l 1,82,-1
 207.93874069 687.833007812 l 2,83,84
 260.644579775 714.334960938 260.644579775 714.334960938 319.770671041 730.125 c 0,85,86
 349.430587253 738.045898438 349.430587253 738.045898438 377.047977008 742.0234375 c 128,-1,87
 404.665366764 746 404.665366764 746 430.271146205 746 c 0,88,89
 439.803623359 746 439.803623359 746 449.082588147 745.588867188 c 128,-1,90
 458.362583473 745.178710938 458.362583473 745.178710938 467.413799348 744.353515625 c 128,-1,91
 476.465015223 743.529296875 476.465015223 743.529296875 485.260657656 742.291015625 c 128,-1,92
 494.056300089 741.053710938 494.056300089 741.053710938 502.620071456 739.397460938 c 128,-1,93
 511.182812285 737.78515625 511.182812285 737.78515625 519.488949134 735.766601562 c 0,94,95
 560.090820312 725.591796875 560.090820312 725.591796875 590.530273438 705.140625 c 0,96,97
 605.965820312 694.770507812 605.965820312 694.770507812 618.157226562 681.588867188 c 128,-1,98
 630.348632812 668.407226562 630.348632812 668.407226562 639.1484375 652.560546875 c 128,-1,99
 648.032226562 636.563476562 648.032226562 636.563476562 652.443359375 617.9453125 c 128,-1,100
 656.853515625 599.327148438 656.853515625 599.327148438 656.853515625 578.271484375 c 0,101,102
 656.853515625 511.745117188 656.853515625 511.745117188 616.900390625 458.99609375 c 0,0,1
EndSplineSet
Substitution2: "'ss02' Style Set 2 lookup 15 subtable" threesuperior
Substitution2: "'sinf' Scientific Inferiors lookup 11 subtable" three.sinf
Substitution2: "'subs' Subscript lookup 10 subtable" three.sinf
Substitution2: "'sups' Superscript lookup 9 subtable" three.sups
Substitution2: "'dnom' Denominators lookup 8 subtable" threeinferior
Substitution2: "'numr' Numerators lookup 6 subtable" threesuperior
EndChar

StartChar: four
Encoding: 52 52 23
Width: 628
VWidth: 1177
Flags: W
LayerCount: 2
Fore
SplineSet
415.243102927 297 m 1,0,-1
 476.666747645 539.830078125 l 1,1,2
 447.48157241 513.404296875 447.48157241 513.404296875 418.655184952 485.646484375 c 128,-1,3
 389.827769448 457.888671875 389.827769448 457.888671875 359.651558639 427.176757812 c 0,4,5
 294.643120302 361.013671875 294.643120302 361.013671875 240.99149731 297 c 1,6,-1
 415.243102927 297 l 1,0,-1
686.375 729 m 1,7,-1
 683.416992188 716.947265625 l 1,8,-1
 580.375 297 l 1,9,-1
 644.693359375 297 l 1,10,-1
 657.419921875 297 l 1,11,-1
 654.409179688 284.634765625 l 1,12,-1
 626.409179688 169.634765625 l 1,13,-1
 624.55078125 162 l 1,14,-1
 616.693359375 162 l 1,15,-1
 545.546804211 162 l 1,16,-1
 504.312939212 7.681640625 l 1,17,-1
 502.385354458 -0 l 1,18,-1
 494.072580957 0 l 1,19,-1
 350.902893971 0 l 1,20,-1
 337.646251094 0 l 1,21,-1
 340.649171129 11.5517578125 l 1,22,-1
 379.75498256 162 l 1,23,-1
 59.693359375 162 l 1,24,-1
 47 162 l 1,25,-1
 49.970703125 174.125976562 l 1,26,-1
 75.970703125 280.24609375 l 1,27,-1
 76.4287109375 282.11328125 l 1,28,-1
 77.5673828125 283.673828125 l 2,29,30
 110.828125 329.229492188 110.828125 329.229492188 161.119140625 386.551757812 c 0,31,32
 187.206228442 415.133789062 187.206228442 415.133789062 215.443546 444.323242188 c 128,-1,33
 243.681891603 473.512695312 243.681891603 473.512695312 273.761466163 503.3125 c 0,34,35
 333.952484684 562.944335938 333.952484684 562.944335938 398.882791585 621.084960938 c 0,36,37
 431.353599284 650.161132812 431.353599284 650.161132812 462.385143701 676.537109375 c 128,-1,38
 493.415660073 702.913085938 493.415660073 702.913085938 523.014109478 726.592773438 c 2,39,-1
 525.970767478 729 l 1,40,-1
 529.865002703 729 l 1,41,-1
 673.693359375 729 l 1,42,-1
 686.375 729 l 1,7,-1
EndSplineSet
Substitution2: "'ss02' Style Set 2 lookup 15 subtable" foursuperior
Substitution2: "'sinf' Scientific Inferiors lookup 11 subtable" four.sinf
Substitution2: "'subs' Subscript lookup 10 subtable" four.sinf
Substitution2: "'sups' Superscript lookup 9 subtable" four.sups
Substitution2: "'dnom' Denominators lookup 8 subtable" fourinferior
Substitution2: "'numr' Numerators lookup 6 subtable" foursuperior
EndChar

StartChar: five
Encoding: 53 53 24
Width: 628
VWidth: 1177
Flags: W
LayerCount: 2
Fore
SplineSet
100.743164062 155.543945312 m 1,0,-1
 110.383789062 149.455078125 l 2,1,2
 122.6484375 141.708984375 122.6484375 141.708984375 135.213867188 135.373046875 c 128,-1,3
 147.778320312 129.036132812 147.778320312 129.036132812 160.752603066 124.114257812 c 0,4,5
 174.235744788 119.19140625 174.235744788 119.19140625 188.061295979 115.658203125 c 0,6,7
 229.76553908 105 229.76553908 105 269.323059343 105 c 0,8,9
 434.138884191 105 434.138884191 105 434.138884191 222 c 0,10,11
 434.138884191 227.787109375 434.138884191 227.787109375 433.283885696 233.234375 c 128,-1,12
 432.427862024 238.681640625 432.427862024 238.681640625 430.681983804 243.909179688 c 128,-1,13
 428.936105584 249.137695312 428.936105584 249.137695312 426.264491584 254.056640625 c 128,-1,14
 423.591852405 258.975585938 423.591852405 258.975585938 419.978099777 263.663085938 c 128,-1,15
 416.364347148 268.350585938 416.364347148 268.350585938 411.752071098 272.764648438 c 128,-1,16
 407.139795049 277.177734375 407.139795049 277.177734375 401.534121468 281.34765625 c 128,-1,17
 395.929473065 285.517578125 395.929473065 285.517578125 389.253513599 289.448242188 c 128,-1,18
 382.576528955 293.377929688 382.576528955 293.377929688 374.855913055 297.055664062 c 0,19,20
 311.88127576 327.049804688 311.88127576 327.049804688 165.17317082 330.001953125 c 2,21,-1
 151.180664062 330.291015625 l 1,22,-1
 155.576171875 343.21875 l 2,23,24
 191.121452461 443.142578125 191.121452461 443.142578125 223.110083175 538.056640625 c 128,-1,25
 255.058731946 632.848632812 255.058731946 632.848632812 280.182770433 721.603515625 c 2,26,-1
 282.277209191 729 l 1,27,-1
 290.31870582 729 l 1,28,-1
 687.043945312 729 l 1,29,-1
 699.749023438 729 l 1,30,-1
 696.764648438 718.415039062 l 1,31,-1
 667.764648438 615.557617188 l 1,32,-1
 665.915039062 609 l 1,33,-1
 658.043945312 609 l 1,34,-1
 390.708241253 609 l 1,35,36
 386.630082967 594.896484375 386.630082967 594.896484375 382.746708511 581.901367188 c 128,-1,37
 378.863334055 568.905273438 378.863334055 568.905273438 375.001488338 556.428710938 c 128,-1,38
 371.1406678 543.952148438 371.1406678 543.952148438 367.021502392 531.083984375 c 0,39,40
 356.717437805 498.888671875 356.717437805 498.888671875 347.117670539 474.59375 c 1,41,42
 378.080098025 471.180664062 378.080098025 471.180664062 404.378990558 465.314453125 c 128,-1,43
 430.67890827 459.448242188 430.67890827 459.448242188 453.731061917 450.8046875 c 0,44,45
 479.213912722 441.25 479.213912722 441.25 500.380763934 429.15234375 c 128,-1,46
 521.546589968 417.055664062 521.546589968 417.055664062 538.34310715 402.366210938 c 0,47,48
 572.036608962 372.90234375 572.036608962 372.90234375 588.749023438 334.409179688 c 0,49,50
 596.884765625 315.249023438 596.884765625 315.249023438 600.96484375 295.114257812 c 128,-1,51
 605.043945312 274.979492188 605.043945312 274.979492188 605.043945312 254 c 0,52,53
 605.043945312 131.55859375 605.043945312 131.55859375 520.961213301 58.0810546875 c 0,54,55
 478.282025874 21.3349609375 478.282025874 21.3349609375 416.057818911 3.1669921875 c 128,-1,56
 353.83258677 -15 353.83258677 -15 272.472406314 -15 c 0,57,58
 211.549150298 -15 211.549150298 -15 152.997070312 -4.9609375 c 0,59,60
 96.609375 5.14453125 96.609375 5.14453125 46.357421875 28 c 2,61,-1
 38 31.80078125 l 1,62,-1
 41.96484375 39.1630859375 l 1,63,-1
 95.96484375 145.190429688 l 1,64,-1
 100.743164062 155.543945312 l 1,0,-1
EndSplineSet
Substitution2: "'ss02' Style Set 2 lookup 15 subtable" fivesuperior
Substitution2: "'sinf' Scientific Inferiors lookup 11 subtable" five.sinf
Substitution2: "'subs' Subscript lookup 10 subtable" five.sinf
Substitution2: "'sups' Superscript lookup 9 subtable" five.sups
Substitution2: "'dnom' Denominators lookup 8 subtable" fiveinferior
Substitution2: "'numr' Numerators lookup 6 subtable" fivesuperior
EndChar

StartChar: six
Encoding: 54 54 25
Width: 628
VWidth: 1177
Flags: W
LayerCount: 2
Fore
SplineSet
676.641601562 597 m 1,0,-1
 668 597 l 2,1,2
 637.836914062 597 637.836914062 597 608.556640625 595.166992188 c 128,-1,3
 579.27734375 593.333007812 579.27734375 593.333007812 549.403668051 589.66796875 c 0,4,5
 490.035671817 582.422851562 490.035671817 582.422851562 439.019301031 562.985351562 c 0,6,7
 388.458304482 543.720703125 388.458304482 543.720703125 348.080756273 509.198242188 c 0,8,9
 316.921180415 481.740234375 316.921180415 481.740234375 294.520072294 441.030273438 c 1,10,11
 323.407939944 453.499023438 323.407939944 453.499023438 353.210686444 459.76171875 c 0,12,13
 375.136801031 464.370117188 375.136801031 464.370117188 394.308985712 466.684570312 c 128,-1,14
 413.482202989 469 413.482202989 469 430.049151393 469 c 0,15,16
 440.774711919 469 440.774711919 469 451.149190268 468.232421875 c 128,-1,17
 461.522636022 467.465820312 461.522636022 467.465820312 471.556358139 465.928710938 c 128,-1,18
 481.590080256 464.391601562 481.590080256 464.391601562 491.277883169 462.076171875 c 128,-1,19
 500.966718676 459.759765625 500.966718676 459.759765625 510.274526762 456.671875 c 0,20,21
 547.877493173 444.193359375 547.877493173 444.193359375 575.966132571 418.69140625 c 0,22,23
 589.245117188 405.9765625 589.245117188 405.9765625 599.80859375 390.325195312 c 128,-1,24
 610.372070312 374.673828125 610.372070312 374.673828125 618.23046875 356.19921875 c 128,-1,25
 626.153320312 337.57421875 626.153320312 337.57421875 630.076171875 316.051757812 c 128,-1,26
 634 294.528320312 634 294.528320312 634 270.1484375 c 0,27,28
 634 235.943359375 634 235.943359375 628.1875 205.450195312 c 128,-1,29
 622.375 174.956054688 622.375 174.956054688 610.69140625 148.251953125 c 0,30,31
 602.9453125 130.547851562 602.9453125 130.547851562 593.39453125 114.654296875 c 128,-1,32
 583.842773438 98.759765625 583.842773438 98.759765625 572.212651055 84.6494140625 c 0,33,34
 560.166401984 70.5380859375 560.166401984 70.5380859375 546.231537317 58.30859375 c 0,35,36
 504.443464829 21.6328125 504.443464829 21.6328125 449.490843276 3.306640625 c 0,37,38
 422.196269156 -5.796875 422.196269156 -5.796875 393.521116002 -10.3505859375 c 128,-1,39
 364.845962848 -15 364.845962848 -15 334.885229368 -15 c 0,40,41
 308.57265275 -15 308.57265275 -15 283.664404843 -10.705078125 c 128,-1,42
 258.756156936 -6.5224609375 258.756156936 -6.5224609375 235.36582315 1.8408203125 c 0,43,44
 189.30078125 18.6962890625 189.30078125 18.6962890625 157.26171875 51.431640625 c 128,-1,45
 125.353515625 84.033203125 125.353515625 84.033203125 106.63671875 132.638671875 c 0,46,47
 88 181.037109375 88 181.037109375 88 243.181640625 c 0,48,49
 88 335.421875 88 335.421875 120.073242188 423.670898438 c 0,50,51
 152.276367188 512.278320312 152.276367188 512.278320312 219.866577603 581.455078125 c 0,52,53
 290.667461692 650.645507812 290.667461692 650.645507812 399.009356514 692.345703125 c 128,-1,54
 507.231470357 734 507.231470357 734 651 734 c 0,55,56
 657.227539062 734 657.227539062 734 668.454101562 733.489257812 c 0,57,58
 679.227539062 733 679.227539062 733 685 733 c 2,59,-1
 696.572265625 733 l 1,60,-1
 694.89453125 721.549804688 l 1,61,-1
 677.89453125 605.549804688 l 1,62,-1
 676.641601562 597 l 1,0,-1
436.753788391 159.302734375 m 0,63,64
 470.229474026 195.352539062 470.229474026 195.352539062 470.229474026 259.744140625 c 0,65,66
 470.229474026 284.3671875 470.229474026 284.3671875 462.253713027 299.635742188 c 128,-1,67
 454.332679543 314.802734375 454.332679543 314.802734375 441.492365194 323.923828125 c 128,-1,68
 428.465151215 333.177734375 428.465151215 333.177734375 411.623532636 336.983398438 c 0,69,70
 402.796913653 338.978515625 402.796913653 338.978515625 392.860255432 339.989257812 c 128,-1,71
 382.924629806 341 382.924629806 341 371.893421266 341 c 0,72,73
 343.523916126 341 343.523916126 341 313.53530259 334.56640625 c 0,74,75
 286.224206956 328.708007812 286.224206956 328.708007812 260.135703375 319.540039062 c 1,76,77
 254.859144765 301.725585938 254.859144765 301.725585938 251.750002304 284.052734375 c 0,78,79
 249.965678766 273.915039062 249.965678766 273.915039062 249.073516997 263.538085938 c 128,-1,80
 248.180322633 253.161132812 248.180322633 253.161132812 248.180322633 242.537109375 c 0,81,82
 248.180322633 230.221679688 248.180322633 230.221679688 249.813887354 218.404296875 c 128,-1,83
 251.448484669 206.5859375 251.448484669 206.5859375 254.713548921 195.233398438 c 0,84,85
 261.086723039 173.071289062 261.086723039 173.071289062 273.669921322 157.319335938 c 0,86,87
 285.994970946 141.891601562 285.994970946 141.891601562 304.476349813 132.89453125 c 0,88,89
 313.524976644 128.490234375 313.524976644 128.490234375 324.521076966 126.245117188 c 128,-1,90
 335.518209882 124 335.518209882 124 348.631129216 124 c 0,91,92
 403.972006354 124 403.972006354 124 436.753788391 159.302734375 c 0,63,64
EndSplineSet
Substitution2: "'ss02' Style Set 2 lookup 15 subtable" sixsuperior
Substitution2: "'sinf' Scientific Inferiors lookup 11 subtable" six.sinf
Substitution2: "'subs' Subscript lookup 10 subtable" six.sinf
Substitution2: "'sups' Superscript lookup 9 subtable" six.sups
Substitution2: "'dnom' Denominators lookup 8 subtable" sixinferior
Substitution2: "'numr' Numerators lookup 6 subtable" sixsuperior
EndChar

StartChar: seven
Encoding: 55 55 26
Width: 628
VWidth: 1177
Flags: W
LayerCount: 2
Fore
SplineSet
139 0 m 1,0,-1
 142.340820312 12.1533203125 l 2,1,2
 163.56640625 89.3623046875 163.56640625 89.3623046875 203.436523438 172.323242188 c 0,3,4
 243.163085938 254.983398438 243.163085938 254.983398438 293.840355619 333.266601562 c 0,5,6
 345.404205882 411.510742188 345.404205882 411.510742188 402.334943809 480.587890625 c 0,7,8
 426.083111856 509.400390625 426.083111856 509.400390625 450.251665445 536.081054688 c 128,-1,9
 474.420219035 562.76171875 474.420219035 562.76171875 496.829763831 585 c 1,10,-1
 176.005859375 585 l 1,11,-1
 163.396484375 585 l 1,12,-1
 166.268554688 597.27734375 l 1,13,-1
 195.268554688 721.27734375 l 1,14,-1
 197.07421875 729 l 1,15,-1
 205.005859375 729 l 1,16,-1
 733.005859375 729 l 1,17,-1
 745.754882812 729 l 1,18,-1
 742.717773438 716.951171875 l 1,19,-1
 716.717773438 613.809570312 l 1,20,-1
 715.930664062 610.688476562 l 1,21,-1
 713.388671875 608.637695312 l 2,22,23
 673.0390625 576.079101562 673.0390625 576.079101562 618.176581275 514.427734375 c 0,24,25
 608.56555554 504.138671875 608.56555554 504.138671875 598.935937817 493.309570312 c 128,-1,26
 589.305287205 482.479492188 589.305287205 482.479492188 579.65191305 471.103515625 c 128,-1,27
 569.999571784 459.728515625 569.999571784 459.728515625 560.325539863 447.80859375 c 128,-1,28
 550.651507942 435.887695312 550.651507942 435.887695312 540.958884031 423.426757812 c 128,-1,29
 531.26626012 410.96484375 531.26626012 410.96484375 521.550912667 397.954101562 c 128,-1,30
 511.836598102 384.944335938 511.836598102 384.944335938 502.105757324 371.396484375 c 0,31,32
 443.785784618 290.19140625 443.785784618 290.19140625 393.281677763 196.79296875 c 0,33,34
 342.936635707 103.678710938 342.936635707 103.678710938 312.52840383 7.21484375 c 2,35,-1
 310.315957068 -0 l 1,36,-1
 302.37098018 0 l 1,37,-1
 152.005859375 0 l 1,38,-1
 139 0 l 1,0,-1
EndSplineSet
Substitution2: "'ss02' Style Set 2 lookup 15 subtable" sevensuperior
Substitution2: "'sinf' Scientific Inferiors lookup 11 subtable" seven.sinf
Substitution2: "'subs' Subscript lookup 10 subtable" seven.sinf
Substitution2: "'sups' Superscript lookup 9 subtable" seven.sups
Substitution2: "'dnom' Denominators lookup 8 subtable" seveninferior
Substitution2: "'numr' Numerators lookup 6 subtable" sevensuperior
EndChar

StartChar: eight
Encoding: 56 56 27
Width: 628
VWidth: 1177
Flags: W
LayerCount: 2
Fore
SplineSet
94.3486328125 82.158203125 m 0,0,1
 73 118.030273438 73 118.030273438 73 168.377929688 c 0,2,3
 73 203.077148438 73 203.077148438 83.0126953125 232.337890625 c 0,4,5
 84.6884765625 237.233398438 84.6884765625 237.233398438 86.671875 242.0703125 c 128,-1,6
 88.6552734375 246.907226562 88.6552734375 246.907226562 90.94140625 251.670898438 c 128,-1,7
 93.2265625 256.434570312 93.2265625 256.434570312 95.8134765625 261.133789062 c 128,-1,8
 98.400390625 265.83203125 98.400390625 265.83203125 101.287109375 270.462890625 c 128,-1,9
 104.174804688 275.092773438 104.174804688 275.092773438 107.356445312 279.649414062 c 128,-1,10
 110.537109375 284.20703125 110.537109375 284.20703125 114.018554688 288.69921875 c 0,11,12
 124.444335938 302.155273438 124.444335938 302.155273438 137.880859375 315.243164062 c 128,-1,13
 151.317382812 328.331054688 151.317382812 328.331054688 167.767578125 341.100585938 c 0,14,15
 181.787109375 351.982421875 181.787109375 351.982421875 199.397395454 363.95703125 c 0,16,17
 217.660460892 375.931640625 217.660460892 375.931640625 236.95289723 387.485351562 c 1,18,19
 213.002454218 412.109375 213.002454218 412.109375 196.008532822 439.1640625 c 0,20,21
 176 472.596679688 176 472.596679688 176 518.068359375 c 0,22,23
 176 523.282226562 176 523.282226562 176.245117188 528.484375 c 128,-1,24
 176.491210938 533.686523438 176.491210938 533.686523438 176.981445312 538.870117188 c 128,-1,25
 177.471679688 544.052734375 177.471679688 544.052734375 178.20703125 549.219726562 c 128,-1,26
 178.94140625 554.387695312 178.94140625 554.387695312 179.919921875 559.534179688 c 128,-1,27
 180.899414062 564.681640625 180.899414062 564.681640625 182.12109375 569.810546875 c 128,-1,28
 183.342773438 574.938476562 183.342773438 574.938476562 184.807617188 580.046875 c 128,-1,29
 186.2734375 585.154296875 186.2734375 585.154296875 187.98046875 590.239257812 c 128,-1,30
 189.6875 595.32421875 189.6875 595.32421875 191.63671875 600.387695312 c 0,31,32
 208.236963033 641.326171875 208.236963033 641.326171875 243.72338796 673.98828125 c 128,-1,33
 279.104395385 706.552734375 279.104395385 706.552734375 331.888592156 726.2890625 c 128,-1,34
 384.602510591 746 384.602510591 746 456.518950437 746 c 0,35,36
 504.823936885 746 504.823936885 746 545.62877813 733.309570312 c 0,37,38
 555.822237154 730.139648438 555.822237154 730.139648438 564.837890625 726.35546875 c 128,-1,39
 573.84375 722.571289062 573.84375 722.571289062 582.241210938 718.1640625 c 128,-1,40
 590.637695312 713.755859375 590.637695312 713.755859375 598.416015625 708.715820312 c 128,-1,41
 606.193359375 703.67578125 606.193359375 703.67578125 613.31640625 698.020507812 c 0,42,43
 627.595703125 686.685546875 627.595703125 686.685546875 639.010742188 672.978515625 c 128,-1,44
 650.42578125 659.270507812 650.42578125 659.270507812 658.885742188 643.301757812 c 0,45,46
 676 610.997070312 676 610.997070312 676 570.635742188 c 0,47,48
 676 558.354492188 676 558.354492188 674.427734375 545.846679688 c 128,-1,49
 672.85546875 533.337890625 672.85546875 533.337890625 669.723632812 520.624023438 c 0,50,51
 663.345703125 494.733398438 663.345703125 494.733398438 645.989257812 467.575195312 c 128,-1,52
 628.71875 440.552734375 628.71875 440.552734375 597.127929688 413.307617188 c 0,53,54
 570.450195312 390.298828125 570.450195312 390.298828125 526.423156204 368.442382812 c 1,55,56
 559.958007812 344.45703125 559.958007812 344.45703125 583.934570312 314.006835938 c 0,57,58
 594.025390625 301.19140625 594.025390625 301.19140625 600.734375 285.86328125 c 128,-1,59
 607.443359375 270.536132812 607.443359375 270.536132812 610.721679688 253.120117188 c 128,-1,60
 614 235.705078125 614 235.705078125 614 216.010742188 c 0,61,62
 614 200.1015625 614 200.1015625 611.848632812 184.763671875 c 128,-1,63
 609.698242188 169.42578125 609.698242188 169.42578125 605.390625 154.673828125 c 128,-1,64
 601.083984375 139.920898438 601.083984375 139.920898438 594.633789062 125.82421875 c 0,65,66
 575.236328125 83.4326171875 575.236328125 83.4326171875 537.032084206 51.8193359375 c 0,67,68
 497.874649804 20.341796875 497.874649804 20.341796875 440.844814823 2.673828125 c 0,69,70
 426.603117028 -1.7392578125 426.603117028 -1.7392578125 411.24316691 -5.0400390625 c 128,-1,71
 395.882183286 -8.3408203125 395.882183286 -8.3408203125 379.447388051 -10.525390625 c 128,-1,72
 363.011559311 -12.767578125 363.011559311 -12.767578125 345.521555553 -13.8837890625 c 128,-1,73
 328.031551795 -15 328.031551795 -15 309.413994169 -15 c 0,74,75
 267.928073182 -15 267.928073182 -15 225.42001583 -5.2158203125 c 128,-1,76
 183.01171875 4.4228515625 183.01171875 4.4228515625 149.60546875 25.2685546875 c 0,77,78
 115.564453125 46.509765625 115.564453125 46.509765625 94.3486328125 82.158203125 c 0,0,1
444.622275305 196.481445312 m 128,-1,80
 446.994169096 206.568359375 446.994169096 206.568359375 446.994169096 218 c 0,81,82
 446.994169096 258.44140625 446.994169096 258.44140625 418.357814778 281.951171875 c 0,83,84
 408.673873679 289.901367188 408.673873679 289.901367188 396.92705676 297.991210938 c 128,-1,85
 385.181273346 306.081054688 385.181273346 306.081054688 372.149809812 313.819335938 c 128,-1,86
 359.118346278 321.557617188 359.118346278 321.557617188 345.17843192 328.75 c 1,87,88
 310.344148597 312.252929688 310.344148597 312.252929688 289.657514122 296.260742188 c 0,89,90
 267.549810382 279.168945312 267.549810382 279.168945312 254.649601972 261.353515625 c 0,91,92
 242.002602269 243.88671875 242.002602269 243.88671875 237.692886753 226.6953125 c 0,93,94
 236.197405134 220.728515625 236.197405134 220.728515625 235.202139896 214.7734375 c 128,-1,95
 234.206874658 208.818359375 234.206874658 208.818359375 233.711825802 202.879882812 c 128,-1,96
 233.21574344 196.942382812 233.21574344 196.942382812 233.21574344 191 c 0,97,98
 233.21574344 155.177734375 233.21574344 155.177734375 259.432662741 137.666015625 c 0,99,100
 287.377602269 119 287.377602269 119 327.405247813 119 c 0,101,102
 335.682588716 119 335.682588716 119 343.595102382 119.779296875 c 128,-1,103
 351.507616049 120.557617188 351.507616049 120.557617188 359.023263826 122.102539062 c 128,-1,104
 366.537878098 123.6484375 366.537878098 123.6484375 373.73107234 125.96484375 c 0,105,106
 395.099820062 132.848632812 395.099820062 132.848632812 411.552184881 146.108398438 c 0,107,108
 415.656232917 149.416015625 415.656232917 149.416015625 419.321041363 153.017578125 c 128,-1,109
 422.985849809 156.620117188 422.985849809 156.620117188 426.228988247 160.53515625 c 128,-1,110
 429.472126685 164.450195312 429.472126685 164.450195312 432.292561612 168.6796875 c 128,-1,111
 435.114030043 172.908203125 435.114030043 172.908203125 437.528297536 177.471679688 c 0,112,79
 442.249348009 186.39453125 442.249348009 186.39453125 444.622275305 196.481445312 c 128,-1,80
363.066335072 584.556640625 m 128,-1,114
 336.930029155 558.961914062 336.930029155 558.961914062 336.930029155 521 c 0,115,116
 336.930029155 487.020507812 336.930029155 487.020507812 358.854802524 465.421875 c 128,-1,117
 380.760972804 443.841796875 380.760972804 443.841796875 411.62969775 425.390625 c 1,118,119
 475.796917707 455.267578125 475.796917707 455.267578125 496.985835573 484.633789062 c 0,120,121
 518.959183673 515.084960938 518.959183673 515.084960938 518.959183673 544 c 0,122,123
 518.959183673 577.290039062 518.959183673 577.290039062 498.460647094 593.290039062 c 0,124,125
 477.053659689 610 477.053659689 610 436.411078717 610 c 0,126,113
 389.048648756 610 389.048648756 610 363.066335072 584.556640625 c 128,-1,114
EndSplineSet
Substitution2: "'ss02' Style Set 2 lookup 15 subtable" eightsuperior
Substitution2: "'sinf' Scientific Inferiors lookup 11 subtable" eight.sinf
Substitution2: "'subs' Subscript lookup 10 subtable" eight.sinf
Substitution2: "'sups' Superscript lookup 9 subtable" eight.sups
Substitution2: "'dnom' Denominators lookup 8 subtable" eightinferior
Substitution2: "'numr' Numerators lookup 6 subtable" eightsuperior
EndChar

StartChar: nine
Encoding: 57 57 28
Width: 628
VWidth: 1177
Flags: W
LayerCount: 2
Fore
SplineSet
348.600448224 397.3984375 m 128,-1,1
 366.387349845 393 366.387349845 393 387.22980957 393 c 0,2,3
 414.572819379 393 414.572819379 393 445.12013657 399.43359375 c 0,4,5
 472.899064405 405.284179688 472.899064405 405.284179688 498.960144664 414.41015625 c 1,6,7
 501.608708214 423.642578125 501.608708214 423.642578125 503.550712688 432.21484375 c 128,-1,8
 505.492717163 440.787109375 505.492717163 440.787109375 506.869680974 449.280273438 c 0,9,10
 509.931436964 468.165039062 509.931436964 468.165039062 509.931436964 489.4296875 c 0,11,12
 509.931436964 538.126953125 509.931436964 538.126953125 485.228726856 572.01953125 c 0,13,14
 461.918475275 604 461.918475275 604 411.558580519 604 c 0,15,16
 383.294151565 604 383.294151565 604 361.088156784 596.047851562 c 128,-1,17
 338.882162003 588.096679688 338.882162003 588.096679688 321.878260059 572.090820312 c 0,18,19
 310.731360971 561.598632812 310.731360971 561.598632812 303.210225557 547.392578125 c 128,-1,20
 295.689090142 533.186523438 295.689090142 533.186523438 291.744135308 514.525390625 c 128,-1,21
 287.799180474 495.864257812 287.799180474 495.864257812 287.799180474 473.19921875 c 0,22,23
 287.799180474 457.079101562 287.799180474 457.079101562 291.134676457 444.719726562 c 128,-1,24
 294.469139459 432.359375 294.469139459 432.359375 300.580255667 424.1015625 c 128,-1,25
 306.692404857 415.842773438 306.692404857 415.842773438 315.74751721 410.5703125 c 0,26,0
 330.814579585 401.796875 330.814579585 401.796875 348.600448224 397.3984375 c 128,-1,1
353.014376479 267.037109375 m 128,-1,28
 340.46159011 266 340.46159011 266 329.052313822 266 c 0,29,30
 286.034848749 266 286.034848749 266 248.930167513 277.791992188 c 0,31,32
 244.244565227 279.280273438 244.244565227 279.280273438 239.691184523 280.9765625 c 128,-1,33
 235.137803819 282.671875 235.137803819 282.671875 230.71974364 284.571289062 c 128,-1,34
 226.302716441 286.471679688 226.302716441 286.471679688 222.019976786 288.576171875 c 128,-1,35
 217.737237131 290.681640625 217.737237131 290.681640625 213.593949925 292.989257812 c 128,-1,36
 209.4516957 295.296875 209.4516957 295.296875 205.446827962 297.80859375 c 128,-1,37
 201.440927243 300.3203125 201.440927243 300.3203125 197.580676859 303.032226562 c 128,-1,38
 193.719393494 305.744140625 193.719393494 305.744140625 189.99859556 308.658203125 c 128,-1,39
 186.278830606 311.573242188 186.278830606 311.573242188 182.831054688 314.685546875 c 0,40,41
 169.279296875 327.17578125 169.279296875 327.17578125 158.66796875 342.633789062 c 128,-1,42
 148.055664062 358.091796875 148.055664062 358.091796875 140.427734375 376.37890625 c 0,43,44
 125.184570312 412.921875 125.184570312 412.921875 125.184570312 461.848632812 c 0,45,46
 125.184570312 496.01953125 125.184570312 496.01953125 130.862304688 526.59765625 c 128,-1,47
 136.540039062 557.17578125 136.540039062 557.17578125 147.94921875 584.090820312 c 0,48,49
 170.791992188 637.98046875 170.791992188 637.98046875 211.878168312 673.712890625 c 0,50,51
 253.64572625 709.327148438 253.64572625 709.327148438 308.545572956 727.623046875 c 0,52,53
 326.750831924 733.690429688 326.750831924 733.690429688 345.58207744 737.73828125 c 128,-1,54
 364.412289975 741.87109375 364.412289975 741.87109375 383.815807023 743.935546875 c 128,-1,55
 403.218291089 746 403.218291089 746 423.194079668 746 c 0,56,57
 475.948424622 746 475.948424622 746 522.750732458 729.267578125 c 0,58,59
 568.842773438 712.424804688 568.842773438 712.424804688 601.865234375 679.237304688 c 0,60,61
 618.3828125 662.638671875 618.3828125 662.638671875 631.190429688 642.143554688 c 128,-1,62
 643.998046875 621.647460938 643.998046875 621.647460938 653.080078125 597.3828125 c 0,63,64
 671.184570312 549.01171875 671.184570312 549.01171875 671.184570312 486.900390625 c 0,65,66
 671.184570312 440.315429688 671.184570312 440.315429688 663.291992188 394.930664062 c 128,-1,67
 655.399414062 349.545898438 655.399414062 349.545898438 639.62890625 305.443359375 c 0,68,69
 607.919921875 216.771484375 607.919921875 216.771484375 540.345499594 148.040039062 c 0,70,71
 532.465919737 140.395507812 532.465919737 140.395507812 524.130795213 133.078125 c 128,-1,72
 515.795670689 125.760742188 515.795670689 125.760742188 507.017397271 118.778320312 c 128,-1,73
 498.239123854 111.795898438 498.239123854 111.795898438 489.007371732 105.139648438 c 128,-1,74
 479.776652592 98.4833984375 479.776652592 98.4833984375 470.105883501 92.162109375 c 128,-1,75
 460.434081429 85.8408203125 460.434081429 85.8408203125 450.312932578 79.845703125 c 128,-1,76
 440.191783726 73.8505859375 440.191783726 73.8505859375 429.632650886 68.189453125 c 128,-1,77
 419.074551027 62.5283203125 419.074551027 62.5283203125 408.06813737 57.193359375 c 128,-1,78
 397.062756694 51.859375 397.062756694 51.859375 385.621457992 46.857421875 c 128,-1,79
 374.181192271 41.85546875 374.181192271 41.85546875 362.296744675 37.1806640625 c 0,80,81
 308.553836805 16.0419921875 308.553836805 16.0419921875 244.706307781 5.5205078125 c 0,82,83
 181.084960938 -5 181.084960938 -5 111.184570312 -5 c 0,84,85
 104.958007812 -5 104.958007812 -5 93.73046875 -4.4892578125 c 0,86,87
 81.5625 -3.9365234375 81.5625 -3.9365234375 73.4375 -1.615234375 c 2,88,-1
 65 0.7958984375 l 1,89,-1
 66.2939453125 9.474609375 l 1,90,-1
 83.2939453125 123.474609375 l 1,91,-1
 84.5654296875 132 l 1,92,-1
 93.1845703125 132 l 2,93,94
 153.4921875 132 153.4921875 132 211.768672315 139.35546875 c 0,95,96
 271.070051503 146.614257812 271.070051503 146.614257812 322.031141262 166.9921875 c 0,97,98
 372.64514937 187.231445312 372.64514937 187.231445312 413.070864854 222.794921875 c 0,99,100
 444.478655305 251.206054688 444.478655305 251.206054688 467.310636635 294.235351562 c 1,101,102
 437.653749154 281.494140625 437.653749154 281.494140625 407.480371122 275.232421875 c 0,103,104
 392.703576437 272.166015625 392.703576437 272.166015625 379.135369643 270.120117188 c 128,-1,27
 365.566129868 268.07421875 365.566129868 268.07421875 353.014376479 267.037109375 c 128,-1,28
EndSplineSet
Substitution2: "'ss02' Style Set 2 lookup 15 subtable" ninesuperior
Substitution2: "'sinf' Scientific Inferiors lookup 11 subtable" nine.sinf
Substitution2: "'subs' Subscript lookup 10 subtable" nine.sinf
Substitution2: "'sups' Superscript lookup 9 subtable" nine.sups
Substitution2: "'dnom' Denominators lookup 8 subtable" nineinferior
Substitution2: "'numr' Numerators lookup 6 subtable" ninesuperior
EndChar

StartChar: less
Encoding: 60 60 31
Width: 588
VWidth: 1177
Flags: W
LayerCount: 2
Fore
SplineSet
116.419005277 376.33683441 m 1,0,-1
 614.419005277 567.33683441 l 1,1,-1
 626.834097076 572.098445923 l 1,2,-1
 627.963841082 558.84962986 l 1,3,-1
 638.963841082 429.84962986 l 1,4,-1
 639.623936739 422.108508061 l 1,5,-1
 632.28620984 419.555381168 l 1,6,-1
 290.72868156 300.712076807 l 1,7,-1
 568.179056082 173.084904527 l 1,8,-1
 577.832569007 168.644288581 l 1,9,-1
 572.8147997 159.277785875 l 1,10,-1
 512.8147997 47.2777858748 l 1,11,-1
 508.286169029 38.8243419552 l 1,12,-1
 499.650675812 42.9953690186 l 1,13,-1
 87.6506758124 241.995369019 l 1,14,-1
 80.386224451 245.504169555 l 1,15,-1
 82.2791779143 253.346405331 l 1,16,-1
 110.279177914 369.346405331 l 1,17,-1
 111.512271129 374.454934365 l 1,18,-1
 116.419005277 376.33683441 l 1,0,-1
EndSplineSet
EndChar

StartChar: equal
Encoding: 61 61 32
Width: 588
VWidth: 1177
Flags: W
LayerCount: 2
Fore
SplineSet
548 124 m 1,0,-1
 53 124 l 1,1,-1
 40.3980521328 124 l 1,2,-1
 43.2615879026 136.272296156 l 1,3,-1
 71.2615879026 256.272296156 l 1,4,-1
 73.0647187995 264 l 1,5,-1
 81 264 l 1,6,-1
 576 264 l 1,7,-1
 588.601947867 264 l 1,8,-1
 585.738412097 251.727703844 l 1,9,-1
 557.738412097 131.727703844 l 1,10,-1
 555.9352812 124 l 1,11,-1
 548 124 l 1,0,-1
602 354 m 1,12,-1
 107 354 l 1,13,-1
 94.192235936 354 l 1,14,-1
 97.2985749985 366.42535625 l 1,15,-1
 127.298574999 486.42535625 l 1,16,-1
 129.192235936 494 l 1,17,-1
 137 494 l 1,18,-1
 630 494 l 1,19,-1
 642.601947867 494 l 1,20,-1
 639.738412097 481.727703844 l 1,21,-1
 611.738412097 361.727703844 l 1,22,-1
 609.9352812 354 l 1,23,-1
 602 354 l 1,12,-1
EndSplineSet
EndChar

StartChar: greater
Encoding: 62 62 33
Width: 588
VWidth: 1177
Flags: W
LayerCount: 2
Fore
SplineSet
574.580994723 233.66316559 m 1,0,-1
 76.5809947233 42.6631655904 l 1,1,-1
 64.1659029237 37.9015540769 l 1,2,-1
 63.0361589183 51.1503701403 l 1,3,-1
 52.0361589183 180.15037014 l 1,4,-1
 51.3771445988 187.878810796 l 1,5,-1
 58.6987934609 190.439387448 l 1,6,-1
 401.187188445 310.216749628 l 1,7,-1
 122.857414687 436.898407451 l 1,8,-1
 113.147225811 441.317995079 l 1,9,-1
 118.1852003 450.722214125 l 1,10,-1
 178.1852003 562.722214125 l 1,11,-1
 182.709532775 571.167634745 l 1,12,-1
 191.340779389 567.008753204 l 1,13,-1
 604.340779389 368.008753204 l 1,14,-1
 611.676313563 364.474197997 l 1,15,-1
 609.701425001 356.57464375 l 1,16,-1
 580.701425001 240.57464375 l 1,17,-1
 579.439396162 235.526528391 l 1,18,-1
 574.580994723 233.66316559 l 1,0,-1
EndSplineSet
EndChar

StartChar: question
Encoding: 63 63 34
Width: 588
VWidth: 1177
Flags: W
LayerCount: 2
Fore
SplineSet
395 614 m 0,0,1
 357.761749777 614 357.761749777 614 326.417430631 602.602065765 c 0,2,3
 310.099236848 596.668177117 310.099236848 596.668177117 290.477900164 588.720325748 c 256,4,5
 270.856563479 580.772474379 270.856563479 580.772474379 247.987261114 570.829299437 c 2,6,-1
 236.188393557 565.699357021 l 1,7,-1
 234.128945223 578.399288414 l 1,8,-1
 216.128945223 689.399288414 l 1,9,-1
 214.992049277 696.410146745 l 1,10,-1
 221.237168515 699.792919665 l 2,11,12
 245.724052017 713.056648229 245.724052017 713.056648229 271.249285824 723.394367127 c 256,13,14
 296.774519631 733.732086025 296.774519631 733.732086025 323.314008712 741.13252048 c 0,15,16
 376.6318663 756 376.6318663 756 435 756 c 0,17,18
 488.644436538 756 488.644436538 756 525.702277986 743.473405708 c 0,19,20
 563.132596287 730.820903747 563.132596287 730.820903747 587.653705248 708.965132717 c 0,21,22
 595.864491148 701.646823544 595.864491148 701.646823544 602.632002502 693.498809148 c 256,23,24
 609.399513857 685.350794752 609.399513857 685.350794752 614.715380465 676.358942508 c 256,25,26
 620.031247073 667.367090263 620.031247073 667.367090263 623.820046715 657.624462612 c 0,27,28
 635 628.876011308 635 628.876011308 635 595 c 0,29,30
 635 558.186654182 635 558.186654182 623.863291776 528.488765584 c 0,31,32
 621.662172878 522.619115191 621.662172878 522.619115191 619.143033816 516.931185257 c 256,33,34
 616.623894753 511.243255323 616.623894753 511.243255323 613.78779885 505.739857956 c 256,35,36
 610.951702948 500.23646059 610.951702948 500.23646059 607.800815594 494.921239943 c 256,37,38
 604.649928239 489.606019296 604.649928239 489.606019296 601.183400226 484.478878945 c 256,39,40
 597.716872212 479.351738593 597.716872212 479.351738593 593.93878146 474.419231222 c 0,41,42
 575.235337849 450.000846508 575.235337849 450.000846508 549.340795882 428.767322095 c 0,43,44
 536.741665632 418.43603529 536.741665632 418.43603529 523.013193952 408.138985686 c 256,45,46
 509.284722273 397.841936082 509.284722273 397.841936082 494.816463562 387.863826626 c 0,47,48
 468.009812455 368.007048028 468.009812455 368.007048028 449.066733194 353.55048754 c 0,49,50
 430.670898158 339.511560802 430.670898158 339.511560802 417.698442954 326.058644294 c 0,51,52
 411.338259104 319.46289808 411.338259104 319.46289808 405.943431664 312.426171509 c 256,53,54
 400.548604223 305.389444938 400.548604223 305.389444938 396.098547438 297.894612458 c 0,55,56
 387.18247142 282.878063374 387.18247142 282.878063374 380.5292578 261.967963427 c 2,57,-1
 378.312178528 255 l 1,58,-1
 371 255 l 1,59,-1
 237 255 l 1,60,-1
 225.409374767 255 l 1,61,-1
 227.107965376 266.465486611 l 2,62,63
 231.266833415 294.537845874 231.266833415 294.537845874 240.948159846 319.525977645 c 256,64,65
 250.629486276 344.514109416 250.629486276 344.514109416 265.803043815 366.227993479 c 0,66,67
 295.792381462 409.143769768 295.792381462 409.143769768 363.098750383 457.074062787 c 0,68,69
 391.016460836 478.012345627 391.016460836 478.012345627 410.532972337 492.524623409 c 0,70,71
 429.109492471 506.337933253 429.109492471 506.337933253 439.366137146 518.459422415 c 0,72,73
 449.339019208 530.245555761 449.339019208 530.245555761 454.239076402 542.272968873 c 0,74,75
 456.582044887 548.023891517 456.582044887 548.023891517 457.791022443 554.947536123 c 256,76,77
 459 561.87118073 459 561.87118073 459 570 c 0,78,79
 459 614 459 614 395 614 c 0,0,1
287 193 m 0,80,81
 328.773478005 193 328.773478005 193 356.606278949 168.507135169 c 0,82,83
 385 143.520660644 385 143.520660644 385 95 c 0,84,85
 385 68.8036315612 385 68.8036315612 375.079593845 47.3094182254 c 0,86,87
 370.218610129 36.7772868402 370.218610129 36.7772868402 363.703377753 27.4116482966 c 256,88,89
 357.188145377 18.046009753 357.188145377 18.046009753 349.071067812 9.92893218813 c 0,90,91
 332.721244317 -6.42089130644 332.721244317 -6.42089130644 312.469111507 -15.1785703596 c 256,92,93
 292.069555463 -24 292.069555463 -24 269 -24 c 0,94,95
 228.218954602 -24 228.218954602 -24 199.883783629 1.00162144635 c 0,96,97
 171 26.4873128838 171 26.4873128838 171 74 c 0,98,99
 171 101.146346888 171 101.146346888 180.880784948 123.103646773 c 0,100,101
 185.766421211 133.960616246 185.766421211 133.960616246 192.352991059 143.291531389 c 256,102,103
 198.939560907 152.622446532 198.939560907 152.622446532 207.176817496 160.310552682 c 0,104,105
 223.478459992 175.525419011 223.478459992 175.525419011 244.119429999 184.216353751 c 0,106,107
 264.98058984 193 264.98058984 193 287 193 c 0,80,81
EndSplineSet
EndChar

StartChar: at
Encoding: 64 64 35
Width: 588
VWidth: 1177
Flags: W
LayerCount: 2
Fore
SplineSet
369 -47 m 0,0,1
 418.91136164 -47 418.91136164 -47 447.34822469 -40.7342505145 c 0,2,3
 450.266348707 -40.091274036 450.266348707 -40.091274036 453.018927395 -39.4763199019 c 256,4,5
 455.771506083 -38.8613657678 455.771506083 -38.8613657678 458.3049927 -38.2865540954 c 256,6,7
 460.838479318 -37.711742423 460.838479318 -37.711742423 463.196366747 -37.1677195271 c 256,8,9
 465.554254176 -36.6236966313 465.554254176 -36.6236966313 467.695298097 -36.1198009081 c 256,10,11
 469.836342019 -35.615905185 469.836342019 -35.615905185 471.790912733 -35.1457501186 c 256,12,13
 473.745483446 -34.6755950523 473.745483446 -34.6755950523 475.485459215 -34.2455518697 c 256,14,15
 477.225434984 -33.8155086871 477.225434984 -33.8155086871 478.768063526 -33.4221580415 c 256,16,17
 480.310692067 -33.028807396 480.310692067 -33.028807396 481.640974227 -32.6755533452 c 256,18,19
 482.971256387 -32.3222992944 482.971256387 -32.3222992944 484.093317299 -32.0086896609 c 256,20,21
 485.215378212 -31.6950800274 485.215378212 -31.6950800274 486.126521144 -31.4217371478 c 2,22,-1
 500.110992942 -27.2263956084 l 1,23,-1
 498.969383778 -41.7819124532 l 1,24,-1
 490.969383778 -143.781912453 l 1,25,-1
 490.393002583 -151.130772696 l 1,26,-1
 483.202608714 -152.754410021 l 2,27,28
 475.351026219 -154.527348003 475.351026219 -154.527348003 467.436470442 -156.141916711 c 256,29,30
 459.521914664 -157.756485418 459.521914664 -157.756485418 451.545583545 -159.212464409 c 256,31,32
 443.569252425 -160.668443399 443.569252425 -160.668443399 435.531186159 -161.965933155 c 256,33,34
 427.493119894 -163.26342291 427.493119894 -163.26342291 419.392548314 -164.402565788 c 0,35,36
 386.699682809 -169 386.699682809 -169 352 -169 c 0,37,38
 208.572647449 -169 208.572647449 -169 131.596490213 -84.2222052057 c 0,39,40
 93.0288596744 -41.745693194 93.0288596744 -41.745693194 74.0144298372 22.6291728126 c 256,41,42
 55 87.0040388192 55 87.0040388192 55 173 c 0,43,44
 55 298.339180837 55 298.339180837 83.8523617876 404.131174058 c 0,45,46
 112.787407477 510.226341586 112.787407477 510.226341586 165.712761175 588.596576869 c 0,47,48
 218.950686292 667.429658292 218.950686292 667.429658292 292.346232291 711.569637005 c 0,49,50
 366.224626573 756 366.224626573 756 455 756 c 0,51,52
 509.523517238 756 509.523517238 756 550.181343331 743.844772799 c 256,53,54
 590.839169425 731.689545598 590.839169425 731.689545598 617.346754617 706.788480721 c 256,55,56
 643.766237629 681.970178497 643.766237629 681.970178497 656.883118814 646.329002496 c 256,57,58
 670 610.687826495 670 610.687826495 670 565 c 0,59,60
 670 562.443925808 670 562.443925808 669.942171984 559.822277446 c 256,61,62
 669.884343968 557.200629083 669.884343968 557.200629083 669.769145889 554.52069516 c 256,63,64
 669.653947809 551.840761237 669.653947809 551.840761237 669.481183525 549.09409406 c 256,65,66
 669.30841924 546.347426882 669.30841924 546.347426882 669.07898648 543.542570603 c 256,67,68
 668.849553719 540.737714324 668.849553719 540.737714324 668.562787246 537.864882002 c 256,69,70
 668.276020773 534.99204968 668.276020773 534.99204968 667.933287411 532.061124716 c 256,71,72
 667.590554049 529.130199753 667.590554049 529.130199753 667.190719468 526.130055959 c 256,73,74
 666.790884886 523.129912164 666.790884886 523.129912164 666.335785003 520.071772188 c 256,75,76
 665.88068512 517.013632211 665.88068512 517.013632211 665.368745829 513.885114319 c 0,77,78
 660.816566863 486.066242857 660.816566863 486.066242857 654.734828541 459.712043463 c 2,79,-1
 559.725427417 62.6727566633 l 1,80,-1
 558.432558967 57.2699274551 l 1,81,-1
 553.16227766 55.5131670195 l 2,82,83
 541.93499922 51.7707408729 541.93499922 51.7707408729 530.425594655 48.5391312291 c 256,84,85
 518.91619009 45.3075215852 518.91619009 45.3075215852 507.137425123 42.5893895583 c 256,86,87
 495.358660157 39.8712575314 495.358660157 39.8712575314 483.301044696 37.6635251231 c 0,88,89
 446.907945947 31 446.907945947 31 416 31 c 0,90,91
 376.42700505 31 376.42700505 31 343.929972201 41.4829138224 c 0,92,93
 310.634464055 52.2234003209 310.634464055 52.2234003209 286.428932188 76.4289321881 c 256,94,95
 262.322283042 100.535581334 262.322283042 100.535581334 249.067646608 138.178748806 c 0,96,97
 236 175.290865174 236 175.290865174 236 227 c 0,98,99
 236 282.286747597 236 282.286747597 250.325750364 337.031579344 c 0,100,101
 257.539374229 364.597927685 257.539374229 364.597927685 268.668185772 389.055378861 c 256,102,103
 279.796997315 413.512830037 279.796997315 413.512830037 294.835843605 434.774647206 c 256,104,105
 309.916626682 456.095754315 309.916626682 456.095754315 328.691157638 473.566501396 c 256,106,107
 347.465688594 491.037248477 347.465688594 491.037248477 369.825806611 504.557319836 c 0,108,109
 392.538541232 518.290601235 392.538541232 518.290601235 418.902308176 525.145300617 c 256,110,111
 445.26607512 532 445.26607512 532 475 532 c 0,112,113
 485.496462039 532 485.496462039 532 495.022123623 531.073942041 c 256,114,115
 504.547785206 530.147884082 504.547785206 530.147884082 513.136968788 528.269000174 c 0,116,117
 517.007649913 527.422288678 517.007649913 527.422288678 521.241720926 526.389346164 c 256,118,119
 525.475791938 525.356403649 525.475791938 525.356403649 528.063219133 524.655642118 c 1,120,121
 529.937264802 532.693215765 529.937264802 532.693215765 531.087720993 541.321637201 c 0,122,123
 533 555.663729752 533 555.663729752 533 564 c 0,124,125
 533 596.351309741 533 596.351309741 511.054027475 614.854776772 c 0,126,127
 488.346902251 634 488.346902251 634 449 634 c 0,128,129
 396.824452066 634 396.824452066 634 348.731555268 604.477627708 c 0,130,131
 300.217484357 574.696712892 300.217484357 574.696712892 263.95995317 517.168096741 c 0,132,133
 227.290626987 458.986099198 227.290626987 458.986099198 205.680992928 375.494331242 c 0,134,135
 194.856939053 333.674123089 194.856939053 333.674123089 189.428469527 286.54554347 c 256,136,137
 184 239.416963852 184 239.416963852 184 187 c 0,138,139
 184 123.018517132 184 123.018517132 196.53496149 77.8402180223 c 256,140,141
 209.06992298 32.6619189122 209.06992298 32.6619189122 233.358012193 6.27197582404 c 0,142,143
 282.387087288 -47 282.387087288 -47 369 -47 c 0,0,1
428 163 m 2,144,-1
 438 163 l 2,145,146
 439.161248088 163 439.161248088 163 440.663784147 163.143098672 c 2,147,-1
 496.467950156 396.763929255 l 1,148,149
 492.308798693 398.009801202 492.308798693 398.009801202 488.185826181 398.504900601 c 256,150,151
 484.062853669 399 484.062853669 399 478 399 c 0,152,153
 450.312616604 399 450.312616604 399 431.470107693 384.977667787 c 0,154,155
 424.929716311 380.110399782 424.929716311 380.110399782 419.213466602 374.248426561 c 256,156,157
 413.497216893 368.386453341 413.497216893 368.386453341 408.527714316 361.417466068 c 256,158,159
 403.55821174 354.448478795 403.55821174 354.448478795 399.374960768 346.391847294 c 0,160,161
 386.520861347 321.635803965 386.520861347 321.635803965 380.299873196 291.009400757 c 0,162,163
 374 259.994640408 374 259.994640408 374 229 c 0,164,165
 374 194.736035797 374 194.736035797 388.050331184 178.556866554 c 0,166,167
 401.560241613 163 401.560241613 163 428 163 c 2,144,-1
EndSplineSet
Substitution2: "'case' Case-Sensitive Forms lookup 17 subtable" At
EndChar

StartChar: A
Encoding: 65 65 36
Width: 628
VWidth: 1177
Flags: W
LayerCount: 2
Fore
SplineSet
437.960558252 10.2353515625 m 1,0,-1
 441.931972817 170 l 1,1,-1
 240.874596328 170 l 1,2,3
 231.852499951 150.971679688 231.852499951 150.971679688 223.062559531 132.145507812 c 128,-1,4
 214.273650914 113.318359375 214.273650914 113.318359375 205.162819372 93.5087890625 c 0,5,6
 185.723627269 51.2431640625 185.723627269 51.2431640625 167.850714021 6.4658203125 c 2,7,-1
 165.270171588 0 l 1,8,-1
 157.967061094 0 l 1,9,-1
 8.5595703125 0 l 1,10,-1
 -7 0 l 1,11,-1
 -0.537109375 13.7734375 l 2,12,13
 99.537109375 227.045898438 99.537109375 227.045898438 197.149827553 405.336914062 c 0,14,15
 295.598398426 583.758789062 295.598398426 583.758789062 388.791990245 724.21484375 c 2,16,-1
 391.882243979 729 l 1,17,-1
 397.807895797 729 l 1,18,-1
 557.559570312 729 l 1,19,-1
 566.474609375 729 l 1,20,-1
 567.494140625 720.143554688 l 2,21,22
 583.525390625 584.681640625 583.525390625 584.681640625 593.5390625 433.7109375 c 128,-1,23
 603.553710938 282.7265625 603.553710938 282.7265625 606.559570312 112.20703125 c 2,24,-1
 606.559570312 10 l 1,25,-1
 606.559570312 0 l 1,26,-1
 596.559570312 0 l 1,27,-1
 448.523138377 0 l 1,28,-1
 437.705702602 0 l 1,29,-1
 437.960558252 10.2353515625 l 1,0,-1
440.612295179 533.483398438 m 0,30,31
 440.082979598 543.17578125 440.082979598 543.17578125 439.596999796 553.067382812 c 1,32,33
 432.869636074 540.87890625 432.869636074 540.87890625 426.175290089 528.842773438 c 0,34,35
 420.918247427 519.387695312 420.918247427 519.387695312 415.423889786 509.264648438 c 128,-1,36
 409.929532146 499.141601562 409.929532146 499.141601562 404.195795919 488.342773438 c 128,-1,37
 398.462059692 477.543945312 398.462059692 477.543945312 392.493072096 466.080078125 c 0,38,39
 374.568568636 431.650390625 374.568568636 431.650390625 351.870938706 386.689453125 c 0,40,41
 331.967434691 347.260742188 331.967434691 347.260742188 307.453829278 296 c 1,42,-1
 445.518524396 296 l 1,43,44
 446.363572078 349.875976562 446.363572078 349.875976562 445.881719493 390.888671875 c 0,45,46
 445.750680353 402.104492188 445.750680353 402.104492188 445.552573937 412.666015625 c 128,-1,47
 445.355499324 423.227539062 445.355499324 423.227539062 445.09238924 433.124023438 c 128,-1,48
 444.829279156 443.021484375 444.829279156 443.021484375 444.501165404 452.255859375 c 128,-1,49
 444.172019848 461.491210938 444.172019848 461.491210938 443.777870624 470.065429688 c 0,50,51
 442.195082901 504.524414062 442.195082901 504.524414062 440.612295179 533.483398438 c 0,30,31
EndSplineSet
EndChar

StartChar: B
Encoding: 66 66 37
Width: 628
VWidth: 1177
Flags: W
LayerCount: 2
Fore
SplineSet
421.785994529 9.3623046875 m 0,0,1
 351.86075508 -9 351.86075508 -9 260.794824037 -9 c 0,2,3
 241.593239183 -9 241.593239183 -9 216.065614655 -7.9912109375 c 0,4,5
 203.216844183 -7.4833984375 203.216844183 -7.4833984375 189.592636973 -6.470703125 c 128,-1,6
 175.968429764 -5.45703125 175.968429764 -5.45703125 161.790039062 -3.9384765625 c 0,7,8
 134.537109375 -0.9111328125 134.537109375 -0.9111328125 106.307617188 3.626953125 c 0,9,10
 77.572265625 8.1201171875 77.572265625 8.1201171875 54.8623046875 15.1513671875 c 2,11,-1
 46 17.89453125 l 1,12,-1
 48.169921875 26.6943359375 l 1,13,-1
 218.904763504 707.807617188 l 1,14,-1
 220.397968376 713.544921875 l 1,15,-1
 226.60146227 714.9765625 l 2,16,17
 252.396833879 720.926757812 252.396833879 720.926757812 280.837752601 724.887695312 c 0,18,19
 308.946047066 728.911132812 308.946047066 728.911132812 336.014247103 731.931640625 c 0,20,21
 349.646692684 733.452148438 349.646692684 733.452148438 362.760120847 734.467773438 c 128,-1,22
 375.872519214 735.482421875 375.872519214 735.482421875 388.468989553 735.991210938 c 128,-1,23
 400.963510042 736.495117188 400.963510042 736.495117188 411.743419419 736.748046875 c 128,-1,24
 422.524358593 737 422.524358593 737 431.625699735 737 c 0,25,26
 486.611681892 737 486.611681892 737 531.020624574 727.2421875 c 0,27,28
 553.525390625 722.423828125 553.525390625 722.423828125 572.057617188 714.624023438 c 128,-1,29
 590.588867188 706.823242188 590.588867188 706.823242188 606.193359375 696.016601562 c 0,30,31
 637.697265625 674.198242188 637.697265625 674.198242188 655.310546875 640.4453125 c 128,-1,32
 672.89453125 606.75 672.89453125 606.75 672.89453125 559.668945312 c 0,33,34
 672.89453125 546.125976562 672.89453125 546.125976562 671.012695312 532.833984375 c 128,-1,35
 669.130859375 519.541992188 669.130859375 519.541992188 665.384765625 506.571289062 c 128,-1,36
 661.638671875 493.600585938 661.638671875 493.600585938 656.043945312 480.948242188 c 128,-1,37
 650.448242188 468.296875 650.448242188 468.296875 643.015625 455.990234375 c 0,38,39
 634.120117188 441.262695312 634.120117188 441.262695312 620.782226562 428.133789062 c 128,-1,40
 607.4453125 415.004882812 607.4453125 415.004882812 590.541992188 403.96875 c 128,-1,41
 573.639648438 392.93359375 573.639648438 392.93359375 552.89453125 383.5390625 c 1,42,43
 590.506835938 361.68359375 590.506835938 361.68359375 609.770507812 332.947265625 c 0,44,45
 621.901367188 314.850585938 621.901367188 314.850585938 627.897460938 292.422851562 c 128,-1,46
 633.89453125 269.994140625 633.89453125 269.994140625 633.89453125 243.477539062 c 0,47,48
 633.89453125 185.793945312 633.89453125 185.793945312 610.897460938 139.520507812 c 128,-1,49
 587.809570312 93.0654296875 587.809570312 93.0654296875 540.65951947 60.013671875 c 0,50,51
 516.343965379 43.62890625 516.343965379 43.62890625 486.615801078 30.9794921875 c 128,-1,52
 456.887636776 18.3310546875 456.887636776 18.3310546875 421.785994529 9.3623046875 c 0,0,1
358.864400827 310 m 2,53,-1
 285.989824307 310 l 1,54,-1
 240.022799576 137.278320312 l 1,55,56
 245.365383628 136.736328125 245.365383628 136.736328125 250.936582494 136.283203125 c 128,-1,57
 256.508811157 135.830078125 256.508811157 135.830078125 263.145849362 135.39453125 c 0,58,59
 284.379222639 134 284.379222639 134 315.629426113 134 c 0,60,61
 326.021102224 134 326.021102224 134 338.128419242 130.512695312 c 128,-1,62
 350.235736261 127.026367188 350.235736261 127.026367188 363.957774134 120 c 0,63,64
 390.775733631 125.958007812 390.775733631 125.958007812 414.10165332 139.848632812 c 0,65,66
 421.656240175 144.348632812 421.656240175 144.348632812 428.446718053 150.0078125 c 128,-1,67
 435.237195932 155.66796875 435.237195932 155.66796875 441.356246517 162.598632812 c 128,-1,68
 447.475297102 169.528320312 447.475297102 169.528320312 452.877609348 177.711914062 c 0,69,70
 468.533604979 201.423828125 468.533604979 201.423828125 468.533604979 237.262695312 c 0,71,72
 468.533604979 280.33984375 468.533604979 280.33984375 441.085410047 294.276367188 c 0,73,74
 410.119430397 310 410.119430397 310 358.864400827 310 c 2,53,-1
360.234030123 592.625 m 1,75,-1
 322.546568957 447 l 1,76,-1
 356.75537767 447 l 2,77,78
 371.54119529 447 371.54119529 447 386.055146643 448.244140625 c 128,-1,79
 400.569097996 449.48828125 400.569097996 449.48828125 414.82971942 451.9765625 c 0,80,81
 428.830832134 454.418945312 428.830832134 454.418945312 441.35830611 458.385742188 c 128,-1,82
 453.884750289 462.3515625 453.884750289 462.3515625 464.994194535 467.833984375 c 0,83,84
 470.398566374 470.500976562 470.398566374 470.500976562 475.292159167 473.624023438 c 128,-1,85
 480.185751961 476.748046875 480.185751961 476.748046875 484.603578788 480.353515625 c 128,-1,86
 489.020375819 483.958984375 489.020375819 483.958984375 492.960377088 488.046875 c 128,-1,87
 496.89934856 492.134765625 496.89934856 492.134765625 500.389328774 496.731445312 c 0,88,89
 504.84525807 502.600585938 504.84525807 502.600585938 507.822399646 509.3203125 c 128,-1,90
 510.799541221 516.040039062 510.799541221 516.040039062 512.338057137 523.90625 c 128,-1,91
 513.87760285 531.7734375 513.87760285 531.7734375 513.87760285 540.670898438 c 0,92,93
 513.87760285 548.6953125 513.87760285 548.6953125 512.45648373 555.208007812 c 128,-1,94
 511.036394408 561.721679688 511.036394408 561.721679688 508.189007187 566.783203125 c 128,-1,95
 505.341619966 571.84375 505.341619966 571.84375 501.283192104 575.6171875 c 128,-1,96
 497.223734446 579.389648438 497.223734446 579.389648438 491.735949093 582.203125 c 0,97,98
 479.554486729 588.4453125 479.554486729 588.4453125 461.854345118 591.72265625 c 128,-1,99
 444.155233304 595 444.155233304 595 421.080583952 595 c 0,100,101
 401.199333432 595 401.199333432 595 383.428135865 594.536132812 c 0,102,103
 370.994373368 594.2109375 370.994373368 594.2109375 360.234030123 592.625 c 1,75,-1
EndSplineSet
EndChar

StartChar: C
Encoding: 67 67 38
Width: 628
VWidth: 1177
Flags: W
LayerCount: 2
Fore
SplineSet
424.7491222 -11.03515625 m 128,-1,1
 392.288621002 -15 392.288621002 -15 356.175732569 -15 c 0,2,3
 339.889204022 -15 339.889204022 -15 324.624972156 -13.8427734375 c 128,-1,4
 309.359707667 -12.6845703125 309.359707667 -12.6845703125 295.041358387 -10.357421875 c 128,-1,5
 280.723009108 -8.0302734375 280.723009108 -8.0302734375 267.376357987 -4.5068359375 c 128,-1,6
 254.029706866 -0.982421875 254.029706866 -0.982421875 241.711548164 3.7294921875 c 0,7,8
 217.4765625 12.896484375 217.4765625 12.896484375 198.102539062 26.1162109375 c 128,-1,9
 178.727539062 39.3349609375 178.727539062 39.3349609375 163.439453125 56.5322265625 c 128,-1,10
 148.202148438 73.671875 148.202148438 73.671875 136.940429688 94.4580078125 c 128,-1,11
 125.677734375 115.244140625 125.677734375 115.244140625 118.400390625 139.541015625 c 0,12,13
 104 187.6171875 104 187.6171875 104 244.512695312 c 0,14,15
 104 273.510742188 104 273.510742188 106.708007812 302.783203125 c 128,-1,16
 109.416015625 332.055664062 109.416015625 332.055664062 114.822265625 361.559570312 c 128,-1,17
 120.229492188 391.063476562 120.229492188 391.063476562 128.333984375 420.825195312 c 0,18,19
 152.76171875 510.51953125 152.76171875 510.51953125 202.188476562 582.466796875 c 0,20,21
 253.494808198 654.818359375 253.494808198 654.818359375 333.162698382 700.235351562 c 0,22,23
 413.439836082 746 413.439836082 746 521.131046816 746 c 0,24,25
 562.65797717 746 562.65797717 746 594.50390625 738.181640625 c 0,26,27
 624.02734375 730.545898438 624.02734375 730.545898438 647.034179688 721.854492188 c 0,28,29
 652.907226562 719.981445312 652.907226562 719.981445312 658.220703125 718.028320312 c 128,-1,30
 663.534179688 716.075195312 663.534179688 716.075195312 668.389648438 714.000976562 c 128,-1,31
 673.245117188 711.926757812 673.245117188 711.926757812 677.60546875 709.725585938 c 128,-1,32
 681.966796875 707.524414062 681.966796875 707.524414062 685.8125 705.205078125 c 0,33,34
 689.388671875 703.047851562 689.388671875 703.047851562 692.401367188 701.194335938 c 128,-1,35
 695.4140625 699.340820312 695.4140625 699.340820312 697.9921875 697.708984375 c 128,-1,36
 700.5703125 696.077148438 700.5703125 696.077148438 702.666015625 694.692382812 c 128,-1,37
 704.762695312 693.30859375 704.762695312 693.30859375 706.401367188 692.155273438 c 2,38,-1
 712.396484375 687.936523438 l 1,39,-1
 709.0078125 682.000976562 l 1,40,-1
 655.0078125 583.452148438 l 1,41,-1
 649.727539062 572.5 l 1,42,-1
 640 579.794921875 l 2,43,44
 628.564453125 588.372070312 628.564453125 588.372070312 615.2734375 595.67578125 c 128,-1,45
 601.982421875 602.979492188 601.982421875 602.979492188 586.490913949 609 c 0,46,47
 571.011896517 604.567382812 571.011896517 604.567382812 550.384221253 602.283203125 c 128,-1,48
 529.757578612 600 529.757578612 600 504.212553047 600 c 0,49,50
 446.63453217 600 446.63453217 600 404.607812327 569.05859375 c 0,51,52
 382.964036119 553.124023438 382.964036119 553.124023438 364.72585027 532.880859375 c 128,-1,53
 346.486631798 512.637695312 346.486631798 512.637695312 331.614796638 487.986328125 c 0,54,55
 324.139639388 475.595703125 324.139639388 475.595703125 317.628951936 462.55859375 c 128,-1,56
 311.118264484 449.522460938 311.118264484 449.522460938 305.563785847 435.819335938 c 128,-1,57
 300.010339834 422.116210938 300.010339834 422.116210938 295.41826575 407.743164062 c 128,-1,58
 290.826191666 393.370117188 290.826191666 393.370117188 287.199620003 378.3359375 c 0,59,60
 272.640669586 317.971679688 272.640669586 317.971679688 272.640669586 260.5078125 c 0,61,62
 272.640669586 231 272.640669586 231 279.197825068 207.2109375 c 0,63,64
 285.558782198 184.135742188 285.558782198 184.135742188 299.630334602 166.97265625 c 0,65,66
 306.468363517 158.631835938 306.468363517 158.631835938 315.522401198 152.234375 c 128,-1,67
 324.575406256 145.8359375 324.575406256 145.8359375 336.093282202 141.265625 c 0,68,69
 359.445016705 132 359.445016705 132 395.29974941 132 c 0,70,71
 450.572955951 132 450.572955951 132 487.446887469 144.419921875 c 0,72,73
 525.113873383 157.107421875 525.113873383 157.107421875 549.639700135 170.637695312 c 2,74,-1
 563.301301243 178.174804688 l 1,75,-1
 565.445026406 163.354492188 l 1,76,-1
 582.363520175 46.3544921875 l 1,77,-1
 583.298043909 39.8857421875 l 1,78,-1
 577.412093318 36.4736328125 l 2,79,80
 543.42950595 16.7763671875 543.42950595 16.7763671875 486.032194081 0.90234375 c 0,81,0
 457.209623398 -7.0693359375 457.209623398 -7.0693359375 424.7491222 -11.03515625 c 128,-1,1
EndSplineSet
EndChar

StartChar: D
Encoding: 68 68 39
Width: 628
VWidth: 1177
Flags: W
LayerCount: 2
Fore
SplineSet
356.490164683 609 m 2,0,-1
 236.664892114 137.005859375 l 2,1,2
 237.192058242 137.005859375 237.192058242 137.005859375 237.215739532 137.002929688 c 128,-1,3
 237.240450445 137 237.240450445 137 237.767616572 137 c 2,4,-1
 250.946769753 137 l 2,5,6
 284.777038195 137 284.777038195 137 313.153402388 144.80078125 c 128,-1,7
 341.52976658 152.602539062 341.52976658 152.602539062 364.901141428 168.1875 c 0,8,9
 380.777902526 178.774414062 380.777902526 178.774414062 394.485251455 191.272460938 c 128,-1,10
 408.192600385 203.771484375 408.192600385 203.771484375 419.788195941 218.247070312 c 128,-1,11
 431.384821119 232.72265625 431.384821119 232.72265625 440.873811409 249.194335938 c 0,12,13
 455.282332473 274.205078125 455.282332473 274.205078125 465.842128959 301.580078125 c 128,-1,14
 476.401925445 328.955078125 476.401925445 328.955078125 483.114026975 358.737304688 c 128,-1,15
 489.866283738 388.702148438 489.866283738 388.702148438 493.236234391 417.077148438 c 128,-1,16
 496.606185044 445.452148438 496.606185044 445.452148438 496.606185044 472.232421875 c 0,17,18
 496.606185044 498.1953125 496.606185044 498.1953125 492.028488557 521.298828125 c 0,19,20
 487.672160658 543.284179688 487.672160658 543.284179688 476.235126788 558.868164062 c 0,21,22
 465.196556378 573.91015625 465.196556378 573.91015625 445.682143078 582.352539062 c 0,23,24
 425.692044718 591 425.692044718 591 393.281624106 591 c 0,25,26
 389.828274124 591 389.828274124 591 386.007349323 592.296875 c 128,-1,27
 382.186424522 593.594726562 382.186424522 593.594726562 378.387121769 595.966796875 c 128,-1,28
 374.586789395 598.338867188 374.586789395 598.338867188 370.766894215 601.645507812 c 128,-1,29
 366.945969414 604.952148438 366.945969414 604.952148438 363.351561308 609 c 0,30,31
 359.757153202 609 359.757153202 609 356.490164683 609 c 2,0,-1
594.623046875 669.459960938 m 0,32,33
 665.10546875 601.860351562 665.10546875 601.860351562 665.10546875 479.015625 c 0,34,35
 665.10546875 448.120117188 665.10546875 448.120117188 662.572265625 417.760742188 c 128,-1,36
 660.038085938 387.401367188 660.038085938 387.401367188 654.969726562 357.57421875 c 128,-1,37
 649.901367188 327.747070312 649.901367188 327.747070312 642.299804688 298.473632812 c 0,38,39
 619.331054688 210.0234375 619.331054688 210.0234375 568.709960938 141.827148438 c 0,40,41
 516.354322389 73.2880859375 516.354322389 73.2880859375 431.925372324 32.310546875 c 0,42,43
 389.539980149 11.73828125 389.539980149 11.73828125 338.465613466 1.5087890625 c 0,44,45
 287.392276405 -9 287.392276405 -9 227.751460154 -9 c 0,46,47
 207.465860469 -9 207.465860469 -9 184.587674244 -7.990234375 c 128,-1,48
 161.709488019 -6.9814453125 161.709488019 -6.9814453125 137.274414062 -4.9658203125 c 0,49,50
 88.611328125 -0.91015625 88.611328125 -0.91015625 46.9609375 8.232421875 c 2,51,-1
 37 10.359375 l 1,52,-1
 39.3818359375 20.0048828125 l 1,53,-1
 213.282191432 712.5390625 l 1,54,-1
 214.836919659 718.51171875 l 1,55,-1
 221.351333891 719.783203125 l 2,56,57
 276.824242948 730.913085938 276.824242948 730.913085938 315.439161768 733.965820312 c 0,58,59
 353.832711999 737 353.832711999 737 394.335956361 737 c 0,60,61
 523.06745354 737 523.06745354 737 594.623046875 669.459960938 c 0,32,33
EndSplineSet
EndChar

StartChar: E
Encoding: 69 69 40
Width: 628
VWidth: 1177
Flags: W
LayerCount: 2
Fore
SplineSet
62 0 m 1,0,-1
 64.9609375 12.001953125 l 1,1,-1
 242.915971219 721.333984375 l 1,2,-1
 244.84961608 729 l 1,3,-1
 253.135345889 729 l 1,4,-1
 701.684570312 729 l 1,5,-1
 714.286132812 729 l 1,6,-1
 711.422851562 718.48046875 l 1,7,-1
 683.422851562 615.624023438 l 1,8,-1
 681.620117188 609 l 1,9,-1
 673.684570312 609 l 1,10,-1
 383.304335676 609 l 1,11,-1
 346.39163004 455 l 1,12,-1
 595.684570312 455 l 1,13,-1
 608.286132812 455 l 1,14,-1
 605.422851562 442.727539062 l 1,15,-1
 576.563107624 322.727539062 l 1,16,-1
 574.668464092 315 l 1,17,-1
 566.328337692 315 l 1,18,-1
 311.876479815 315 l 1,19,-1
 265.402290356 120 l 1,20,-1
 581.042102407 120 l 1,21,-1
 594.286132812 120 l 1,22,-1
 591.276872339 109.583007812 l 1,23,-1
 561.849342908 7.7275390625 l 1,24,-1
 559.954699377 0 l 1,25,-1
 551.614572976 0 l 1,26,-1
 74.6845703125 0 l 1,27,-1
 62 0 l 1,0,-1
EndSplineSet
EndChar

StartChar: F
Encoding: 70 70 41
Width: 628
VWidth: 1177
Flags: W
LayerCount: 2
Fore
SplineSet
67 0 m 1,0,-1
 69.94140625 11.9892578125 l 1,1,-1
 246.737657964 721.321289062 l 1,2,-1
 248.659655741 729 l 1,3,-1
 256.941867907 729 l 1,4,-1
 721.66796875 729 l 1,5,-1
 734.26953125 729 l 1,6,-1
 731.40625 718.48046875 l 1,7,-1
 703.40625 615.624023438 l 1,8,-1
 701.602539062 609 l 1,9,-1
 693.66796875 609 l 1,10,-1
 388.983934755 609 l 1,11,-1
 348.969293417 442 l 1,12,-1
 612.589319974 442 l 1,13,-1
 625.372070312 442 l 1,14,-1
 622.387695312 429.651367188 l 1,15,-1
 592.362239965 309.651367188 l 1,16,-1
 590.422825364 302 l 1,17,-1
 582.165201656 302 l 1,18,-1
 313.468683104 302 l 1,19,-1
 236.717861455 7.6630859375 l 1,20,-1
 234.785618488 -0 l 1,21,-1
 226.517749588 0 l 1,22,-1
 79.66796875 0 l 1,23,-1
 67 0 l 1,0,-1
EndSplineSet
EndChar

StartChar: G
Encoding: 71 71 42
Width: 628
VWidth: 1177
Flags: W
LayerCount: 2
Fore
SplineSet
395.915782623 -11.951171875 m 128,-1,1
 362.391465173 -15 362.391465173 -15 325.993399197 -15 c 0,2,3
 205.215820312 -15 205.215820312 -15 148.213867188 53.9140625 c 0,4,5
 92 121.875 92 121.875 92 244.188476562 c 0,6,7
 92 331.28125 92 331.28125 117.875 420.759765625 c 0,8,9
 143.825195312 510.5 143.825195312 510.5 194.767578125 582.474609375 c 0,10,11
 247.869288001 654.834960938 247.869288001 654.834960938 328.963008057 700.251953125 c 0,12,13
 410.648382221 746 410.648382221 746 521.259870043 746 c 0,14,15
 562.71173409 746 562.71173409 746 594.50390625 738.181640625 c 0,16,17
 624.02734375 730.545898438 624.02734375 730.545898438 647.034179688 721.854492188 c 0,18,19
 652.907226562 719.981445312 652.907226562 719.981445312 658.220703125 718.028320312 c 128,-1,20
 663.534179688 716.075195312 663.534179688 716.075195312 668.389648438 714.000976562 c 128,-1,21
 673.245117188 711.926757812 673.245117188 711.926757812 677.60546875 709.725585938 c 128,-1,22
 681.966796875 707.524414062 681.966796875 707.524414062 685.8125 705.205078125 c 0,23,24
 689.388671875 703.047851562 689.388671875 703.047851562 692.401367188 701.194335938 c 128,-1,25
 695.4140625 699.340820312 695.4140625 699.340820312 697.9921875 697.708984375 c 128,-1,26
 700.5703125 696.077148438 700.5703125 696.077148438 702.666015625 694.692382812 c 128,-1,27
 704.762695312 693.30859375 704.762695312 693.30859375 706.401367188 692.155273438 c 2,28,-1
 712.396484375 687.936523438 l 1,29,-1
 709.0078125 682.000976562 l 1,30,-1
 655.0078125 583.452148438 l 1,31,-1
 649.727539062 572.5 l 1,32,-1
 640 579.794921875 l 2,33,34
 628.564453125 588.372070312 628.564453125 588.372070312 615.2734375 595.67578125 c 128,-1,35
 601.982421875 602.979492188 601.982421875 602.979492188 586.501589175 609 c 0,36,37
 571.050552445 604.567382812 571.050552445 604.567382812 550.460164873 602.283203125 c 128,-1,38
 529.870808058 600 529.870808058 600 504.371959051 600 c 0,39,40
 444.623140169 600 444.623140169 600 399.966654828 568.890625 c 0,41,42
 377.049850318 552.92578125 377.049850318 552.92578125 357.680908945 532.662109375 c 128,-1,43
 338.311967573 512.3984375 338.311967573 512.3984375 322.438320766 487.73828125 c 0,44,45
 290.520952366 438.153320312 290.520952366 438.153320312 275.051362023 378.177734375 c 0,46,47
 259.497249665 317.875 259.497249665 317.875 259.497249665 260.478515625 c 0,48,49
 259.497249665 201.676757812 259.497249665 201.676757812 282.875832991 165.06640625 c 0,50,51
 304.628913654 131 304.628913654 131 357.658232307 131 c 0,52,53
 373.139160969 131 373.139160969 131 388.621120386 131.977539062 c 2,54,-1
 410.287617521 133.94921875 l 1,55,-1
 476.164282525 394.331054688 l 1,56,-1
 478.104165855 402 l 1,57,-1
 486.428553622 402 l 1,58,-1
 637 402 l 1,59,-1
 649.706054688 402 l 1,60,-1
 646.719726562 389.650390625 l 1,61,-1
 556.850853847 25.650390625 l 1,62,-1
 555.476855718 20.2646484375 l 1,63,-1
 549.929325386 18.5126953125 l 2,64,65
 520.858905848 9.33203125 520.858905848 9.33203125 460.105099587 -2.78515625 c 0,66,0
 429.440100074 -8.9013671875 429.440100074 -8.9013671875 395.915782623 -11.951171875 c 128,-1,1
EndSplineSet
EndChar

StartChar: H
Encoding: 72 72 43
Width: 628
VWidth: 1177
Flags: W
LayerCount: 2
Fore
SplineSet
735.369140625 729 m 1,0,-1
 732.408203125 716.998046875 l 1,1,-1
 554.799518939 7.666015625 l 1,2,-1
 552.87686819 -0 l 1,3,-1
 544.638248499 0 l 1,4,-1
 392.067135132 0 l 1,5,-1
 378.743287903 0 l 1,6,-1
 381.918110875 12.3828125 l 1,7,-1
 461.298890341 322 l 1,8,-1
 279.092013836 322 l 1,9,-1
 200.543974822 7.673828125 l 1,10,-1
 198.626426649 -0 l 1,11,-1
 190.380663352 0 l 1,12,-1
 43.6845703125 0 l 1,13,-1
 31 0 l 1,14,-1
 33.9609375 12.001953125 l 1,15,-1
 211.569621686 721.333984375 l 1,16,-1
 213.492272435 729 l 1,17,-1
 221.730892126 729 l 1,18,-1
 373.256997867 729 l 1,19,-1
 386.51757315 729 l 1,20,-1
 383.417247792 716.662109375 l 1,21,-1
 314.41204697 442 l 1,22,-1
 495.647392948 442 l 1,23,-1
 565.828227349 721.337890625 l 1,24,-1
 567.752919129 729 l 1,25,-1
 575.988477273 729 l 1,26,-1
 722.684570312 729 l 1,27,-1
 735.369140625 729 l 1,0,-1
EndSplineSet
EndChar

StartChar: I
Encoding: 73 73 44
Width: 628
VWidth: 1177
Flags: W
LayerCount: 2
Fore
SplineSet
41 0 m 1,0,-1
 43.86328125 10.51953125 l 1,1,-1
 71.86328125 113.375976562 l 1,2,-1
 73.6669921875 120 l 1,3,-1
 81.6015625 120 l 1,4,-1
 238.203680902 120 l 1,5,-1
 355.734192753 609 l 1,6,-1
 201.430136043 609 l 1,7,-1
 188.124235421 609 l 1,8,-1
 191.24998162 619.483398438 l 1,9,-1
 221.623724788 721.348632812 l 1,10,-1
 223.559928176 729 l 1,11,-1
 231.803879211 729 l 1,12,-1
 710.6015625 729 l 1,13,-1
 723.204101562 729 l 1,14,-1
 720.340820312 718.48046875 l 1,15,-1
 692.340820312 615.624023438 l 1,16,-1
 690.537109375 609 l 1,17,-1
 682.6015625 609 l 1,18,-1
 529.1415092 609 l 1,19,-1
 411.610997349 120 l 1,20,-1
 562.772942696 120 l 1,21,-1
 575.972469757 120 l 1,22,-1
 572.973553574 109.583007812 l 1,23,-1
 543.64718086 7.7275390625 l 1,24,-1
 541.758027316 0 l 1,25,-1
 533.446569983 0 l 1,26,-1
 53.6015625 0 l 1,27,-1
 41 0 l 1,0,-1
EndSplineSet
EndChar

StartChar: J
Encoding: 74 74 45
Width: 628
VWidth: 1177
Flags: W
LayerCount: 2
Fore
SplineSet
698.752929688 717.0234375 m 1,0,-1
 583.75390625 245.068359375 l 2,1,2
 580.399059448 231.506835938 580.399059448 231.506835938 576.472769407 218.373046875 c 128,-1,3
 572.545453689 205.239257812 572.545453689 205.239257812 568.148378086 192.522460938 c 128,-1,4
 563.751302483 179.8046875 563.751302483 179.8046875 558.881389966 167.506835938 c 128,-1,5
 554.012503125 155.208007812 554.012503125 155.208007812 548.673856399 143.336914062 c 0,6,7
 526.915152915 94.9541015625 526.915152915 94.9541015625 490.90262166 60.0712890625 c 0,8,9
 454.635722607 24.9423828125 454.635722607 24.9423828125 399.954851476 5.18359375 c 0,10,11
 345.599119829 -15 345.599119829 -15 268.002582004 -15 c 0,12,13
 247.48802424 -15 247.48802424 -15 228.385823161 -13.0654296875 c 128,-1,14
 209.283622082 -11.1298828125 209.283622082 -11.1298828125 191.59582904 -7.244140625 c 0,15,16
 156.694335938 0.5048828125 156.694335938 0.5048828125 130.6953125 12.984375 c 0,17,18
 122.135742188 17.09375 122.135742188 17.09375 114.139648438 21.43359375 c 128,-1,19
 106.14453125 25.7734375 106.14453125 25.7734375 98.6708984375 30.3720703125 c 128,-1,20
 91.1982421875 34.970703125 91.1982421875 34.970703125 84.2880859375 39.8076171875 c 0,21,22
 63.5712890625 54.3095703125 63.5712890625 54.3095703125 49.9521484375 67.9287109375 c 2,23,-1
 44 73.880859375 l 1,24,-1
 48.8486328125 80.7607421875 l 1,25,-1
 122.848632812 185.760742188 l 1,26,-1
 129.248046875 194.840820312 l 1,27,-1
 137.607421875 187.525390625 l 2,28,29
 160.916992188 167.129882812 160.916992188 167.129882812 193.542563235 148.598632812 c 0,30,31
 209.107205706 139.799804688 209.107205706 139.799804688 226.862693404 135.399414062 c 128,-1,32
 244.618181101 131 244.618181101 131 264.851703475 131 c 0,33,34
 293.226021058 131 293.226021058 131 316.123225573 137.958007812 c 128,-1,35
 339.021455765 144.915039062 339.021455765 144.915039062 356.964642281 158.767578125 c 0,36,37
 393.08794661 186.654296875 393.08794661 186.654296875 413.239414855 264.356445312 c 2,38,-1
 499.423942888 609 l 1,39,-1
 264.851703475 609 l 1,40,-1
 251.508676529 609 l 1,41,-1
 254.643144232 619.483398438 l 1,42,-1
 285.101636675 721.348632812 l 1,43,-1
 287.043242487 729 l 1,44,-1
 295.310195918 729 l 1,45,-1
 689.022460938 729 l 1,46,-1
 701.670898438 729 l 1,47,-1
 698.752929688 717.0234375 l 1,0,-1
EndSplineSet
EndChar

StartChar: K
Encoding: 75 75 46
Width: 628
VWidth: 1177
Flags: W
LayerCount: 2
Fore
SplineSet
524.980063905 456.483398438 m 0,0,1
 481.505974082 415.012695312 481.505974082 415.012695312 435.876666161 377.380859375 c 1,2,3
 442.529730723 369.349609375 442.529730723 369.349609375 449.022885437 360.94140625 c 128,-1,4
 455.515021616 352.533203125 455.515021616 352.533203125 461.877803967 343.708007812 c 128,-1,5
 468.240586319 334.881835938 468.240586319 334.881835938 474.474014844 325.64453125 c 128,-1,6
 480.707443369 316.40625 480.707443369 316.40625 486.870593042 306.673828125 c 0,7,8
 490.303052867 301.251953125 490.303052867 301.251953125 493.670326511 295.73046875 c 128,-1,9
 497.036581621 290.209960938 497.036581621 290.209960938 500.335613483 284.590820312 c 128,-1,10
 503.634645344 278.97265625 503.634645344 278.97265625 506.867472491 273.255859375 c 128,-1,11
 510.099281103 267.538085938 510.099281103 267.538085938 513.264885001 261.723632812 c 128,-1,12
 516.429470365 255.908203125 516.429470365 255.908203125 519.527851014 249.995117188 c 128,-1,13
 522.626231663 244.08203125 522.626231663 244.08203125 525.657389063 238.0703125 c 128,-1,14
 528.689564997 232.05859375 528.689564997 232.05859375 531.653499149 225.94921875 c 128,-1,15
 534.6174333 219.840820312 534.6174333 219.840820312 537.516181271 213.6328125 c 0,16,17
 560.65931247 164.057617188 560.65931247 164.057617188 578.543752251 113.006835938 c 128,-1,18
 596.44245151 61.916015625 596.44245151 61.916015625 608.029295121 11.78515625 c 2,19,-1
 610.752855231 0 l 1,20,-1
 597.833769053 0 l 1,21,-1
 439.300977713 0 l 1,22,-1
 430.70964281 0 l 1,23,-1
 429.063691749 8.0849609375 l 2,24,25
 420.849214453 48.451171875 420.849214453 48.451171875 404.374425828 95.837890625 c 0,26,27
 398.870267699 111.669921875 398.870267699 111.669921875 392.793693422 127.28125 c 128,-1,28
 386.71610061 142.892578125 386.71610061 142.892578125 380.06609165 158.283203125 c 128,-1,29
 373.415064155 173.674804688 373.415064155 173.674804688 366.191620512 188.846679688 c 0,30,31
 344.499900367 234.403320312 344.499900367 234.403320312 320.245548495 274.481445312 c 0,32,33
 303.10056445 302.810546875 303.10056445 302.810546875 285.799744692 325.469726562 c 1,34,-1
 205.379349917 7.642578125 l 1,35,-1
 203.446172247 -0 l 1,36,-1
 195.24391736 0 l 1,37,-1
 49.66796875 0 l 1,38,-1
 37 0 l 1,39,-1
 39.94140625 11.9892578125 l 1,40,-1
 216.388684708 721.321289062 l 1,41,-1
 218.299454629 729 l 1,42,-1
 226.533284072 729 l 1,43,-1
 378.80820207 729 l 1,44,-1
 392.049145014 729 l 1,45,-1
 388.947708763 716.658203125 l 1,46,-1
 320.845465063 445.63671875 l 1,47,48
 346.595024954 469.087890625 346.595024954 469.087890625 372.238657301 495.3359375 c 0,49,50
 410.617021159 534.619140625 410.617021159 534.619140625 445.873578084 575.383789062 c 128,-1,51
 481.242173757 616.276367188 481.242173757 616.276367188 512.425612925 654.646484375 c 128,-1,52
 543.455253449 692.826171875 543.455253449 692.826171875 565.125584378 724.486328125 c 2,53,-1
 568.214798221 729 l 1,54,-1
 573.845254574 729 l 1,55,-1
 742.66796875 729 l 1,56,-1
 762.344726562 729 l 1,57,-1
 750.74609375 713.529296875 l 2,58,59
 737.19140625 695.451171875 737.19140625 695.451171875 721.892578125 675.80078125 c 128,-1,60
 706.59375 656.151367188 706.59375 656.151367188 689.546875 634.922851562 c 0,61,62
 678.161132812 620.745117188 678.161132812 620.745117188 666.108398438 606.245117188 c 128,-1,63
 654.056640625 591.744140625 654.056640625 591.744140625 641.299710604 576.928710938 c 0,64,65
 628.040434046 562.11328125 628.040434046 562.11328125 614.084480183 546.97265625 c 0,66,67
 572.147358275 501.477539062 572.147358275 501.477539062 524.980063905 456.483398438 c 0,0,1
EndSplineSet
EndChar

StartChar: L
Encoding: 76 76 47
Width: 628
VWidth: 1177
Flags: W
LayerCount: 2
Fore
SplineSet
545.5390625 0 m 1,0,-1
 537.66796875 0 l 1,1,-1
 65.66796875 0 l 1,2,-1
 53 0 l 1,3,-1
 55.94140625 11.9892578125 l 1,4,-1
 234.21673483 721.321289062 l 1,5,-1
 236.186320385 729 l 1,6,-1
 244.673596305 729 l 1,7,-1
 400.560623599 729 l 1,8,-1
 414.193389288 729 l 1,9,-1
 411.015385303 716.668945312 l 1,10,-1
 257.231279046 120 l 1,11,-1
 566.66796875 120 l 1,12,-1
 579.372070312 120 l 1,13,-1
 576.387695312 109.516601562 l 1,14,-1
 547.387695312 7.6513671875 l 1,15,-1
 545.5390625 0 l 1,0,-1
EndSplineSet
EndChar

StartChar: M
Encoding: 77 77 48
Width: 628
VWidth: 1177
Flags: W
LayerCount: 2
Fore
SplineSet
375.853593745 729 m 1,0,-1
 376.622245622 719.797851562 l 2,1,2
 377.313420652 711.509765625 377.313420652 711.509765625 378.238045655 701.493164062 c 128,-1,3
 379.162670658 691.4765625 379.162670658 691.4765625 380.320745635 679.715820312 c 128,-1,4
 381.478820611 667.955078125 381.478820611 667.955078125 382.868306696 654.482421875 c 0,5,6
 387.055114732 613.8671875 387.055114732 613.8671875 390.717934618 567.250976562 c 128,-1,7
 394.377696207 520.672851562 394.377696207 520.672851562 397.513469646 471.104492188 c 0,8,9
 399.336214416 442.3046875 399.336214416 442.3046875 401.210950227 415.286132812 c 1,10,-1
 567.812676544 723.596679688 l 1,11,-1
 570.732330358 729 l 1,12,-1
 577.083392949 729 l 1,13,-1
 711.15625 729 l 1,14,-1
 722.595703125 729 l 1,15,-1
 721.06640625 717.969726562 l 2,16,17
 697.025390625 544.4765625 697.025390625 544.4765625 661.46875 368.56640625 c 128,-1,18
 625.950195312 192.845703125 625.950195312 192.845703125 584.156213536 7.890625 c 2,19,-1
 582.378323783 -0 l 1,20,-1
 573.951697238 0 l 1,21,-1
 435.113187389 0 l 1,22,-1
 421.675032161 0 l 1,23,-1
 424.998381125 12.4736328125 l 1,24,-1
 554.949481076 500.186523438 l 1,25,-1
 426.632530937 263.392578125 l 1,26,-1
 423.709818827 258 l 1,27,-1
 417.366911694 258 l 1,28,-1
 310.889257524 258 l 1,29,-1
 300.71430476 258 l 1,30,-1
 300.454349549 267.744140625 l 2,31,32
 298.37164957 345.522460938 298.37164957 345.522460938 292.645498916 425.314453125 c 0,33,34
 291.592425456 439.989257812 291.592425456 439.989257812 290.477166632 454.9375 c 128,-1,35
 289.360888376 469.884765625 289.360888376 469.884765625 288.255823874 484.151367188 c 128,-1,36
 287.150759371 498.418945312 287.150759371 498.418945312 286.067102945 511.895507812 c 1,37,-1
 164.475347014 7.7490234375 l 1,38,-1
 162.606727796 0 l 1,39,-1
 154.304471979 0 l 1,40,-1
 20.15625 0 l 1,41,-1
 7 0 l 1,42,-1
 10.521484375 12.3349609375 l 2,43,44
 35.5166015625 99.8955078125 35.5166015625 99.8955078125 62.013671875 193.782226562 c 128,-1,45
 88.521484375 287.7109375 88.521484375 287.7109375 115.530273438 381.153320312 c 0,46,47
 143.229360585 474.626953125 143.229360585 474.626953125 170.915100206 561.783203125 c 0,48,49
 184.778358661 605.427734375 184.778358661 605.427734375 198.515207523 645.548828125 c 128,-1,50
 212.252056385 685.669921875 212.252056385 685.669921875 225.865553951 722.275390625 c 2,51,-1
 228.298938607 729 l 1,52,-1
 235.728560462 729 l 1,53,-1
 366.215881749 729 l 1,54,-1
 375.853593745 729 l 1,0,-1
EndSplineSet
EndChar

StartChar: N
Encoding: 78 78 49
Width: 628
VWidth: 1177
Flags: W
LayerCount: 2
Fore
SplineSet
412.471025984 0 m 1,0,-1
 411.025831332 8.369140625 l 2,1,2
 390.167467553 129.114257812 390.167467553 129.114257812 361.477904222 256.391601562 c 0,3,4
 353.27417921 292.783203125 353.27417921 292.783203125 343.949815973 331.657226562 c 128,-1,5
 334.624432118 370.530273438 334.624432118 370.530273438 324.502966463 410.572265625 c 128,-1,6
 314.382521426 450.614257812 314.382521426 450.614257812 303.587448094 491.375 c 1,7,-1
 182.764684439 7.67578125 l 1,8,-1
 180.847964413 -0 l 1,9,-1
 172.600352841 0 l 1,10,-1
 43.66796875 0 l 1,11,-1
 31 0 l 1,12,-1
 33.94140625 11.9892578125 l 1,13,-1
 210.510176405 721.321289062 l 1,14,-1
 212.424855196 729 l 1,15,-1
 220.675528621 729 l 1,16,-1
 350.269480724 729 l 1,17,-1
 357.988412331 729 l 1,18,-1
 360.258266079 721.940429688 l 2,19,20
 376.987210674 669.91796875 376.987210674 669.91796875 396.326895327 608.90234375 c 0,21,22
 415.740064453 547.654296875 415.740064453 547.654296875 432.00360738 484.907226562 c 128,-1,23
 448.2263256 422.315429688 448.2263256 422.315429688 462.880354427 360.719726562 c 0,24,25
 470.946296049 326.819335938 470.946296049 326.819335938 477.149610383 296.2265625 c 1,26,-1
 582.566149973 721.30859375 l 1,27,-1
 584.47368444 729 l 1,28,-1
 592.735584659 729 l 1,29,-1
 721.66796875 729 l 1,30,-1
 734.3359375 729 l 1,31,-1
 731.39453125 717.010742188 l 1,32,-1
 554.825761095 7.6787109375 l 1,33,-1
 552.910061686 0 l 1,34,-1
 544.660408879 0 l 1,35,-1
 421.337131878 0 l 1,36,-1
 412.471025984 0 l 1,0,-1
EndSplineSet
EndChar

StartChar: O
Encoding: 79 79 50
Width: 628
VWidth: 1177
Flags: W
LayerCount: 2
Fore
SplineSet
386.12788622 739.118164062 m 128,-1,1
 419.278004451 746 419.278004451 746 456.421364985 746 c 0,2,3
 561.524414062 746 561.524414062 746 619.010742188 682.291992188 c 0,4,5
 676 619.134765625 676 619.134765625 676 515.123046875 c 0,6,7
 676 499.952148438 676 499.952148438 675.2109375 483.546875 c 128,-1,8
 674.422851562 467.141601562 674.422851562 467.141601562 672.852539062 449.552734375 c 128,-1,9
 671.28125 431.96484375 671.28125 431.96484375 668.926757812 413.120117188 c 0,10,11
 668.040039062 406.022460938 668.040039062 406.022460938 667.002929688 398.895507812 c 128,-1,12
 665.96484375 391.768554688 665.96484375 391.768554688 664.778320312 384.61328125 c 128,-1,13
 663.590820312 377.458984375 663.590820312 377.458984375 662.25390625 370.274414062 c 128,-1,14
 660.916015625 363.08984375 660.916015625 363.08984375 659.428710938 355.876953125 c 128,-1,15
 657.942382812 348.6640625 657.942382812 348.6640625 656.3046875 341.422851562 c 128,-1,16
 654.66796875 334.181640625 654.66796875 334.181640625 652.881835938 326.911132812 c 128,-1,17
 651.094726562 319.640625 651.094726562 319.640625 649.158203125 312.342773438 c 128,-1,18
 647.22265625 305.044921875 647.22265625 305.044921875 645.13671875 297.716796875 c 0,19,20
 636.768554688 268.323242188 636.768554688 268.323242188 625.739257812 239.669921875 c 128,-1,21
 614.708984375 211.017578125 614.708984375 211.017578125 601.022460938 183.116210938 c 0,22,23
 587.233398438 155.0078125 587.233398438 155.0078125 570.345703125 129.956054688 c 128,-1,24
 553.307147742 104.904296875 553.307147742 104.904296875 532.147101609 82.9521484375 c 0,25,26
 489.487687199 38.693359375 489.487687199 38.693359375 432.062586934 12.0380859375 c 0,27,28
 403.081579191 -1.4140625 403.081579191 -1.4140625 369.931460961 -8.1181640625 c 128,-1,29
 336.78134273 -15 336.78134273 -15 299.637982196 -15 c 0,30,31
 192.47265625 -15 192.47265625 -15 135.485351562 48.2255859375 c 0,32,33
 116.5859375 69.193359375 116.5859375 69.193359375 103.999023438 94.900390625 c 128,-1,34
 91.412109375 120.607421875 91.412109375 120.607421875 85.2060546875 150.565429688 c 128,-1,35
 79 180.5234375 79 180.5234375 79 214.90234375 c 0,36,37
 79 226.283203125 79 226.283203125 79.443359375 238.354492188 c 128,-1,38
 79.88671875 250.424804688 79.88671875 250.424804688 80.7724609375 263.17578125 c 128,-1,39
 81.658203125 275.92578125 81.658203125 275.92578125 82.982421875 289.350585938 c 128,-1,40
 84.3076171875 302.775390625 84.3076171875 302.775390625 86.0732421875 316.90625 c 128,-1,41
 87.8486328125 331.108398438 87.8486328125 331.108398438 90.255859375 345.431640625 c 128,-1,42
 92.6640625 359.75390625 92.6640625 359.75390625 95.7041015625 374.188476562 c 128,-1,43
 98.744140625 388.624023438 98.744140625 388.624023438 102.4140625 403.169921875 c 128,-1,44
 106.083984375 417.716796875 106.083984375 417.716796875 110.384765625 432.381835938 c 0,45,46
 127.60546875 491.096679688 127.60546875 491.096679688 154.446289062 546.845703125 c 0,47,48
 163.473632812 565.595703125 163.473632812 565.595703125 173.98828125 583.036132812 c 128,-1,49
 184.502929688 600.4765625 184.502929688 600.4765625 196.516601562 616.618164062 c 0,50,51
 209.0958683 632.760742188 209.0958683 632.760742188 223.387744575 647.56640625 c 0,52,53
 244.956425607 669.912109375 244.956425607 669.912109375 270.132473456 687.778320312 c 128,-1,54
 295.307486786 705.645507812 295.307486786 705.645507812 323.996760247 718.961914062 c 0,55,0
 352.97776799 732.4140625 352.97776799 732.4140625 386.12788622 739.118164062 c 128,-1,1
262.03115727 156.28125 m 0,56,57
 275.556455165 131 275.556455165 131 316.587537092 131 c 0,58,59
 362.640172941 131 362.640172941 131 397.612078658 167.060546875 c 0,60,61
 434.538190259 205.135742188 434.538190259 205.135742188 459.286981871 261.6171875 c 0,62,63
 484.294403167 318.692382812 484.294403167 318.692382812 496.290682377 383.861328125 c 0,64,65
 508.329376855 449.255859375 508.329376855 449.255859375 508.329376855 503.130859375 c 0,66,67
 508.329376855 524.21875 508.329376855 524.21875 504.334065514 541.96484375 c 128,-1,68
 500.338754173 559.711914062 500.338754173 559.711914062 492.469170183 574.18359375 c 0,69,70
 485.364095535 587.25 485.364095535 587.25 472.575374977 593.625 c 128,-1,71
 459.7856199 600 459.7856199 600 439.471810089 600 c 0,72,73
 393.370551859 600 393.370551859 600 357.334126368 563.405273438 c 0,74,75
 338.414847807 544.193359375 338.414847807 544.193359375 322.879480017 520.479492188 c 128,-1,76
 307.344112226 496.766601562 307.344112226 496.766601562 295.211276544 468.487304688 c 0,77,78
 270.713872983 411.388671875 270.713872983 411.388671875 258.711386661 345.7109375 c 0,79,80
 246.670623145 279.831054688 246.670623145 279.831054688 246.670623145 226.91015625 c 0,81,82
 246.670623145 184.9921875 246.670623145 184.9921875 262.03115727 156.28125 c 0,56,57
EndSplineSet
EndChar

StartChar: P
Encoding: 80 80 51
Width: 628
VWidth: 1177
Flags: W
LayerCount: 2
Fore
SplineSet
342.496919161 732.966796875 m 0,0,1
 394.425907313 737 394.425907313 737 434.794249641 737 c 0,2,3
 469.669155366 737 469.669155366 737 499.724986942 733.28125 c 128,-1,4
 529.780818517 729.563476562 529.780818517 729.563476562 555.116112923 722.046875 c 0,5,6
 572.030601296 717.129882812 572.030601296 717.129882812 586.5 710.779296875 c 0,7,8
 600.743164062 704.427734375 600.743164062 704.427734375 613.260742188 696.543945312 c 128,-1,9
 625.778320312 688.66015625 625.778320312 688.66015625 636.376953125 679.313476562 c 0,10,11
 668.228515625 651.227539062 668.228515625 651.227539062 682.58203125 612.682617188 c 0,12,13
 689.645507812 593.712890625 689.645507812 593.712890625 693.166992188 573.014648438 c 128,-1,14
 696.6875 552.31640625 696.6875 552.31640625 696.6875 529.959960938 c 0,15,16
 696.6875 455.104492188 696.6875 455.104492188 667.598632812 399.12109375 c 128,-1,17
 638.478515625 343.07421875 638.478515625 343.07421875 586.9609375 307.383789062 c 0,18,19
 533.880367432 272.05078125 533.880367432 272.05078125 460.537035513 254.456054688 c 0,20,21
 387.77568763 237 387.77568763 237 299.207365965 237 c 2,22,-1
 275.938268846 237 l 1,23,-1
 214.825839498 7.6396484375 l 1,24,-1
 212.87460202 0 l 1,25,-1
 204.611865725 0 l 1,26,-1
 57.6875 0 l 1,27,-1
 45 0 l 1,28,-1
 47.9638671875 12.0029296875 l 1,29,-1
 223.821444577 712.540039062 l 1,30,-1
 225.453463299 718.825195312 l 1,31,-1
 232.34386687 719.869140625 l 2,32,33
 240.656898081 721.163085938 240.656898081 721.163085938 248.83957308 722.354492188 c 128,-1,34
 257.022248079 723.545898438 257.022248079 723.545898438 265.081751854 724.635742188 c 128,-1,35
 273.140229202 725.724609375 273.140229202 725.724609375 281.070403191 726.711914062 c 128,-1,36
 288.999550753 727.698242188 288.999550753 727.698242188 296.805527091 728.583007812 c 128,-1,37
 304.611503429 729.467773438 304.611503429 729.467773438 312.288149982 730.249023438 c 128,-1,38
 319.965822962 731.03125 319.965822962 731.03125 327.51929829 731.7109375 c 128,-1,39
 335.071747191 732.390625 335.071747191 732.390625 342.496919161 732.966796875 c 0,0,1
505.067538794 569.526367188 m 128,-1,41
 481.881582253 591 481.881582253 591 414.824088479 591 c 0,42,43
 406.526453671 591 406.526453671 591 399.538539547 592.05078125 c 128,-1,44
 392.550625424 593.1015625 392.550625424 593.1015625 386.922726902 595.177734375 c 0,45,46
 378.692836267 598.21484375 378.692836267 598.21484375 366.566629237 609 c 1,47,-1
 311.508065562 382 l 1,48,-1
 334.943443833 382 l 2,49,50
 383.436981255 382 383.436981255 382 419.785835964 390.681640625 c 128,-1,51
 456.133664246 399.362304688 456.133664246 399.362304688 480.420976818 416.291015625 c 0,52,53
 528.338688767 449.69140625 528.338688767 449.69140625 528.338688767 508.926757812 c 0,54,40
 528.338688767 547.974609375 528.338688767 547.974609375 505.067538794 569.526367188 c 128,-1,41
EndSplineSet
EndChar

StartChar: Q
Encoding: 81 81 52
Width: 628
VWidth: 1177
Flags: W
LayerCount: 2
Fore
SplineSet
386.130771922 739.118164062 m 128,-1,1
 419.291977612 746 419.291977612 746 456.447761194 746 c 0,2,3
 561.551757812 746 561.551757812 746 618.541015625 682.291015625 c 0,4,5
 675 619.174804688 675 619.174804688 675 515.241210938 c 0,6,7
 675 471.81640625 675 471.81640625 668.428710938 418.658203125 c 128,-1,8
 661.854492188 365.484375 661.854492188 365.484375 647.706054688 309.890625 c 0,9,10
 642.966796875 291.266601562 642.966796875 291.266601562 637.041992188 272.862304688 c 128,-1,11
 631.1171875 254.45703125 631.1171875 254.45703125 624.012695312 236.284179688 c 128,-1,12
 616.907226562 218.111328125 616.907226562 218.111328125 608.62109375 200.163085938 c 0,13,14
 583.658203125 146.096679688 583.658203125 146.096679688 548.619024021 101.40625 c 0,15,16
 511.45703125 56.2138671875 511.45703125 56.2138671875 460.60274312 26.0693359375 c 0,17,18
 455.827877215 23.23828125 455.827877215 23.23828125 450.909165112 20.59765625 c 128,-1,19
 445.990453008 17.95703125 445.990453008 17.95703125 440.955836054 15.5205078125 c 128,-1,20
 435.920184235 13.083984375 435.920184235 13.083984375 430.751034865 10.8369140625 c 128,-1,21
 425.581885494 8.58984375 425.581885494 8.58984375 420.294761544 6.5419921875 c 128,-1,22
 415.007637593 4.4384765625 415.007637593 4.4384765625 409.597364739 2.5302734375 c 128,-1,23
 404.188126749 0.6220703125 404.188126749 0.6220703125 398.657809585 -1.0859375 c 128,-1,24
 393.127492421 -2.7939453125 393.127492421 -2.7939453125 387.486444729 -4.3076171875 c 128,-1,25
 381.844362174 -5.8203125 381.844362174 -5.8203125 376.081200443 -7.138671875 c 128,-1,26
 370.318038713 -8.4560546875 370.318038713 -8.4560546875 364.453460238 -9.5791015625 c 128,-1,27
 358.589916628 -10.701171875 358.589916628 -10.701171875 352.602189249 -11.6328125 c 1,28,29
 352.837103545 -24.7451171875 352.837103545 -24.7451171875 363.225075793 -35.7275390625 c 128,-1,30
 373.612013176 -46.7099609375 373.612013176 -46.7099609375 396.448373368 -55.783203125 c 0,31,32
 445.445079291 -75.251953125 445.445079291 -75.251953125 519.243353545 -84.0791015625 c 2,33,-1
 533.68385611 -85.806640625 l 1,34,-1
 527.505713619 -98.244140625 l 1,35,-1
 479.819146455 -194.244140625 l 1,36,-1
 476.514823344 -200.896484375 l 1,37,-1
 468.799906716 -199.909179688 l 2,38,39
 405.182631763 -191.76953125 405.182631763 -191.76953125 357.105920592 -177.203125 c 128,-1,40
 309.028174557 -162.63671875 309.028174557 -162.63671875 276.114301539 -141.234375 c 0,41,42
 208.47761194 -97.25390625 208.47761194 -97.25390625 208.47761194 -15 c 2,43,-1
 208.47761194 -5.5 l 2,44,45
 208.47761194 -3.8330078125 208.47761194 -3.8330078125 208.772548391 -1.2529296875 c 0,46,47
 148.795898438 22.2646484375 148.795898438 22.2646484375 115.431640625 76.25 c 0,48,49
 108.309570312 87.7744140625 108.309570312 87.7744140625 102.6171875 100.293945312 c 128,-1,50
 96.9248046875 112.814453125 96.9248046875 112.814453125 92.6865234375 126.235351562 c 128,-1,51
 88.4482421875 139.65625 88.4482421875 139.65625 85.625 154.045898438 c 128,-1,52
 82.8017578125 168.435546875 82.8017578125 168.435546875 81.4013671875 183.694335938 c 128,-1,53
 80 198.954101562 80 198.954101562 80 215.154296875 c 0,54,55
 80 226.529296875 80 226.529296875 80.443359375 238.594726562 c 128,-1,56
 80.88671875 250.659179688 80.88671875 250.659179688 81.7724609375 263.403320312 c 128,-1,57
 82.658203125 276.1484375 82.658203125 276.1484375 83.982421875 289.56640625 c 128,-1,58
 85.3076171875 302.984375 85.3076171875 302.984375 87.0732421875 317.108398438 c 0,59,60
 90.6201171875 345.474609375 90.6201171875 345.474609375 96.568359375 374.3125 c 128,-1,61
 102.517578125 403.149414062 102.517578125 403.149414062 110.86328125 432.456054688 c 0,62,63
 127.598632812 491.215820312 127.598632812 491.215820312 154.977539062 547.001953125 c 0,64,65
 168.76171875 575.086914062 168.76171875 575.086914062 185.640625 600.237304688 c 128,-1,66
 202.669951026 625.388671875 202.669951026 625.388671875 223.821551423 647.564453125 c 0,67,68
 266.506617304 692.31640625 266.506617304 692.31640625 323.978865438 718.971679688 c 0,69,0
 352.969566231 732.416992188 352.969566231 732.416992188 386.130771922 739.118164062 c 128,-1,1
261.992537313 137.359375 m 0,70,71
 275.522358909 111 275.522358909 111 316.567164179 111 c 0,72,73
 362.635202892 111 362.635202892 111 397.618805387 148.59765625 c 0,74,75
 434.557267374 188.296875 434.557267374 188.296875 459.314336521 247.1875 c 0,76,77
 484.330121852 306.696289062 484.330121852 306.696289062 496.330413363 374.643554688 c 0,78,79
 508.373134328 442.827148438 508.373134328 442.827148438 508.373134328 499 c 0,80,81
 508.373134328 520.987304688 508.373134328 520.987304688 504.376486707 539.490234375 c 128,-1,82
 500.379839086 557.993164062 500.379839086 557.993164062 492.507623018 573.083007812 c 0,83,84
 485.400171992 586.706054688 485.400171992 586.706054688 472.60717409 593.353515625 c 128,-1,85
 459.813141325 600 459.813141325 600 439.492537313 600 c 0,86,87
 393.375859958 600 393.375859958 600 357.327381646 561.844726562 c 0,88,89
 338.401775303 541.813476562 338.401775303 541.813476562 322.861211521 517.088867188 c 128,-1,90
 307.320647738 492.364257812 307.320647738 492.364257812 295.183754081 462.87890625 c 0,91,92
 270.678157066 403.344726562 270.678157066 403.344726562 258.671656367 334.8671875 c 0,93,94
 246.626865672 266.178710938 246.626865672 266.178710938 246.626865672 211 c 0,95,96
 246.626865672 167.293945312 246.626865672 167.293945312 261.992537313 137.359375 c 0,70,71
EndSplineSet
EndChar

StartChar: R
Encoding: 82 82 53
Width: 628
VWidth: 1177
Flags: W
LayerCount: 2
Fore
SplineSet
509.603941984 299.362304688 m 128,-1,1
 501.969958 296.5625 501.969958 296.5625 493.946915645 294.1171875 c 1,2,3
 509.498957978 269.161132812 509.498957978 269.161132812 522.951320209 239.8984375 c 0,4,5
 539.389551057 204.139648438 539.389551057 204.139648438 554.552734375 165.456054688 c 0,6,7
 569.196289062 126.618164062 569.196289062 126.618164062 580.307617188 87.283203125 c 0,8,9
 585.859375 67.62890625 585.859375 67.62890625 590.405273438 48.6953125 c 128,-1,10
 594.951171875 29.76171875 594.951171875 29.76171875 598.491210938 11.5458984375 c 2,11,-1
 600.734375 0 l 1,12,-1
 588.665039062 0 l 1,13,-1
 442.107460702 0 l 1,14,-1
 433.322769682 0 l 1,15,-1
 431.74080482 8.19921875 l 2,16,17
 418.192721879 78.4052734375 418.192721879 78.4052734375 393.709834321 143.645507812 c 0,18,19
 370.338542113 205.922851562 370.338542113 205.922851562 338.524271528 269 c 1,20,-1
 273.369345264 269 l 1,21,-1
 207.842857962 7.685546875 l 1,22,-1
 205.91609269 0 l 1,23,-1
 197.589420124 0 l 1,24,-1
 52.6650390625 0 l 1,25,-1
 40 0 l 1,26,-1
 42.9384765625 11.9873046875 l 1,27,-1
 216.848838797 709.650390625 l 1,28,-1
 218.370077617 715.540039062 l 1,29,-1
 224.764838637 716.881835938 l 2,30,31
 236.54672008 719.353515625 236.54672008 719.353515625 249.235375135 721.573242188 c 128,-1,32
 261.925059446 723.854492188 261.925059446 723.854492188 275.530780664 725.87890625 c 0,33,34
 302.674292274 729.918945312 302.674292274 729.918945312 328.791636696 732.448242188 c 128,-1,35
 354.914127393 734.977539062 354.914127393 734.977539062 378.929733202 735.990234375 c 128,-1,36
 402.877408184 737 402.877408184 737 422.082276345 737 c 0,37,38
 549.395967706 737 549.395967706 737 609.80078125 684.895507812 c 0,39,40
 670.665039062 632.336914062 670.665039062 632.336914062 670.665039062 543.2578125 c 0,41,42
 670.665039062 522.616210938 670.665039062 522.616210938 667.688476562 502.330078125 c 128,-1,43
 664.711914062 482.043945312 664.711914062 482.043945312 658.766601562 462.163085938 c 128,-1,44
 652.802734375 442.217773438 652.802734375 442.217773438 643.840820312 423.629882812 c 128,-1,45
 634.87890625 405.041992188 634.87890625 405.041992188 622.948242188 387.87109375 c 0,46,47
 599.021484375 353.436523438 599.021484375 353.436523438 564.704101562 328.125 c 0,48,49
 558.749023438 323.732421875 558.749023438 323.732421875 552.426757812 319.728515625 c 0,50,51
 545.859447689 315.724609375 545.859447689 315.724609375 538.897567189 312.147460938 c 128,-1,52
 531.93568669 308.571289062 531.93568669 308.571289062 524.586806329 305.366210938 c 128,-1,0
 517.236896712 302.161132812 517.236896712 302.161132812 509.603941984 299.362304688 c 128,-1,1
309.004210232 399 m 1,53,-1
 352.521109628 399 l 2,54,55
 383.692095868 399 383.692095868 399 411.233929144 406.236328125 c 0,56,57
 438.03161109 413.27734375 438.03161109 413.27734375 458.43556127 429.073242188 c 0,58,59
 468.630331576 436.965820312 468.630331576 436.965820312 476.763504211 446.833984375 c 128,-1,60
 484.897706101 456.702148438 484.897706101 456.702148438 491.038241149 468.681640625 c 0,61,62
 503.236970847 492.481445312 503.236970847 492.481445312 503.236970847 524.654296875 c 0,63,64
 503.236970847 559.443359375 503.236970847 559.443359375 480.37721835 578.025390625 c 0,65,66
 457.03474528 597 457.03474528 597 397.841263701 597 c 0,67,68
 384.641068934 597 384.641068934 597 374.072679081 596.090820312 c 0,69,70
 367.625426058 595.536132812 367.625426058 595.536132812 361.329473513 594.163085938 c 1,71,-1
 309.004210232 399 l 1,53,-1
EndSplineSet
EndChar

StartChar: S
Encoding: 83 83 54
Width: 628
VWidth: 1177
Flags: W
LayerCount: 2
Fore
SplineSet
239.039953483 131.298828125 m 0,0,1
 266.3814724 126 266.3814724 126 297.904744069 126 c 0,2,3
 325.1415652 126 325.1415652 126 350.302906688 131.1015625 c 0,4,5
 374.651300659 136.0390625 374.651300659 136.0390625 391.927461822 146.654296875 c 0,6,7
 400.404903153 151.86328125 400.404903153 151.86328125 407.174333541 158.533203125 c 128,-1,8
 413.944790379 165.203125 413.944790379 165.203125 419.142727526 173.478515625 c 0,9,10
 429.290201191 189.6328125 429.290201191 189.6328125 429.290201191 214.15625 c 0,11,12
 429.290201191 232.271484375 429.290201191 232.271484375 421.412206008 247.220703125 c 0,13,14
 413.371005453 262.479492188 413.371005453 262.479492188 398.595273771 274.779296875 c 0,15,16
 383.179037986 287.614257812 383.179037986 287.614257812 362.65929835 298.22265625 c 0,17,18
 341.330716995 309.250976562 341.330716995 309.250976562 316.263808804 320.802734375 c 0,19,20
 300.768536455 328.189453125 300.768536455 328.189453125 286.328453558 335.63671875 c 128,-1,21
 271.88939711 343.084960938 271.88939711 343.084960938 258.284843605 350.706054688 c 0,22,23
 229.997965266 366.553710938 229.997965266 366.553710938 209.963735953 388.609375 c 128,-1,24
 189.852522974 410.749023438 189.852522974 410.749023438 178.183852063 440.452148438 c 0,25,26
 172.286903226 455.4609375 172.286903226 455.4609375 169.403608311 473.69140625 c 128,-1,27
 166.519286948 491.921875 166.519286948 491.921875 166.519286948 513.5 c 0,28,29
 166.519286948 618.564453125 166.519286948 618.564453125 243.574804652 682.481445312 c 0,30,31
 320.148917829 746 320.148917829 746 459.771627243 746 c 0,32,33
 504.837865485 746 504.837865485 746 541.481064186 739.84765625 c 0,34,35
 577.491210938 733.724609375 577.491210938 733.724609375 604.1640625 725.004882812 c 128,-1,36
 630.97265625 716.241210938 630.97265625 716.241210938 649.724609375 706.34375 c 0,37,38
 667.912109375 696.745117188 667.912109375 696.745117188 680.095703125 689.637695312 c 2,39,-1
 688.514648438 684.7265625 l 1,40,-1
 683.8203125 676.18359375 l 1,41,-1
 622.8203125 565.18359375 l 1,42,-1
 617.439453125 555.391601562 l 1,43,-1
 608.301757812 561.822265625 l 2,44,45
 595.567382812 570.783203125 595.567382812 570.783203125 579.150390625 578.333007812 c 0,46,47
 562.438071046 585.8828125 562.438071046 585.8828125 541.352758075 591.924804688 c 0,48,49
 499.214978499 604 499.214978499 604 439.801037761 604 c 0,50,51
 395.599069479 604 395.599069479 604 365.617524033 586.172851562 c 0,52,53
 337.845923034 569.66015625 337.845923034 569.66015625 337.845923034 527.47265625 c 0,54,55
 337.845923034 515.734375 337.845923034 515.734375 340.555748087 506.165039062 c 128,-1,56
 343.265573141 496.596679688 343.265573141 496.596679688 348.513806283 489.190429688 c 128,-1,57
 353.762039426 481.784179688 353.762039426 481.784179688 361.717018275 475.973632812 c 0,58,59
 368.376618633 471.110351562 368.376618633 471.110351562 375.744468721 466.54296875 c 128,-1,60
 383.111292359 461.9765625 383.111292359 461.9765625 391.275666781 457.657226562 c 128,-1,61
 399.441067651 453.338867188 399.441067651 453.338867188 408.424548282 449.276367188 c 128,-1,62
 417.408028912 445.213867188 417.408028912 445.213867188 427.209589303 441.411132812 c 0,63,64
 439.823619636 436.096679688 439.823619636 436.096679688 451.620596657 430.635742188 c 128,-1,65
 463.416547229 425.17578125 463.416547229 425.17578125 474.536067987 419.50390625 c 128,-1,66
 485.654562296 413.833007812 485.654562296 413.833007812 496.25367347 407.873046875 c 0,67,68
 528.533437966 389.720703125 528.533437966 389.720703125 552.138682946 365.94140625 c 0,69,70
 575.741210938 341.794921875 575.741210938 341.794921875 588.419921875 309.041015625 c 128,-1,71
 601.056640625 276.3984375 601.056640625 276.3984375 601.056640625 232.987304688 c 0,72,73
 601.056640625 112.153320312 601.056640625 112.153320312 517.930220997 48.2177734375 c 0,74,75
 433.123987772 -14.72265625 433.123987772 -14.72265625 282.138489215 -15 c 0,76,77
 231.765510244 -15 231.765510244 -15 191.393222748 -7.830078125 c 0,78,79
 151.46484375 -0.6884765625 151.46484375 -0.6884765625 123.737304688 9.06640625 c 128,-1,80
 95.9091796875 18.8583984375 95.9091796875 18.8583984375 75.6435546875 30.2900390625 c 0,81,82
 65.650390625 35.9267578125 65.650390625 35.9267578125 57.826171875 40.8017578125 c 128,-1,83
 50.0009765625 45.67578125 50.0009765625 45.67578125 44.1748046875 49.9130859375 c 2,84,-1
 37 55.130859375 l 1,85,-1
 41.326171875 62.8759765625 l 1,86,-1
 103.326171875 173.875976562 l 1,87,-1
 108.294921875 182.771484375 l 1,88,-1
 117.095703125 177.637695312 l 2,89,90
 128.912109375 170.745117188 128.912109375 170.745117188 146.724609375 161.34375 c 0,91,92
 155.354492188 156.7890625 155.354492188 156.7890625 165.685810454 152.559570312 c 128,-1,93
 176.102213727 148.329101562 176.102213727 148.329101562 187.840683161 144.4453125 c 0,94,95
 211.350468395 136.665039062 211.350468395 136.665039062 239.039953483 131.298828125 c 0,0,1
EndSplineSet
EndChar

StartChar: T
Encoding: 84 84 55
Width: 628
VWidth: 1177
Flags: W
LayerCount: 2
Fore
SplineSet
755.204101562 729 m 1,0,-1
 752.340820312 718.48046875 l 1,1,-1
 724.340820312 615.624023438 l 1,2,-1
 722.537109375 609 l 1,3,-1
 714.6015625 609 l 1,4,-1
 523.327759285 609 l 1,5,-1
 370.764694984 7.6689453125 l 1,6,-1
 368.819702456 0 l 1,7,-1
 360.473390204 0 l 1,8,-1
 210.6015625 0 l 1,9,-1
 197.920898438 0 l 1,10,-1
 200.877929688 12.3310546875 l 1,11,-1
 348.112042897 609 l 1,12,-1
 164.6015625 609 l 1,13,-1
 152 609 l 1,14,-1
 154.86328125 619.416992188 l 1,15,-1
 182.86328125 721.272460938 l 1,16,-1
 184.666992188 729 l 1,17,-1
 192.6015625 729 l 1,18,-1
 742.6015625 729 l 1,19,-1
 755.204101562 729 l 1,0,-1
EndSplineSet
EndChar

StartChar: U
Encoding: 85 85 56
Width: 628
VWidth: 1177
Flags: W
LayerCount: 2
Fore
SplineSet
365.902731844 -10.2470703125 m 128,-1,1
 332.923256658 -15 332.923256658 -15 293.679098908 -15 c 0,2,3
 180.767578125 -15 180.767578125 -15 129.821289062 36.1494140625 c 128,-1,4
 79 87.1728515625 79 87.1728515625 79 176.791015625 c 0,5,6
 79 224.642578125 79 224.642578125 93.26953125 284.1796875 c 2,7,-1
 201.395742824 721.338867188 l 1,8,-1
 203.33432203 729 l 1,9,-1
 211.623879854 729 l 1,10,-1
 364.162428095 729 l 1,11,-1
 377.497223058 729 l 1,12,-1
 374.393647127 717.071289062 l 1,13,-1
 261.850237771 284.61328125 l 2,14,15
 255.598910548 258.739257812 255.598910548 258.739257812 250.900912292 235.208007812 c 0,16,17
 248.613039535 223.752929688 248.613039535 223.752929688 247.475780828 213.413085938 c 128,-1,18
 246.339549454 203.073242188 246.339549454 203.073242188 246.339549454 193.896484375 c 0,19,20
 246.339549454 178.361328125 246.339549454 178.361328125 250.14787649 166.6875 c 128,-1,21
 253.955176192 155.013671875 253.955176192 155.013671875 261.292395424 146.833984375 c 0,22,23
 275.49426026 131 275.49426026 131 315.770888653 131 c 0,24,25
 328.560169277 131 328.560169277 131 339.431417374 132.666015625 c 128,-1,26
 350.302665472 134.33203125 350.302665472 134.33203125 359.24766237 137.579101562 c 0,27,28
 376.490435765 143.836914062 376.490435765 143.836914062 389.437925821 159.56640625 c 0,29,30
 396.239904053 167.83203125 396.239904053 167.83203125 402.620675356 179.102539062 c 128,-1,31
 409.000419326 190.374023438 409.000419326 190.374023438 414.807938272 204.537109375 c 0,32,33
 418.728244712 214.096679688 418.728244712 214.096679688 422.489314385 225.3046875 c 128,-1,34
 426.249356724 236.512695312 426.249356724 236.512695312 429.892282991 249.53515625 c 128,-1,35
 433.534181924 262.557617188 433.534181924 262.557617188 437.015816757 277.282226562 c 2,36,-1
 553.815470761 721.350585938 l 1,37,-1
 555.761241305 729 l 1,38,-1
 564.040525789 729 l 1,39,-1
 711 729 l 1,40,-1
 723.689453125 729 l 1,41,-1
 720.72265625 716.993164062 l 1,42,-1
 607.733398438 259.657226562 l 2,43,44
 592.006611189 195.772460938 592.006611189 195.772460938 571.224672259 145.984375 c 0,45,46
 564.178188542 129.103515625 564.178188542 129.103515625 555.606113875 113.858398438 c 128,-1,47
 547.035066542 98.6123046875 547.035066542 98.6123046875 536.881924892 84.94140625 c 128,-1,48
 526.728783241 71.271484375 526.728783241 71.271484375 515.04696864 59.283203125 c 0,49,50
 497.355250299 41.1279296875 497.355250299 41.1279296875 474.977861709 27.3271484375 c 128,-1,51
 452.599445786 13.5263671875 452.599445786 13.5263671875 425.737744406 4.14453125 c 0,52,0
 398.883234364 -5.4931640625 398.883234364 -5.4931640625 365.902731844 -10.2470703125 c 128,-1,1
EndSplineSet
EndChar

StartChar: V
Encoding: 86 86 57
Width: 628
VWidth: 1177
Flags: W
LayerCount: 2
Fore
SplineSet
201.236328125 0 m 1,0,-1
 200.086914062 8.6875 l 2,1,2
 191.055664062 75.0517578125 191.055664062 75.0517578125 184.036132812 155.033203125 c 128,-1,3
 177.026367188 234.900390625 177.026367188 234.900390625 171.520507812 319.1328125 c 128,-1,4
 166.010742188 403.413085938 166.010742188 403.413085938 163.005859375 489.6328125 c 128,-1,5
 160.000976562 575.862304688 160.000976562 575.862304688 160 654.825195312 c 2,6,-1
 160 689.353515625 l 2,7,8
 160 705.749023438 160 705.749023438 161.025390625 719.712890625 c 2,9,-1
 161.688476562 729 l 1,10,-1
 171 729 l 1,11,-1
 322.270937982 729 l 1,12,-1
 333.229802494 729 l 1,13,-1
 332.83144844 718.63671875 l 2,14,15
 331.776739001 691.181640625 331.776739001 691.181640625 330.853094238 659.59375 c 128,-1,16
 329.929449475 628.004882812 329.929449475 628.004882812 329.137901393 592.290039062 c 0,17,18
 327.554805229 520.901367188 327.554805229 520.901367188 327.554805229 445 c 0,19,20
 327.554805229 363.122070312 327.554805229 363.122070312 329.665256112 283.751953125 c 0,21,22
 330.173002731 264.626953125 330.173002731 264.626953125 330.749893706 246.053710938 c 128,-1,23
 331.326784681 227.48046875 331.326784681 227.48046875 331.958371938 209.793945312 c 128,-1,24
 332.5909912 192.107421875 332.5909912 192.107421875 333.283466771 175.102539062 c 1,25,26
 359.310640987 223.544921875 359.310640987 223.544921875 387.753739662 280.286132812 c 0,27,28
 426.814109087 358.205078125 426.814109087 358.205078125 464.819769074 437.625 c 128,-1,29
 502.819237028 517.032226562 502.819237028 517.032226562 536.586451158 591.924804688 c 128,-1,30
 570.343345235 666.791015625 570.343345235 666.791015625 593.536632837 722.65625 c 2,31,-1
 596.170310419 729 l 1,32,-1
 603.37267556 729 l 1,33,-1
 757 729 l 1,34,-1
 772.27734375 729 l 1,35,-1
 766.1640625 715.375 l 2,36,37
 735.10546875 646.150390625 735.10546875 646.150390625 694.565429688 561.408203125 c 128,-1,38
 654 476.608398438 654 476.608398438 603.313851256 383.081054688 c 128,-1,39
 552.505133247 289.5078125 552.505133247 289.5078125 495.358870557 192.545898438 c 128,-1,40
 438.184743723 95.537109375 438.184743723 95.537109375 378.878493894 4.841796875 c 2,41,-1
 375.797958008 0 l 1,42,-1
 369.825743211 0 l 1,43,-1
 210 0 l 1,44,-1
 201.236328125 0 l 1,0,-1
EndSplineSet
EndChar

StartChar: W
Encoding: 87 87 58
Width: 628
VWidth: 1177
Flags: W
LayerCount: 2
Fore
SplineSet
393.78600795 0 m 1,0,-1
 393.017356073 9.2021484375 l 2,1,2
 390.942811551 34.048828125 390.942811551 34.048828125 386.262598332 74.3955078125 c 0,3,4
 381.544666122 115.072265625 381.544666122 115.072265625 377.876749075 161.749023438 c 128,-1,5
 374.222084647 208.26953125 374.222084647 208.26953125 370.566400787 257.287109375 c 0,6,7
 368.510206044 284.873046875 368.510206044 284.873046875 367.257323873 310.645507812 c 1,8,-1
 201.820808558 5.392578125 l 1,9,-1
 198.898096447 -0 l 1,10,-1
 192.555189314 0 l 1,11,-1
 57.4384765625 0 l 1,12,-1
 46 0 l 1,13,-1
 47.5283203125 11.0302734375 l 2,14,15
 71.5693359375 184.524414062 71.5693359375 184.524414062 107.126953125 360.43359375 c 128,-1,16
 142.650390625 536.180664062 142.650390625 536.180664062 185.494601914 721.158203125 c 2,17,-1
 187.304094064 729 l 1,18,-1
 195.686885025 729 l 1,19,-1
 334.525394874 729 l 1,20,-1
 347.941122594 729 l 1,21,-1
 344.644278867 716.54296875 l 1,22,-1
 215.931789036 230.142578125 l 1,23,-1
 341.938705815 465.5625 l 1,24,-1
 344.849184739 471 l 1,25,-1
 351.227771999 471 l 1,26,-1
 458.749324739 471 l 1,27,-1
 468.924277503 471 l 1,28,-1
 469.185252146 461.255859375 l 2,29,30
 471.265913261 383.508789062 471.265913261 383.508789062 477.510954903 303.748046875 c 0,31,32
 480.973966078 259.508789062 480.973966078 259.508789062 484.474696245 217.888671875 c 1,33,-1
 605.160176952 721.23828125 l 1,34,-1
 607.021660145 729 l 1,35,-1
 615.334110284 729 l 1,36,-1
 748.438476562 729 l 1,37,-1
 761.595703125 729 l 1,38,-1
 758.07421875 716.665039062 l 2,39,40
 733.091796875 629.153320312 733.091796875 629.153320312 707.607421875 535.30859375 c 128,-1,41
 682.086914062 441.333984375 682.086914062 441.333984375 655.065429688 347.846679688 c 0,42,43
 627.43986763 254.328125 627.43986763 254.328125 598.693918523 167.12109375 c 128,-1,44
 569.931658501 79.8671875 569.931658501 79.8671875 542.729129742 6.724609375 c 2,45,-1
 540.295745086 0 l 1,46,-1
 532.86612323 0 l 1,47,-1
 403.422700514 0 l 1,48,-1
 393.78600795 0 l 1,0,-1
EndSplineSet
EndChar

StartChar: X
Encoding: 88 88 59
Width: 628
VWidth: 1177
Flags: W
LayerCount: 2
Fore
SplineSet
363.659690262 722.376953125 m 1,0,-1
 440.31167646 516.690429688 l 1,1,2
 475.646050882 561.436523438 475.646050882 561.436523438 512.765860662 609.931640625 c 0,3,4
 556.19454686 666.668945312 556.19454686 666.668945312 594.436340451 724.377929688 c 2,5,-1
 597.498970762 729 l 1,6,-1
 603.194103776 729 l 1,7,-1
 758.221679688 729 l 1,8,-1
 777.48046875 729 l 1,9,-1
 766.401367188 713.66796875 l 2,10,11
 702.2578125 624.899414062 702.2578125 624.899414062 635.779313526 543.418945312 c 0,12,13
 622.616800014 527.698242188 622.616800014 527.698242188 609.187485651 511.788085938 c 128,-1,14
 595.758171288 495.877929688 595.758171288 495.877929688 582.315669049 480.078125 c 128,-1,15
 568.873166811 464.278320312 568.873166811 464.278320312 555.366754103 448.526367188 c 128,-1,16
 541.861355846 432.774414062 541.861355846 432.774414062 528.451316069 417.256835938 c 128,-1,17
 515.041276292 401.739257812 515.041276292 401.739257812 501.773259782 386.505859375 c 1,18,19
 511.1914313 362.604492188 511.1914313 362.604492188 520.156142814 337.989257812 c 128,-1,20
 529.119839877 313.374023438 529.119839877 313.374023438 537.788331434 287.616210938 c 0,21,22
 556.04542243 233.366210938 556.04542243 233.366210938 570.144275052 181.997070312 c 128,-1,23
 584.224867541 130.693359375 584.224867541 130.693359375 594.140120494 86.6875 c 0,24,25
 597.465493849 71.9306640625 597.465493849 71.9306640625 600.030028274 58.607421875 c 128,-1,26
 602.59557715 45.28515625 602.59557715 45.28515625 604.41854723 33.2763671875 c 128,-1,27
 606.240502857 21.267578125 606.240502857 21.267578125 607.303648457 10.6416015625 c 2,28,-1
 608.368822961 0 l 1,29,-1
 596.961311251 0 l 1,30,-1
 448.413089401 0 l 1,31,-1
 439.318528042 0 l 1,32,-1
 438.116402531 8.6787109375 l 2,33,34
 429.856735092 59.4423828125 429.856735092 59.4423828125 414.353881028 120 c 0,35,36
 409.976521044 140.087890625 409.976521044 140.087890625 405.1426577 159.887695312 c 128,-1,37
 400.307779905 179.6875 400.307779905 179.6875 395.103641615 198.895507812 c 128,-1,38
 389.898488873 218.104492188 389.898488873 218.104492188 384.277410848 236.924804688 c 1,39,-1
 199.275874122 4.23046875 l 1,40,-1
 196.171651282 0 l 1,41,-1
 190.79099836 0 l 1,42,-1
 22.2216796875 0 l 1,43,-1
 2 0 l 1,44,-1
 14.2744140625 15.640625 l 1,45,-1
 322.346136293 398.666992188 l 1,46,-1
 190.46130149 715.732421875 l 1,47,-1
 184.942683108 729 l 1,48,-1
 200.140187148 729 l 1,49,-1
 353.882402769 729 l 1,50,-1
 361.191528769 729 l 1,51,-1
 363.659690262 722.376953125 l 1,0,-1
EndSplineSet
EndChar

StartChar: Y
Encoding: 89 89 60
Width: 628
VWidth: 1177
Flags: W
LayerCount: 2
Fore
SplineSet
357.672107916 550.284179688 m 0,0,1
 371.580249923 477.706054688 371.580249923 477.706054688 387.435304706 414.024414062 c 1,2,3
 403.041575831 435.576171875 403.041575831 435.576171875 422.479734667 463.5 c 0,4,5
 450.948430597 504.395507812 450.948430597 504.395507812 481.017187399 549.80859375 c 128,-1,6
 511.099364066 595.241210938 511.099364066 595.241210938 540.12446826 640.672851562 c 0,7,8
 554.609664478 663.345703125 554.609664478 663.345703125 567.377117929 684.138671875 c 128,-1,9
 580.14457138 704.932617188 580.14457138 704.932617188 591.187055983 723.836914062 c 2,10,-1
 594.203428798 729 l 1,11,-1
 600.439537005 729 l 1,12,-1
 759.516601562 729 l 1,13,-1
 777.431640625 729 l 1,14,-1
 768.028320312 714.162109375 l 2,15,16
 731.0078125 655.748046875 731.0078125 655.748046875 695.483398438 600.736328125 c 128,-1,17
 659.877929688 545.596679688 659.877929688 545.596679688 619.732141916 491.4375 c 128,-1,18
 579.410607974 437.228515625 579.410607974 437.228515625 535.383126596 384.006835938 c 0,19,20
 492.307423362 331.935546875 492.307423362 331.935546875 442.068608914 275.96875 c 1,21,-1
 371.817678311 7.6572265625 l 1,22,-1
 369.866636346 0 l 1,23,-1
 361.541158331 0 l 1,24,-1
 212.516601562 0 l 1,25,-1
 199.853515625 0 l 1,26,-1
 202.7890625 11.9892578125 l 1,27,-1
 268.138671875 278.935546875 l 1,28,29
 249.740234375 334.348632812 249.740234375 334.348632812 234.9609375 387.955078125 c 128,-1,30
 220.180664062 441.5625 220.180664062 441.5625 208.732421875 494.372070312 c 0,31,32
 185.65625 600.809570312 185.65625 600.809570312 168.615234375 717.901367188 c 2,33,-1
 167 729 l 1,34,-1
 178.516601562 729 l 1,35,-1
 323.486549339 729 l 1,36,-1
 333.222145514 729 l 1,37,-1
 334.021143652 719.8203125 l 2,38,39
 341.378326766 635.305664062 341.378326766 635.305664062 357.672107916 550.284179688 c 0,0,1
EndSplineSet
EndChar

StartChar: Z
Encoding: 90 90 61
Width: 628
VWidth: 1177
Flags: W
LayerCount: 2
Fore
SplineSet
685.96484375 600.578125 m 1,0,-1
 684.3359375 598.793945312 l 2,1,2
 616.344726562 524.328125 616.344726562 524.328125 556.987957679 460.98828125 c 0,3,4
 496.822671075 397.673828125 496.822671075 397.673828125 443.469995862 340.172851562 c 128,-1,5
 390.125500281 282.6796875 390.125500281 282.6796875 342.02414911 229.065429688 c 0,6,7
 301.431700544 183.822265625 301.431700544 183.822265625 262.543682893 139 c 1,8,-1
 572.677515202 139 l 1,9,-1
 586.114606436 139 l 1,10,-1
 582.829461547 126.555664062 l 1,11,-1
 551.419672877 7.5556640625 l 1,12,-1
 549.425887464 0 l 1,13,-1
 541.267726533 0 l 1,14,-1
 45.8408203125 0 l 1,15,-1
 33 0 l 1,16,-1
 36.1455078125 12.041015625 l 1,17,-1
 60.1455078125 103.926757812 l 1,18,-1
 60.640625 105.82421875 l 1,19,-1
 61.8603515625 107.385742188 l 2,20,21
 98.8740234375 154.796875 98.8740234375 154.796875 140.384765625 207.5234375 c 0,22,23
 183.360750806 260.380859375 183.360750806 260.380859375 236.882130939 320.48828125 c 128,-1,24
 290.373859904 380.561523438 290.373859904 380.561523438 356.398830715 451.237304688 c 0,25,26
 376.152643121 472.381835938 376.152643121 472.381835938 397.694727674 495.137695312 c 128,-1,27
 419.236812227 517.893554688 419.236812227 517.893554688 441.972100666 541.63671875 c 128,-1,28
 464.70841156 565.379882812 464.70841156 565.379882812 488.526478847 590 c 1,29,-1
 203.08900186 590 l 1,30,-1
 189.651910626 590 l 1,31,-1
 192.936033061 602.444335938 l 1,32,-1
 224.34582173 721.444335938 l 1,33,-1
 226.340629598 729 l 1,34,-1
 234.498790529 729 l 1,35,-1
 705.840820312 729 l 1,36,-1
 718.595703125 729 l 1,37,-1
 715.551757812 717.01953125 l 1,38,-1
 686.551757812 602.888671875 l 1,39,-1
 685.96484375 600.578125 l 1,0,-1
EndSplineSet
EndChar

StartChar: bracketleft
Encoding: 91 91 62
Width: 588
VWidth: 1177
Flags: W
LayerCount: 2
Fore
SplineSet
350 833 m 1,0,-1
 677 833 l 1,1,-1
 689.670875525 833 l 1,2,-1
 686.726212001 820.676037841 l 1,3,-1
 659.726212001 707.676037841 l 1,4,-1
 657.892114464 700 l 1,5,-1
 650 700 l 1,6,-1
 469.872735418 700 l 1,7,-1
 283.70206538 -71 l 1,8,-1
 459 -71 l 1,9,-1
 471.670875525 -71 l 1,10,-1
 468.726212001 -83.3239621594 l 1,11,-1
 441.726212001 -196.323962159 l 1,12,-1
 439.892114464 -204 l 1,13,-1
 432 -204 l 1,14,-1
 105 -204 l 1,15,-1
 92.3048707769 -204 l 1,16,-1
 95.2781262882 -191.657955694 l 1,17,-1
 340.278126288 825.342044306 l 1,18,-1
 342.122963206 833 l 1,19,-1
 350 833 l 1,0,-1
EndSplineSet
Substitution2: "'case' Case-Sensitive Forms lookup 17 subtable" Bracketleft
EndChar

StartChar: backslash
Encoding: 92 92 63
Width: 588
VWidth: 1177
Flags: W
LayerCount: 2
Fore
SplineSet
243 833 m 1,0,-1
 380 833 l 1,1,-1
 389.100500736 833 l 1,2,-1
 389.955743198 823.939775169 l 1,3,-1
 485.955743198 -193.060224831 l 1,4,-1
 486.988406341 -204 l 1,5,-1
 476 -204 l 1,6,-1
 336 -204 l 1,7,-1
 326.872729992 -204 l 1,8,-1
 326.041550917 -194.910654636 l 1,9,-1
 233.041550917 822.089345364 l 1,10,-1
 232.043821437 833 l 1,11,-1
 243 833 l 1,0,-1
EndSplineSet
Substitution2: "'case' Case-Sensitive Forms lookup 17 subtable" Backslash
EndChar

StartChar: bracketright
Encoding: 93 93 64
Width: 588
VWidth: 1177
Flags: W
LayerCount: 2
Fore
SplineSet
345 -204 m 1,0,-1
 18 -204 l 1,1,-1
 5.32912447453 -204 l 1,2,-1
 8.27378799936 -191.676037841 l 1,3,-1
 35.2737879994 -78.6760378406 l 1,4,-1
 37.1078855365 -71 l 1,5,-1
 45 -71 l 1,6,-1
 225.127264582 -71 l 1,7,-1
 411.29793462 700 l 1,8,-1
 236 700 l 1,9,-1
 223.329124475 700 l 1,10,-1
 226.273787999 712.323962159 l 1,11,-1
 253.273787999 825.323962159 l 1,12,-1
 255.107885536 833 l 1,13,-1
 263 833 l 1,14,-1
 590 833 l 1,15,-1
 602.695129223 833 l 1,16,-1
 599.721873712 820.657955694 l 1,17,-1
 354.721873712 -196.342044306 l 1,18,-1
 352.877036794 -204 l 1,19,-1
 345 -204 l 1,0,-1
EndSplineSet
Substitution2: "'case' Case-Sensitive Forms lookup 17 subtable" Bracketright
EndChar

StartChar: asciicircum
Encoding: 94 94 65
Width: 588
VWidth: 1177
Flags: W
LayerCount: 2
Fore
SplineSet
636.905498469 350.794182181 m 1,0,-1
 504.905498469 294.794182181 l 1,1,-1
 494.846382462 290.526678421 l 1,2,-1
 491.484938748 300.923702001 l 1,3,-1
 411.104307491 549.542863796 l 1,4,-1
 207.718448645 302.641890963 l 1,5,-1
 202.219137005 295.965982415 l 1,6,-1
 194.820461803 300.445914189 l 1,7,-1
 85.8204618025 366.445914189 l 1,8,-1
 75.8735807735 372.46879628 l 1,9,-1
 83.317787204 381.401843997 l 1,10,-1
 378.317787204 735.401843997 l 1,11,-1
 381.31625054 739 l 1,12,-1
 386 739 l 1,13,-1
 509 739 l 1,14,-1
 516.189093115 739 l 1,15,-1
 518.479098225 732.185388021 l 1,16,-1
 642.479098225 363.185388021 l 1,17,-1
 645.428070058 354.409818613 l 1,18,-1
 636.905498469 350.794182181 l 1,0,-1
EndSplineSet
EndChar

StartChar: underscore
Encoding: 95 95 66
Width: 588
VWidth: 1177
Flags: W
LayerCount: 2
Fore
SplineSet
-9 -58 m 1,0,-1
 517 -58 l 1,1,-1
 529.758529053 -58 l 1,2,-1
 526.710423902 -70.3890725474 l 1,3,-1
 495.710423902 -196.389072547 l 1,4,-1
 493.837894132 -204 l 1,5,-1
 486 -204 l 1,6,-1
 -40 -204 l 1,7,-1
 -52.7585290529 -204 l 1,8,-1
 -49.7104239023 -191.610927453 l 1,9,-1
 -18.7104239023 -65.6109274526 l 1,10,-1
 -16.8378941323 -58 l 1,11,-1
 -9 -58 l 1,0,-1
EndSplineSet
EndChar

StartChar: grave
Encoding: 96 96 67
Width: 588
VWidth: 1177
Flags: W
LayerCount: 2
Fore
SplineSet
357.986209895 822.010324032 m 1,0,-1
 543.986209895 683.010324032 l 1,1,-1
 551.59914556 677.321087164 l 1,2,-1
 546.304295633 669.428763689 l 1,3,-1
 493.304295633 590.428763689 l 1,4,-1
 488.313819941 582.990130109 l 1,5,-1
 480.37286211 587.134922733 l 1,6,-1
 275.37286211 694.134922733 l 1,7,-1
 265.629066656 699.220708653 l 1,8,-1
 271.61038713 708.441911051 l 1,9,-1
 343.61038713 819.441911051 l 1,10,-1
 349.425922488 828.407528062 l 1,11,-1
 357.986209895 822.010324032 l 1,0,-1
EndSplineSet
EndChar

StartChar: a
Encoding: 97 97 68
Width: 628
VWidth: 1177
Flags: W
LayerCount: 2
Fore
SplineSet
282.114147031 134.762695312 m 0,0,1
 295.391201429 131 295.391201429 131 312.835801597 131 c 0,2,3
 344.684352245 131 344.684352245 131 365.381089497 143.026367188 c 0,4,5
 372.26894375 147.028320312 372.26894375 147.028320312 378.75559397 151.590820312 c 128,-1,6
 385.24224419 156.154296875 385.24224419 156.154296875 391.13071682 161.09765625 c 128,-1,7
 397.019189451 166.040039062 397.019189451 166.040039062 402.495054316 171.4765625 c 1,8,9
 404.49692767 185.219726562 404.49692767 185.219726562 406.921775818 198.470703125 c 0,10,11
 409.647267816 213.37109375 409.647267816 213.37109375 415.050563476 232.423828125 c 2,12,-1
 465.711125454 420.009765625 l 1,13,14
 460.552491684 420.952148438 460.552491684 420.952148438 457.098197529 421.374023438 c 128,-1,15
 453.644940076 421.796875 453.644940076 421.796875 449.023318423 422.087890625 c 0,16,17
 441.774691551 422.543945312 441.774691551 422.543945312 434.797680846 422.772460938 c 128,-1,18
 427.820670142 423 427.820670142 423 421.11734901 423 c 0,19,20
 380.49414478 423 380.49414478 423 347.960333497 406.051757812 c 0,21,22
 314.798280239 388.775390625 314.798280239 388.775390625 291.136572613 360.370117188 c 0,23,24
 267.26026748 331.70703125 267.26026748 331.70703125 254.518151794 294.860351562 c 128,-1,25
 241.709687119 257.823242188 241.709687119 257.823242188 241.709687119 218.038085938 c 0,26,27
 241.709687119 190.3203125 241.709687119 190.3203125 247.149267382 173.31640625 c 0,28,29
 252.374250139 156.985351562 252.374250139 156.985351562 261.542850833 147.286132812 c 0,30,31
 270.185843143 138.142578125 270.185843143 138.142578125 282.114147031 134.762695312 c 0,0,1
370.94818422 6.4443359375 m 0,32,33
 326.875869349 -13 326.875869349 -13 256.503437901 -13 c 0,34,35
 170.211914062 -11.9755859375 170.211914062 -11.9755859375 122.260742188 44.630859375 c 0,36,37
 106.322265625 63.4453125 106.322265625 63.4453125 95.7822265625 87.802734375 c 128,-1,38
 85.2412109375 112.16015625 85.2412109375 112.16015625 80.12109375 141.408203125 c 128,-1,39
 75 170.65625 75 170.65625 75 205.28515625 c 0,40,41
 75 284.458984375 75 284.458984375 103.249023438 350.934570312 c 128,-1,42
 131.5 417.415039062 131.5 417.415039062 179.891601562 464.651367188 c 0,43,44
 230.340166109 511.895507812 230.340166109 511.895507812 299.165836789 538.235351562 c 0,45,46
 322.102889069 547.013671875 322.102889069 547.013671875 345.923212244 552.87109375 c 0,47,48
 369.742498715 558.936523438 369.742498715 558.936523438 394.384927311 561.96875 c 128,-1,49
 419.026319204 565 419.026319204 565 444.47219257 565 c 0,50,51
 470.435380696 565 470.435380696 565 496.916920286 562.708984375 c 128,-1,52
 523.397423174 560.41796875 523.397423174 560.41796875 549.771484375 555.841796875 c 0,53,54
 575.282226562 551.407226562 575.282226562 551.407226562 600.770507812 544.268554688 c 128,-1,55
 626.259765625 537.12890625 626.259765625 537.12890625 651.713867188 527.295898438 c 2,56,-1
 659.760742188 524.1875 l 1,57,-1
 657.71875 516.052734375 l 1,58,-1
 584.723632812 225.368164062 l 2,59,60
 579.88671875 205.748046875 579.88671875 205.748046875 577.953125 186.606445312 c 0,61,62
 577.301757812 180.1640625 577.301757812 180.1640625 576.868164062 173.668945312 c 128,-1,63
 576.434570312 167.173828125 576.434570312 167.173828125 576.216796875 160.622070312 c 128,-1,64
 576 154.069335938 576 154.069335938 576 147.462890625 c 0,65,66
 576 115.583007812 576 115.583007812 582.305664062 85.1318359375 c 0,67,68
 588.702148438 54.244140625 588.702148438 54.244140625 598.544921875 23.8251953125 c 2,69,-1
 601.973632812 13.2265625 l 1,70,-1
 590.631835938 11.416015625 l 1,71,-1
 458.94352874 -8.8662109375 l 1,72,-1
 450.52342756 -10.177734375 l 1,73,-1
 447.354226709 -2.7138671875 l 2,74,75
 445.454986945 1.7587890625 445.454986945 1.7587890625 442.02557366 7.7587890625 c 0,76,77
 438.049817931 14.7138671875 438.049817931 14.7138671875 434.124860646 23.6923828125 c 0,78,79
 432.657926003 27.048828125 432.657926003 27.048828125 431.307102088 30.212890625 c 128,-1,80
 429.957314876 33.3759765625 429.957314876 33.3759765625 428.717418174 36.34765625 c 1,81,82
 420.63942896 31.2802734375 420.63942896 31.2802734375 411.563094826 26.2939453125 c 128,-1,83
 402.48572399 21.3076171875 402.48572399 21.3076171875 392.417265154 16.390625 c 128,-1,84
 382.347769615 11.47265625 382.347769615 11.47265625 370.94818422 6.4443359375 c 0,32,33
EndSplineSet
Substitution2: "'case' Case-Sensitive Forms lookup 18 subtable" A
Substitution2: "'ordn' Ordinals in Latin lookup 7 subtable" ordfeminine
EndChar

